<?xml version="1.0" encoding="UTF-8"?>
<svg id="Calque_1" xmlns="http://www.w3.org/2000/svg" version="1.1" viewBox="0 0 480 240">
  <!-- Generator: Adobe Illustrator 30.1.0, SVG Export Plug-In . SVG Version: 2.1.1 Build 136)  -->
  <defs>
    <style>
      .st0 {
        fill: #fff;
      }

      .st1 {
        fill: #006492;
      }

      .st2 {
        fill: #e31938;
      }
    </style>
  </defs>
  <path id="path3022" class="st0" d="M197.4,77.2L270.2,4.5c5.4-5.4,11.6-6.5,18.2,0l67.6,67.6c4.8,4.8,4.4,12.2,0,16.6l-147.2,147c-5.3,5.3-12.2,6.2-18.3,0l-66.2-66.2c-5.3-5.3-4.8-13.6,0-18.5l73.1-73.8Z"/>
  <path id="path3000" class="st1" d="M198.6,84.7l76.1,76.1-69.3,69.3c-4.3,4.3-8.7,4.4-13.1,0l-63.4-63.4c-4-4-3.7-8.4,0-12l69.5-70Z"/>
  <path id="path3002" class="st2" d="M279.6,156.3l-76.1-76.1L272.7,10.9c4.3-4.3,8.7-4.4,13.1,0l63.4,63.4c4,4,3.7,8.4,0,12l-69.5,70Z"/>
  <circle class="st0" cx="279.1" cy="80.3" r="18.8"/>
  <circle class="st0" cx="226.4" cy="160.9" r="18.8"/>
  <circle class="st0" cx="171.6" cy="160.9" r="18.8"/>
</svg>