<?xml version="1.0" encoding="UTF-8"?>
<svg id="Calque_1" xmlns="http://www.w3.org/2000/svg" version="1.1" viewBox="0 0 480 240">
  <!-- Generator: Adobe Illustrator 30.2.1, SVG Export Plug-In . SVG Version: 2.1.1 Build 1)  -->
  <defs>
    <style>
      .st0 {
        fill: #fff;
      }
    </style>
  </defs>
  <path class="st0" d="M64.7,30.4l-.4-1.3L50.6,0s-12.5,27-12.7,27.5c-6.1,15.8,4.2,24.1,8,25,3.8.9,17.2-3.3,19.2-17.9.1-1.3,0-2.6-.5-4.2Z"/>
  <path class="st0" d="M84.8,109.8c1.1-10.2-5-19.2-13.7-20.2-8.7-1-16.7,6.4-17.8,16.5-1.1,10.2,5,19.2,13.7,20.2,8.7,1,16.7-6.4,17.8-16.5Z"/>
  <path class="st0" d="M156.5,208.6v11.6c0,.6,0,1.2.2,1.8.2.6.4,1.2.8,1.7.4.5.8,1,1.4,1.3.6.3,1.3.5,2.2.5s1.6-.2,2.2-.5c.6-.3,1.1-.8,1.4-1.3.4-.5.6-1.1.8-1.7.2-.6.2-1.2.2-1.8v-11.6h2.5v12c0,1.1-.2,2.1-.5,3-.4.9-.9,1.7-1.5,2.3-.6.7-1.4,1.2-2.2,1.5-.9.4-1.8.5-2.8.5s-1.9-.2-2.8-.5c-.9-.4-1.6-.9-2.2-1.5-.6-.7-1.1-1.4-1.5-2.3-.4-.9-.5-1.9-.5-3v-12h2.5Z"/>
  <path class="st0" d="M173.4,214.8h2.3v2h0c.3-.7.8-1.2,1.5-1.6.7-.4,1.6-.6,2.5-.6s1.1,0,1.7.3c.5.2,1,.5,1.4.9.4.4.7.9,1,1.5.2.6.4,1.3.4,2.2v8.2h-2.3v-7.5c0-.6,0-1.1-.2-1.5-.2-.4-.4-.8-.6-1-.3-.3-.6-.4-.9-.6-.3-.1-.7-.2-1-.2s-.9,0-1.3.2c-.4.2-.8.4-1.1.8-.3.3-.5.8-.7,1.3-.2.5-.3,1.2-.3,1.9v6.5h-2.3v-12.7h0Z"/>
  <path class="st0" d="M191.1,222c0,.6.1,1.1.3,1.5.2.5.5.8.9,1.2.4.3.8.6,1.3.7.5.2,1,.3,1.5.3s1.4-.2,1.9-.5c.5-.3,1-.8,1.5-1.4l1.8,1.4c-1.3,1.7-3.1,2.6-5.4,2.6s-1.8-.2-2.6-.5c-.8-.3-1.4-.8-2-1.4-.5-.6-1-1.3-1.3-2.1-.3-.8-.4-1.7-.4-2.6s.2-1.8.5-2.6c.3-.8.8-1.5,1.3-2.1.6-.6,1.2-1.1,2-1.4.8-.3,1.6-.5,2.5-.5s2,.2,2.8.6c.7.4,1.4.9,1.8,1.5.5.6.8,1.3,1,2.1.2.8.3,1.6.3,2.4v.9h-9.8,0ZM198.4,220.1c0-.5,0-1-.2-1.5-.1-.4-.4-.8-.7-1.2-.3-.3-.7-.6-1.1-.8-.4-.2-1-.3-1.5-.3s-1.1.1-1.6.3c-.5.2-.9.5-1.2.9-.3.4-.6.8-.8,1.2-.2.4-.3.9-.3,1.3h7.3Z"/>
  <path class="st0" d="M212.1,208.6h2.9l5.4,15.4h0l5.6-15.4h2.7l-7.2,18.9h-2.3l-7-18.9h0Z"/>
  <path class="st0" d="M231,210.3c0-.5.2-.9.5-1.2.3-.3.7-.5,1.2-.5s.9.2,1.2.5c.3.3.5.8.5,1.2s-.2.9-.5,1.2c-.3.3-.7.5-1.2.5s-.9-.2-1.2-.5c-.3-.3-.5-.8-.5-1.2ZM231.5,214.8h2.3v12.7h-2.3v-12.7Z"/>
  <path class="st0" d="M239.3,207.3h2.3v20.2h-2.3v-20.2Z"/>
  <path class="st0" d="M247,207.3h2.3v20.2h-2.3v-20.2Z"/>
  <path class="st0" d="M256.3,222c0,.6.1,1.1.3,1.5.2.5.5.8.9,1.2.4.3.8.6,1.3.7.5.2,1,.3,1.6.3s1.4-.2,1.9-.5c.5-.3,1-.8,1.5-1.4l1.8,1.4c-1.3,1.7-3.1,2.6-5.4,2.6s-1.8-.2-2.6-.5c-.8-.3-1.4-.8-2-1.4-.5-.6-1-1.3-1.3-2.1-.3-.8-.4-1.7-.4-2.6s.2-1.8.5-2.6c.3-.8.8-1.5,1.3-2.1.6-.6,1.2-1.1,2-1.4.8-.3,1.6-.5,2.5-.5s2,.2,2.8.6c.7.4,1.4.9,1.8,1.5.5.6.8,1.3,1,2.1.2.8.3,1.6.3,2.4v.9h-9.8,0ZM263.7,220.1c0-.5,0-1-.2-1.5-.1-.4-.4-.8-.7-1.2-.3-.3-.7-.6-1.1-.8-.4-.2-1-.3-1.5-.3s-1.1.1-1.6.3c-.5.2-.9.5-1.2.9-.3.4-.6.8-.8,1.2-.2.4-.3.9-.3,1.3h7.3,0Z"/>
  <path class="st0" d="M279.3,216.4c.7-.6,1.4-1.1,2.3-1.4.9-.3,1.7-.5,2.6-.5s1.7.1,2.3.3c.6.2,1.2.5,1.6.9.4.4.7.8.9,1.4.2.5.3,1,.3,1.6v6.5c0,.4,0,.9,0,1.2,0,.4,0,.7,0,1.1h-2.1c0-.6,0-1.3,0-1.9h0c-.5.8-1.1,1.4-1.8,1.7-.7.3-1.5.5-2.5.5s-1.1,0-1.6-.2c-.5-.2-1-.4-1.4-.7-.4-.3-.7-.7-.9-1.2-.2-.5-.3-1-.3-1.6s.2-1.5.5-2.1c.4-.6.8-1,1.4-1.4.6-.3,1.3-.6,2.1-.7.8-.2,1.7-.2,2.6-.2h1.7v-.5c0-.3,0-.6-.2-1-.1-.3-.3-.6-.5-.9-.2-.3-.5-.5-.9-.6-.4-.2-.8-.2-1.3-.2s-.8,0-1.2.1c-.3,0-.6.2-.9.3-.3.1-.5.3-.7.5-.2.2-.4.3-.6.5l-1.4-1.5h0ZM285.9,212.4h-2.1l-3.9-3.9h3.3l2.7,3.9ZM285.8,221.4c-.6,0-1.1,0-1.7,0s-1.1.2-1.6.4c-.5.2-.9.4-1.2.7-.3.3-.5.7-.5,1.2,0,.7.2,1.3.7,1.6.5.3,1.1.5,1.9.5s1.2-.1,1.6-.3.8-.5,1.1-.9c.3-.4.5-.8.6-1.2.1-.4.2-.9.2-1.3v-.8h-1.2Z"/>
  <path class="st0" d="M301,208.6h2.9l5.4,15.4h0l5.6-15.4h2.7l-7.2,18.9h-2.3l-7-18.9h0Z"/>
  <path class="st0" d="M319.9,210.3c0-.5.2-.9.5-1.2.3-.3.7-.5,1.2-.5s.9.2,1.2.5c.3.3.5.8.5,1.2s-.2.9-.5,1.2c-.3.3-.7.5-1.2.5s-.9-.2-1.2-.5c-.3-.3-.5-.8-.5-1.2ZM320.4,214.8h2.3v12.7h-2.3v-12.7Z"/>
  <path class="st0" d="M326.5,214.8h2.7l3.7,9.7,3.5-9.7h2.5l-4.8,12.7h-2.6l-5-12.7h0Z"/>
  <path class="st0" d="M342.5,214.8h2.3v2h0c.2-.3.4-.6.6-.9.3-.3.5-.5.9-.7.3-.2.7-.4,1-.5.4-.1.8-.2,1.1-.2s.7,0,1,.2v2.6c-.3,0-.5,0-.7-.1-.2,0-.4,0-.6,0-1.1,0-2,.3-2.6,1-.6.7-.9,1.7-.9,3.1v6.4h-2.3v-12.7h0Z"/>
  <path class="st0" d="M354.9,222c0,.6.1,1.1.3,1.5.2.5.5.8.9,1.2.4.3.8.6,1.3.7.5.2,1,.3,1.6.3s1.4-.2,1.9-.5c.5-.3,1-.8,1.5-1.4l1.8,1.4c-1.3,1.7-3.1,2.6-5.4,2.6s-1.8-.2-2.6-.5c-.8-.3-1.4-.8-2-1.4-.5-.6-1-1.3-1.3-2.1s-.4-1.7-.4-2.6.2-1.8.5-2.6c.3-.8.8-1.5,1.3-2.1.6-.6,1.2-1.1,2-1.4.8-.3,1.6-.5,2.5-.5s2,.2,2.8.6c.7.4,1.4.9,1.8,1.5.5.6.8,1.3,1,2.1.2.8.3,1.6.3,2.4v.9h-9.8,0ZM362.2,220.1c0-.5,0-1-.2-1.5-.2-.4-.4-.8-.7-1.2-.3-.3-.7-.6-1.1-.8-.4-.2-1-.3-1.5-.3s-1.1.1-1.6.3c-.5.2-.9.5-1.2.9-.3.4-.6.8-.8,1.2-.2.4-.3.9-.3,1.3h7.3,0Z"/>
  <path class="st0" d="M102.6,187.3c31.8-59.4,172.4-120,359.1-79-123.8-54.1-330.8-25.6-359.1,79Z"/>
  <path class="st0" d="M198,90.8c-57.1,12.9-148.1,76.1-88.5,149.2C47.7,199.6-1.4,115.6,50.6,34.4c-23.4,60-4.2,108.2,18.4,137.6,11.7-35.8,39.9-69.5,129-81.2Z"/>
  <path class="st0" d="M84.5,61.6s-11,8.7-20.6,9.9c-9.7,1.2-14.8-9.9-14.8-9.9l17.7-18.3,17.7,18.3h0Z"/>
  <path class="st0" d="M167.5,146.8h-11.9v47.5h33.3v-10.7h-21.4v-36.8Z"/>
  <path class="st0" d="M195,194.4h37.1v-10.2h-25.2v-9.5h25.2v-9.8h-25.2v-7.9h25.2v-10.2h-37.1v47.5Z"/>
  <path class="st0" d="M270.3,169c-2.2-1.5-5.5-2.7-10.5-4.1-7-1.9-7.7-2.1-9-2.7-1.1-.6-1.6-1.5-1.6-2.8,0-2.6,2.3-4.2,6.2-4.2s7.2,2.1,7.4,5.8h11.3c-.2-9.9-6.8-15.5-18.1-15.5s-18.2,5.8-18.2,14.6,1.3,7.1,3.5,9c2.4,2.1,4.9,3.2,11.7,5.2,9.6,2.9,10.9,3.6,10.9,6.6s-2.4,4.8-7,4.8-8.6-2.3-8.8-7.6h-12c.2,10.9,7.7,17.2,20.4,17.2s19.5-6.1,19.5-15.8-1.9-8.4-5.6-10.8h0Z"/>
  <path class="st0" d="M278.6,157.5h13.5v36.8h11.9v-36.8h13.6v-10.7h-39.1v10.7Z"/>
  <path class="st0" d="M361.9,188.4c-.7-11-2.2-14.5-7.1-16.3,4.3-1.9,7-6.3,7-11.5s-2.3-9.1-6.2-11.5c-2.7-1.6-5.5-2.2-10.5-2.2h-22.5v47.5h11.9v-17.7h7.3c5.3,0,7.5,2,8.1,7.7.3,4.6.6,7.1.7,7.8.2,1.1.4,1.7.6,2.2h12.2l-.3-.5c-.5-.7-1-2.7-1.2-5.4h0ZM342.9,167.8h-8.5v-11.2h8.3c5,0,7.3,1.8,7.3,5.5s-2.3,5.7-7.1,5.7Z"/>
  <path class="st0" d="M370.3,194.4h37.1v-10.2h-25.2v-9.5h25.2v-9.8h-25.2v-7.9h25.2v-10.2h-37.1v47.5Z"/>
  <path class="st0" d="M459.3,146.7h-11.2l-8.6,28.8-8.6-28.8h-17v47.5h11v-29.7l8.8,29.7h11.4l8.8-29.7v29.7h11v-47.5h-5.8Z"/>
</svg>