<?xml version="1.0" encoding="UTF-8"?>
<svg id="Calque_1" xmlns="http://www.w3.org/2000/svg" version="1.1" xmlns:xlink="http://www.w3.org/1999/xlink" viewBox="0 0 480 240">
  <!-- Generator: Adobe Illustrator 30.1.0, SVG Export Plug-In . SVG Version: 2.1.1 Build 136)  -->
  <defs>
    <style>
      .st0 {
        fill: #fff;
      }

      .st1 {
        fill: #c4c4c4;
      }

      .st2 {
        fill: #54a4db;
      }
    </style>
    <mask id="mask" x="238.3" y="86.2" width="34.7" height="12.2" maskUnits="userSpaceOnUse">
      <g id="mask0">
        <rect class="st1" x="238.3" y="86.2" width="34.7" height="12.2"/>
      </g>
    </mask>
  </defs>
  <path class="st0" d="M20.4,98.5c5,0,8.5,1.4,11.3,3.9v-2.3h12.9v60.3h-12.9v-22c-2.7,2.5-6.3,3.9-11.3,3.9-12.9,0-20.4-10.1-20.4-21.9s7.6-21.9,20.4-21.9ZM22.3,130.3c4.1,0,7.2-1.8,9.4-4.7v-10.3c-2.4-3.1-5.5-4.7-9.4-4.7-5.6,0-9.1,3.9-9.1,9.9s3.5,9.9,9.1,9.9Z"/>
  <path class="st0" d="M78.5,100.1h12.9v22.2c0,12.1-7.2,19.9-19.7,19.9s-19.6-7.8-19.6-19.9v-22.2h12.9v22.9c0,4.3,2.1,7.2,6.8,7.2s6.8-3,6.8-7.2v-22.9Z"/>
  <path class="st0" d="M145.7,100.1h12.8v3.3c2.5-2.3,5.6-4.1,9.8-4.1s2.7.2,3.7.6v12.6c-1.4-.3-2.9-.6-5-.6-4.7,0-7.7,2.7-8.5,4.1v24.6h-12.8v-40.5Z"/>
  <path class="st0" d="M182.8,111.6h-7.6v-11.4h7.6v-10.1h12.9v10.1h11.1v11.4h-11.1v13.3c0,3.2,1.7,5,5.1,5s4.9-.4,6.1-.9v11c-2.2,1-4.7,1.4-8.4,1.4-11,0-15.6-6.6-15.6-16.6v-13.3Z"/>
  <path class="st0" d="M211.3,87.6c0-4.3,3.7-8,8.1-8s8,3.7,8,8-3.7,8.1-8,8.1-8.1-3.8-8.1-8.1ZM212.9,100.1h12.8v40.5h-12.8v-40.5Z"/>
  <path class="st0" d="M254.5,142.3c-14.9,0-22.8-10.1-22.8-21.9s7.3-21.9,21.1-21.9,19.1,7.6,19.1,18.7-.4,5.3-.8,6.8h-26.2c1.2,5.5,4.7,6.9,9.6,6.9s7.2-1.5,9.1-3.9l9,7.2c-3.9,5.1-10.2,8.1-18,8.1ZM244.9,114.9h14.6c-.2-2.7-2.3-6.1-7-6.1s-6.6,2-7.6,6.1Z"/>
  <path class="st0" d="M278.5,100.1h12.8v3.3c2.5-2.3,5.6-4.1,9.8-4.1s2.7.2,3.7.6v12.6c-1.4-.3-2.9-.6-5-.6-4.7,0-7.7,2.7-8.5,4.1v24.6h-12.8v-40.5Z"/>
  <path class="st0" d="M315,126.9c2.2,2.8,4.9,5.2,8.5,5.2s3.5-1.2,3.5-2.8c0-5.5-18.7-3.3-18.7-17.5s6.5-13.3,15.4-13.3,12.5,3.1,15.6,7.1l-8.4,7.5c-1.9-2.3-4.3-4.4-7.2-4.4s-3.3,1.1-3.3,2.5c0,5.2,18.7,3.1,18.7,17.3-.2,9.2-7.6,13.8-15.4,13.8s-12.9-3.1-17-7.7l8.4-7.6Z"/>
  <g>
    <path class="st2" d="M347.7,132.1l14.2-13.6c2-1.9,3.9-4.1,3.9-6.7s-1.8-4.3-4.4-4.3c-3.7,0-5.7,2.5-7.8,6l-8-5c3.6-5.9,9-9.9,16.8-9.9s13.5,4.7,13.5,12.1-3.8,10.1-7.1,13.2l-8.8,8.2h17v9h-29.3v-9Z"/>
    <path class="st2" d="M412.7,120.4c0,12.5-5,21.9-16.3,21.9s-16.3-9.4-16.3-21.9,5.1-21.9,16.3-21.9,16.3,9.4,16.3,21.9ZM390.3,120.4c0,8,1.9,12.6,6.1,12.6s6-4.7,6-12.6-2-12.6-6-12.6-6.1,4.7-6.1,12.6Z"/>
    <path class="st2" d="M429.4,142.2c-8.2,0-13.4-3.8-16.9-10l8.7-5.4c2.1,4.5,4.4,6.6,8.2,6.6s5.5-1.9,5.5-4.8-2.6-4.8-6.2-4.8h-6.6v-8.9h6.3c2.5,0,4.7-1.2,4.7-3.8s-1.8-3.6-4.3-3.6-4.8,1.7-6.3,4.1l-8.1-5c3.1-4.9,7.9-7.9,15.1-7.9s13.7,4.3,13.7,11.2-1.5,6.9-4.3,9.1c3.8,2.2,6,5.7,6,10.1,0,8.1-6.7,13.3-15.6,13.3Z"/>
    <path class="st2" d="M480,120.4c0,12.5-5,21.9-16.3,21.9s-16.3-9.4-16.3-21.9,5.1-21.9,16.3-21.9,16.3,9.4,16.3,21.9ZM457.6,120.4c0,8,1.9,12.6,6.1,12.6s6-4.7,6-12.6-1.9-12.6-6-12.6-6.1,4.7-6.1,12.6Z"/>
  </g>
  <polygon class="st2" points="116.4 111.5 97.8 111.5 97.8 100.1 138.3 100.1 138.3 140.7 125.6 140.7 125.6 121.1 107.1 140.7 94.1 140.7 91.4 138 116.4 111.5"/>
</svg>