<?xml version="1.0" encoding="UTF-8"?>
<svg id="Calque_1" xmlns="http://www.w3.org/2000/svg" version="1.1" viewBox="0 0 480 240">
  <!-- Generator: Adobe Illustrator 30.1.0, SVG Export Plug-In . SVG Version: 2.1.1 Build 136)  -->
  <defs>
    <style>
      .st0 {
        fill: #bd1541;
      }

      .st1 {
        fill: #7b7468;
      }
    </style>
  </defs>
  <g id="g3383">
    <g id="g3389">
      <path id="path3391" class="st0" d="M106.9,198.2C173,126,188.4,0,188.4,0c0,0-2.5,14.6-9.3,35.8H25.6v104c0,14.1,3.7,26.5,9.4,37.3,57.2-7.2,94.9-43.5,118.5-81.9-26.1,46.7-70,94.3-141.7,100,0,0,1.6,13.3,11.8,27,12,16,22.2,17.8,22.2,17.8,12.5-4.4,24-10.5,34.5-18,13.3,8,23.7,11.8,23.7,11.8,0,0,83.6-39.5,83.6-97.1V35.8h-.2c-2.9,15.8-22.3,108.3-80.4,162.3"/>
    </g>
    <g id="g3393">
      <path id="path3395" class="st1" d="M306.3,149.1h-32.4c-2.1,0-1.9-1.1-1.8-1.7.2-1,.4-2.2.8-3.5.5-2,1.5-4,2.8-5.9,1.4-1.9,3.2-3.5,5.5-4.8,2.3-1.3,5.2-1.9,8.9-2h0s0,0,0,0c0,0,0,0,0,0h0c3.6,0,6.6.7,8.9,2,2.3,1.3,4.1,2.9,5.5,4.8,1.3,1.9,2.3,3.8,2.8,5.9.3,1.3.6,2.5.8,3.5.1.6.3,1.7-1.8,1.7M292.1,116.8c-30.2,0-41.3,24.5-41.3,42.6,0,34.4,29.9,40.2,43.3,40.2s4.9,0,7.3-.2c2.4,0,4-.3,6.3-.8,1.5-.7,1.3-1.9,1.3-2.4l-1.7-11.4c-.5-1.6-1.5-1.8-2.2-1.8-2.9.3-5.2.4-8.6.4-7.4,0-23.2-4.4-25.8-19.4h55.6c2.9,0,2.7-3.4,2.7-8.6s-2.5-38.7-36.8-38.7"/>
    </g>
    <g id="g3397">
      <path id="path3399" class="st1" d="M445.6,149.1c-4.9-1.5-14.7-4.3-14.3-10.3.9-12.9,25.7-4,27.5-3.5,1.4.4,2.3-.2,2.6-1.4l2.6-9.4c.6-2,.2-2.8-.8-3.5-4.7-3.2-51.9-13.7-51.9,19.9s35.8,20,35.8,32.2-18,13.6-58.7-2c-.8-.3-2.2,0-2.7,1.1l-4.5,13.5c-.4,1.5.6,2.1,1.2,2.3,60,21.3,78.4,11.1,84.5-6.6,1.1-3.1,6.3-23.9-21.5-32.4"/>
    </g>
    <g id="g3401">
      <path id="path3403" class="st1" d="M246.8,173.8c-.4-.1-7.6-.7-10-4.5-2.7-4.4-2-17.5-2-22v-55.3c0-2-1.5-2.3-2.2-2.3h-16.6c-.6,0-2,.4-2,2.3v66.8c0,27.4,12,39.1,49.5,39.1s.6,0,.7-.2c-15-9.1-17.4-23.9-17.4-23.9"/>
    </g>
    <g id="g3405">
      <path id="path3407" class="st1" d="M387,167.6v-12.9c0-9.8-3-20.8-16.6-20.8s-18.1,7.9-18.1,17.9v43.7c0,1.2-.9,2.2-2.1,2.2h-16.6c-.7,0-2.2-.3-2.2-2.3,0,0,0-70.8,0-74.6,0-1.3,1.1-2.2,2.1-2.2h16c1.5,0,2.1,1.2,2.1,1.8v9.2s8.4-13.1,25.2-12.8c29.4.6,31,28.8,31,35.8v21.9l-20.8-6.9Z"/>
    </g>
    <g id="g3409">
      <path id="path3411" class="st1" d="M260.5,98.3c-.4,1-1.6,1.8-2.6,1.8h-4.3c-1.1,0-2.3-.8-2.6-1.8l-15.9-42.8c-.4-1,.2-1.8,1.3-1.8h4.6c1.1,0,2.3.8,2.6,1.8l11.4,31.9c.4,1,.7,1.8.7,1.8s.4-.8.8-1.8l11.7-31.9c.4-1,1.6-1.8,2.6-1.8h4.1c1.1,0,1.7.8,1.3,1.8l-15.6,42.8Z"/>
    </g>
    <g id="g3413">
      <path id="path3415" class="st1" d="M279.4,55.7c0-1.1.9-2,2-2h3.7c1.1,0,2,.9,2,2v42.5c0,1.1-.9,2-2,2h-3.7c-1.1,0-2-.9-2-2v-42.5ZM287,43.4c0,1.1-.9,2-2,2h-3.7c-1.1,0-2-.9-2-2v-5.4c0-1.1.9-2,2-2h3.7c1.1,0,2,.9,2,2v5.4Z"/>
    </g>
    <g id="g3417">
      <path id="path3419" class="st1" d="M293,37.9c0-1.1.9-2,2-2h3.7c1.1,0,2,.9,2,2v60.3c0,1.1-.9,2-2,2h-3.7c-1.1,0-2-.9-2-2v-60.3Z"/>
    </g>
    <g id="g3421">
      <path id="path3423" class="st1" d="M306.7,37.9c0-1.1.9-2,2-2h3.7c1.1,0,2,.9,2,2v60.3c0,1.1-.9,2-2,2h-3.7c-1.1,0-2-.9-2-2v-60.3Z"/>
    </g>
    <g id="g3425">
      <path id="path3427" class="st1" d="M396.9,59.4c10.4,0,14.1,8.9,14.1,18s-4.5,17.2-14.4,17.2h-.2c-9.9,0-14.4-8.4-14.4-17.2s3.9-18,14.3-18h.5ZM416.4,36h-4.4c-.9,0-1.6.7-1.6,1.6v22.3h-.2c-3.4-5.5-10.2-7.3-15-7.3-14.2,0-21.2,11.1-21.2,24.2s7.1,24.4,21.4,24.4,12.3-2.3,14.8-7.4h.2v4.7c0,.9.7,1.6,1.6,1.6h4.4c.9,0,1.6-.7,1.6-1.6v-60.9c0-.9-.7-1.6-1.6-1.6"/>
    </g>
    <g id="g3429">
      <path id="path3431" class="st1" d="M455.3,72.5h-24.8c-.9,0-.9-.9-.8-1.4.4-2.6,1.4-4.9,2.9-6.8,2.4-3,6-4.9,10.3-4.9s0,0,0,0h0c4.3,0,7.9,1.9,10.3,4.9,1.5,1.9,2.6,4.3,2.9,6.8,0,.5,0,1.4-.9,1.4M453.2,55h0s0,0,0,0c0,0,0,0,0,0-2.7-1.4-5.9-2.3-9.8-2.3-12.7,0-21.8,10.2-21.8,24.2.4,14.2,7.4,24.4,22.2,24.4h0c4.7,0,7.9-1.5,7.9-1.5.9-.3,1.3-1.1,1-1.9l-1.3-3.4c-.3-.8-1.2-1.3-2-.9,0,0-2.7,1-5.3,1-10.1,0-14.7-7.2-14.4-15.3h33c1.5,0,1.8-1.2,1.8-1.8-.1-8.2-3.1-18-11.1-22.4"/>
    </g>
    <g id="g3433">
      <path id="path3435" class="st1" d="M351.7,72.5h-24.8c-.9,0-.9-.9-.9-1.4.4-2.6,1.4-4.9,2.9-6.8,2.4-3,6-4.9,10.3-4.9s0,0,0,0h0c4.3,0,7.9,1.9,10.3,4.9,1.5,1.9,2.6,4.3,2.9,6.8,0,.5,0,1.4-.8,1.4M349.7,55h0s0,0,0,0c0,0,0,0,0,0-2.7-1.4-5.9-2.3-9.8-2.3-12.7,0-21.8,10.2-21.8,24.2.4,14.2,7.4,24.4,22.2,24.4h0c4.7,0,7.9-1.5,7.9-1.5.9-.3,1.3-1.1,1-1.9l-1.3-3.4c-.3-.8-1.2-1.3-2-.9,0,0-2.7,1-5.3,1-10.1,0-14.7-7.2-14.4-15.3h33c1.5,0,1.8-1.2,1.8-1.8-.1-8.2-3.1-18-11.2-22.4"/>
    </g>
  </g>
</svg>