<?xml version="1.0" encoding="UTF-8"?>
<svg id="Calque_1" xmlns="http://www.w3.org/2000/svg" version="1.1" viewBox="0 0 480 240">
  <!-- Generator: Adobe Illustrator 30.1.0, SVG Export Plug-In . SVG Version: 2.1.1 Build 136)  -->
  <defs>
    <style>
      .st0 {
        letter-spacing: 0em;
      }

      .st1 {
        fill: #2d2878;
      }

      .st2 {
        fill: #fc0;
      }

      .st3 {
        fill: gray;
      }

      .st4 {
        fill: #28367b;
      }

      .st5 {
        fill: #fff;
      }

      .st6, .st7 {
        fill: #12100b;
      }

      .st8 {
        letter-spacing: 0em;
      }

      .st9 {
        fill: #007d6b;
      }

      .st10 {
        fill: #da0e15;
      }

      .st11 {
        fill: #2c2e6b;
      }

      .st7 {
        font-family: Marianne-Bold, Marianne;
        font-size: 17.6px;
        font-weight: 700;
      }

      .st12 {
        fill: #6070b4;
      }

      .st13 {
        letter-spacing: 0em;
      }

      .st14 {
        letter-spacing: 0em;
      }
    </style>
  </defs>
  <rect class="st5" y="44.5" width="480" height="151"/>
  <g>
    <path class="st11" d="M38.7,87.1s0,0,0,0c0,0,0,0,.1,0,0,0,0,0,0,0,0,0,0,0-.1,0"/>
    <path class="st11" d="M44.6,85.2s0,0,0,0c0,0,0,0,0,0"/>
    <g>
      <g>
        <g>
          <path class="st4" d="M185.2,108.8c0-4.9,3.8-8.4,10.7-9.6l10.5-1.7v-1.7c0-4-3-6.4-7.1-6.4s-6.3,1.6-8.2,4.2l-4.9-3.8c2.9-3.9,7.5-6.3,13.3-6.3,8.7,0,13.6,5.1,13.6,12.3v21.4h-6.6v-3.7c-2.3,2.8-6.4,4.6-10.3,4.6-6.4,0-10.8-3.7-10.8-9.4ZM197.2,112.8c4,0,7.2-1.9,9.1-5v-5.6l-8.7,1.5c-4,.7-5.7,2.4-5.7,4.9s2,4.2,5.3,4.2Z"/>
          <path class="st4" d="M216.6,84.9h6.6v3.1c2.4-2.6,5.7-4.4,10.3-4.4,7.1,0,12.6,4.8,12.6,14.2v19.5h-6.7v-19.2c0-5.1-2.8-8.2-7.5-8.2s-7.1,2.8-8.7,5.6v21.8h-6.6v-32.4Z"/>
        </g>
        <g>
          <path class="st4" d="M212,149.2l5.3,4.1c-3,4.1-7.9,6.7-14,6.7-11.1,0-18.1-8.2-18.1-17.9s7-17.9,18.1-17.9,11,2.6,14,6.7l-5.3,4.1c-1.8-2.6-4.9-4.4-8.7-4.4-6.4,0-11,5-11,11.5s4.6,11.5,11.1,11.5,6.8-1.8,8.6-4.4Z"/>
          <path class="st4" d="M227.8,132.3h-7.2v-6h7.2v-8.1h6.7v8.1h11.6v6h-11.6v15.2c0,4.4,2.3,5.8,5.9,5.8s4.5-.3,5.7-.7v5.8c-1.5.6-4.2,1-6.7,1-7.6,0-11.6-4-11.6-11.9v-15.2Z"/>
        </g>
        <path class="st4" d="M250.6,79.1v4.4h6.4v-6.2c0-2.3-2-4.5-4.2-4.7h-6.7s0,6.2,0,6.2l4.5.3Z"/>
        <path class="st2" d="M250.6,164.6v-4.4h6.4v6.2c0,2.3-2,4.5-4.2,4.7h-6.7v-6.2l4.5-.3Z"/>
        <path class="st12" d="M180.7,164.6v-4.4s-6.4,0-6.4,0v6.2c0,2.3,2,4.5,4.2,4.7h6.7s0-6.2,0-6.2l-4.5-.3Z"/>
        <path class="st9" d="M180.7,79.1v4.4h-6.4v-6.2c0-2.3,2-4.5,4.2-4.7h6.7v6.2s-4.5.3-4.5.3Z"/>
      </g>
      <g>
        <path class="st4" d="M279.1,102.8c0-1.2.9-2,2.5-2.2l2.6-.4v-.5c0-1.1-.8-1.7-1.8-1.7s-1.6.4-2.1,1.1l-1-.7c.7-.9,1.7-1.5,3.1-1.5,1.9,0,3.1,1.1,3.1,2.8v5.1h-1.3v-1c-.6.7-1.6,1.2-2.6,1.2-1.5,0-2.5-.8-2.5-2.1ZM281.8,103.9c1,0,1.8-.5,2.3-1.3v-1.5l-2.3.4c-1,.2-1.5.7-1.5,1.3s.5,1.1,1.4,1.1Z"/>
        <path class="st4" d="M291,104.2c-.3-.3-.5-.7-.5-1.1,0-.6.3-1.1.9-1.5-.7-.5-1.1-1.3-1.1-2.1,0-1.5,1.2-2.7,3-2.7s1.1.1,1.5.3h2.8v1.1h-1.7c.2.4.3.8.3,1.3,0,1.5-1.1,2.7-3,2.7s-.7,0-1.1-.2c-.3.2-.5.5-.5.8s.2.5.6.5h2.2c2,0,3,1,3,2.3s-1.6,2.8-3.9,2.8-3.7-.9-3.7-2.4.4-1.4,1.1-1.9ZM293.6,107.4c1.6,0,2.6-.6,2.6-1.6s-.4-1.3-1.8-1.3h-2.5c-.5.4-.8.8-.8,1.5,0,.9,1,1.5,2.5,1.5ZM295.1,99.5c0-.9-.6-1.7-1.7-1.7s-1.8.8-1.8,1.7.6,1.7,1.8,1.7,1.7-.8,1.7-1.7Z"/>
        <path class="st4" d="M305.1,105c-2.6,0-4.2-1.9-4.2-4.1s1.5-4.1,3.8-4.1,3.4,1.5,3.4,3.3,0,.6,0,.8h-5.9c0,1.8,1.2,2.9,2.8,2.9s1.8-.5,2.3-1.1l1,.7c-.7,1-1.8,1.6-3.3,1.6ZM302.3,99.9h4.6c0-1.1-.8-2.1-2.2-2.1s-2.1.7-2.4,2.1Z"/>
        <path class="st4" d="M313.1,97.1h1.3v.9c.6-.7,1.4-1.2,2.5-1.2,1.7,0,3,1.2,3,3.3v4.6h-1.3v-4.6c0-1.4-.8-2.1-2-2.1s-1.8.6-2.3,1.4v5.3h-1.3v-7.6Z"/>
        <path class="st4" d="M330.9,102.7l1,.8c-.7,1-1.8,1.6-3.2,1.6-2.5,0-4.1-1.9-4.1-4.1s1.6-4.1,4.1-4.1,2.5.6,3.2,1.6l-1,.8c-.5-.7-1.2-1.1-2.2-1.1-1.6,0-2.8,1.3-2.8,2.9s1.2,2.9,2.8,2.9,1.7-.5,2.2-1.1Z"/>
        <path class="st4" d="M339.6,105c-2.6,0-4.2-1.9-4.2-4.1s1.5-4.1,3.8-4.1,3.4,1.5,3.4,3.3,0,.6,0,.8h-5.9c0,1.8,1.2,2.9,2.8,2.9s1.8-.5,2.3-1.1l1,.7c-.7,1-1.8,1.6-3.3,1.6ZM336.9,99.9h4.6c0-1.1-.8-2.1-2.2-2.1s-2.1.7-2.4,2.1Z"/>
        <path class="st4" d="M354.4,97.1h1.3v.9c.6-.7,1.4-1.2,2.5-1.2,1.7,0,3,1.2,3,3.3v4.6h-1.3v-4.6c0-1.4-.8-2.1-2-2.1s-1.8.6-2.3,1.4v5.3h-1.3v-7.6Z"/>
        <path class="st4" d="M366.1,102.8c0-1.2.9-2,2.5-2.2l2.6-.4v-.5c0-1.1-.8-1.7-1.8-1.7s-1.6.4-2.1,1.1l-1-.7c.7-.9,1.7-1.5,3.1-1.5,1.9,0,3.1,1.1,3.1,2.8v5.1h-1.3v-1c-.6.7-1.6,1.2-2.6,1.2-1.5,0-2.5-.8-2.5-2.1ZM368.9,103.9c1,0,1.8-.5,2.3-1.3v-1.5l-2.3.4c-1,.2-1.5.7-1.5,1.3s.5,1.1,1.4,1.1Z"/>
        <path class="st4" d="M378.2,98.3h-1.4v-1.2h1.4v-1.9h1.3v1.9h2.6v1.2h-2.6v3.9c0,1.2.6,1.5,1.5,1.5s.8,0,1.1-.2v1.2c-.4.2-.8.2-1.3.2-1.7,0-2.6-.8-2.6-2.7v-3.9Z"/>
        <path class="st4" d="M386.6,94.2c0-.5.4-.9.9-.9s.9.4.9.9-.4.9-.9.9-.9-.4-.9-.9ZM386.9,97.1h1.3v7.6h-1.3v-7.6Z"/>
        <path class="st4" d="M401.2,100.9c0,2.2-1.7,4.1-4.1,4.1s-4.1-1.9-4.1-4.1,1.7-4.1,4.1-4.1,4.1,1.9,4.1,4.1ZM399.9,100.9c0-1.6-1.2-2.9-2.8-2.9s-2.8,1.3-2.8,2.9,1.2,2.9,2.8,2.9,2.8-1.3,2.8-2.9Z"/>
        <path class="st4" d="M406,97.1h1.3v.9c.6-.7,1.4-1.2,2.5-1.2,1.7,0,3,1.2,3,3.3v4.6h-1.3v-4.6c0-1.4-.8-2.1-2-2.1s-1.8.6-2.3,1.4v5.3h-1.3v-7.6Z"/>
        <path class="st4" d="M417.7,102.8c0-1.2.9-2,2.5-2.2l2.6-.4v-.5c0-1.1-.8-1.7-1.8-1.7s-1.6.4-2.1,1.1l-1-.7c.7-.9,1.7-1.5,3.1-1.5,1.9,0,3.1,1.1,3.1,2.8v5.1h-1.3v-1c-.6.7-1.6,1.2-2.6,1.2-1.5,0-2.5-.8-2.5-2.1ZM420.5,103.9c1,0,1.8-.5,2.3-1.3v-1.5l-2.3.4c-1,.2-1.5.7-1.5,1.3s.5,1.1,1.4,1.1Z"/>
        <path class="st4" d="M429.4,93.4h1.3v11.4h-1.3v-11.4Z"/>
        <path class="st4" d="M439.6,105c-2.6,0-4.2-1.9-4.2-4.1s1.5-4.1,3.8-4.1,3.4,1.5,3.4,3.3,0,.6,0,.8h-5.9c0,1.8,1.2,2.9,2.8,2.9s1.8-.5,2.3-1.1l1,.7c-.7,1-1.8,1.6-3.3,1.6ZM436.9,99.9h4.6c0-1.1-.8-2.1-2.2-2.1s-2.1.7-2.4,2.1Z"/>
        <path class="st4" d="M282.8,115.7c1.1,0,2,.4,2.7,1.2v-4.6h1.3v11.4h-1.3v-.9c-.7.8-1.6,1.2-2.7,1.2-2.4,0-3.9-1.9-3.9-4.1s1.5-4.1,3.9-4.1ZM282.9,122.7c1.1,0,2-.5,2.6-1.4v-3c-.6-.9-1.5-1.4-2.6-1.4-1.6,0-2.7,1.3-2.7,2.9s1.1,2.9,2.7,2.9Z"/>
        <path class="st4" d="M295.7,124c-2.6,0-4.2-1.9-4.2-4.1s1.5-4.1,3.8-4.1,3.4,1.5,3.4,3.3,0,.6,0,.8h-5.9c0,1.8,1.2,2.9,2.8,2.9s1.8-.5,2.3-1.1l1,.7c-.7,1-1.8,1.6-3.3,1.6ZM293,118.9h4.6c0-1.1-.8-2.1-2.2-2.1s-2.1.7-2.4,2.1Z"/>
        <path class="st4" d="M310.6,112.3h1.3v11.4h-1.3v-11.4Z"/>
        <path class="st4" d="M316.9,121.7c0-1.2.9-2,2.5-2.2l2.6-.4v-.5c0-1.1-.8-1.7-1.8-1.7s-1.6.4-2.1,1.1l-1-.7c.7-.9,1.7-1.5,3.1-1.5,1.9,0,3.1,1.1,3.1,2.8v5.1h-1.3v-1c-.6.7-1.6,1.2-2.6,1.2-1.5,0-2.5-.8-2.5-2.1ZM319.6,122.8c1,0,1.8-.5,2.3-1.3v-1.5l-2.3.4c-1,.2-1.5.7-1.5,1.3s.5,1.1,1.4,1.1Z"/>
        <path class="st4" d="M341,121.6l1,.8c-.7,1-1.8,1.6-3.2,1.6-2.5,0-4.1-1.9-4.1-4.1s1.6-4.1,4.1-4.1,2.5.6,3.2,1.6l-1,.8c-.5-.7-1.2-1.1-2.2-1.1-1.6,0-2.8,1.3-2.8,2.9s1.2,2.9,2.8,2.9,1.7-.5,2.2-1.1Z"/>
        <path class="st4" d="M353.9,119.8c0,2.2-1.7,4.1-4.1,4.1s-4.1-1.9-4.1-4.1,1.7-4.1,4.1-4.1,4.1,1.9,4.1,4.1ZM352.5,119.8c0-1.6-1.2-2.9-2.8-2.9s-2.8,1.3-2.8,2.9,1.2,2.9,2.8,2.9,2.8-1.3,2.8-2.9Z"/>
        <path class="st4" d="M358.7,112.3h1.3v4.6c.6-.7,1.4-1.2,2.5-1.2,1.7,0,3,1.2,3,3.3v4.6h-1.3v-4.6c0-1.4-.8-2.1-2-2.1s-1.8.7-2.3,1.4v5.3h-1.3v-11.4Z"/>
        <path class="st4" d="M374.3,124c-2.6,0-4.2-1.9-4.2-4.1s1.5-4.1,3.8-4.1,3.4,1.5,3.4,3.3,0,.6,0,.8h-5.9c0,1.8,1.2,2.9,2.8,2.9s1.8-.5,2.3-1.1l1,.7c-.7,1-1.8,1.6-3.3,1.6ZM371.5,118.9h4.6c0-1.1-.8-2.1-2.2-2.1s-2.1.7-2.4,2.1ZM373.4,114.8l1.6-2.5h1.5l-1.8,2.5h-1.3Z"/>
        <path class="st4" d="M382.3,121.8c.5.7,1.2,1,1.9,1s1.3-.5,1.3-1.2c0-1.7-3.8-1.1-3.8-3.8s1-2.2,2.5-2.2,2,.5,2.6,1.3l-.9.8c-.4-.6-1-.9-1.7-.9s-1.3.5-1.3,1.1c0,1.7,3.8,1.2,3.8,3.8,0,1.4-1.2,2.3-2.6,2.3s-2.2-.5-2.9-1.3l.9-.8Z"/>
        <path class="st4" d="M391.4,113.1c0-.5.4-.9.9-.9s.9.4.9.9-.4.9-.9.9-.9-.4-.9-.9ZM391.7,116h1.3v7.6h-1.3v-7.6Z"/>
        <path class="st4" d="M406,119.8c0,2.2-1.7,4.1-4.1,4.1s-4.1-1.9-4.1-4.1,1.7-4.1,4.1-4.1,4.1,1.9,4.1,4.1ZM404.7,119.8c0-1.6-1.2-2.9-2.8-2.9s-2.8,1.3-2.8,2.9,1.2,2.9,2.8,2.9,2.8-1.3,2.8-2.9Z"/>
        <path class="st4" d="M410.8,116h1.3v.9c.6-.7,1.4-1.2,2.5-1.2,1.7,0,3,1.2,3,3.3v4.6h-1.3v-4.6c0-1.4-.8-2.1-2-2.1s-1.8.6-2.3,1.4v5.3h-1.3v-7.6Z"/>
        <path class="st4" d="M282.8,134.6c1.1,0,2,.4,2.7,1.2v-4.6h1.3v11.4h-1.3v-.9c-.7.8-1.6,1.2-2.7,1.2-2.4,0-3.9-1.9-3.9-4.1s1.5-4.1,3.9-4.1ZM282.9,141.7c1.1,0,2-.5,2.6-1.4v-3c-.6-.9-1.5-1.4-2.6-1.4-1.6,0-2.7,1.3-2.7,2.9s1.1,2.9,2.7,2.9Z"/>
        <path class="st4" d="M295.7,142.9c-2.6,0-4.2-1.9-4.2-4.1s1.5-4.1,3.8-4.1,3.4,1.5,3.4,3.3,0,.6,0,.8h-5.9c0,1.8,1.2,2.9,2.8,2.9s1.8-.5,2.3-1.1l1,.7c-.7,1-1.8,1.6-3.3,1.6ZM293,137.8h4.6c0-1.1-.8-2.1-2.2-2.1s-2.1.7-2.4,2.1Z"/>
        <path class="st4" d="M303.8,140.8c.5.7,1.2,1,1.9,1s1.3-.5,1.3-1.2c0-1.7-3.8-1.1-3.8-3.8s1-2.2,2.5-2.2,2,.5,2.6,1.3l-.9.8c-.4-.6-1-.9-1.7-.9s-1.3.5-1.3,1.1c0,1.7,3.8,1.2,3.8,3.8,0,1.4-1.2,2.3-2.6,2.3s-2.2-.5-2.9-1.3l.9-.8Z"/>
        <path class="st4" d="M320.4,136.1h-1.4v-1.2h1.4v-1.9h1.3v1.9h2.6v1.2h-2.6v3.9c0,1.2.6,1.5,1.5,1.5s.8,0,1.1-.2v1.2c-.4.2-.8.2-1.3.2-1.7,0-2.6-.8-2.6-2.7v-3.9Z"/>
        <path class="st4" d="M332.4,142.9c-2.6,0-4.2-1.9-4.2-4.1s1.5-4.1,3.8-4.1,3.4,1.5,3.4,3.3,0,.6,0,.8h-5.9c0,1.8,1.2,2.9,2.8,2.9s1.8-.5,2.3-1.1l1,.7c-.7,1-1.8,1.6-3.3,1.6ZM329.6,137.8h4.6c0-1.1-.8-2.1-2.2-2.1s-2.1.7-2.4,2.1Z"/>
        <path class="st4" d="M340.4,134.9h1.3v1c.6-.7,1.3-1.1,2.2-1.1s.5,0,.7,0v1.3c-.2,0-.5,0-.8,0-1,0-1.7.5-2.1,1.3v5.2h-1.3v-7.6Z"/>
        <path class="st4" d="M349.1,134.9h1.3v1c.6-.7,1.3-1.1,2.2-1.1s.5,0,.7,0v1.3c-.2,0-.5,0-.8,0-1,0-1.7.5-2.1,1.3v5.2h-1.3v-7.6Z"/>
        <path class="st4" d="M357.6,132.1c0-.5.4-.9.9-.9s.9.4.9.9-.4.9-.9.9-.9-.4-.9-.9ZM357.9,134.9h1.3v7.6h-1.3v-7.6Z"/>
        <path class="st4" d="M365,136.1h-1.4v-1.2h1.4v-1.9h1.3v1.9h2.6v1.2h-2.6v3.9c0,1.2.6,1.5,1.5,1.5s.8,0,1.1-.2v1.2c-.4.2-.8.2-1.3.2-1.7,0-2.6-.8-2.6-2.7v-3.9Z"/>
        <path class="st4" d="M381.1,138.8c0,2.2-1.7,4.1-4.1,4.1s-4.1-1.9-4.1-4.1,1.7-4.1,4.1-4.1,4.1,1.9,4.1,4.1ZM379.8,138.8c0-1.6-1.2-2.9-2.8-2.9s-2.8,1.3-2.8,2.9,1.2,2.9,2.8,2.9,2.8-1.3,2.8-2.9Z"/>
        <path class="st4" d="M385.7,132.1c0-.5.4-.9.9-.9s.9.4.9.9-.4.9-.9.9-.9-.4-.9-.9ZM385.9,134.9h1.3v7.6h-1.3v-7.6Z"/>
        <path class="st4" d="M392.7,134.9h1.3v1c.6-.7,1.3-1.1,2.2-1.1s.5,0,.7,0v1.3c-.2,0-.5,0-.8,0-1,0-1.7.5-2.1,1.3v5.2h-1.3v-7.6Z"/>
        <path class="st4" d="M404.5,142.9c-2.6,0-4.2-1.9-4.2-4.1s1.5-4.1,3.8-4.1,3.4,1.5,3.4,3.3,0,.6,0,.8h-5.9c0,1.8,1.2,2.9,2.8,2.9s1.8-.5,2.3-1.1l1,.7c-.7,1-1.8,1.6-3.3,1.6ZM401.7,137.8h4.6c0-1.1-.8-2.1-2.2-2.1s-2.1.7-2.4,2.1Z"/>
        <path class="st4" d="M412.5,140.8c.5.7,1.2,1,1.9,1s1.3-.5,1.3-1.2c0-1.7-3.8-1.1-3.8-3.8s1-2.2,2.5-2.2,2,.5,2.6,1.3l-.9.8c-.4-.6-1-.9-1.7-.9s-1.3.5-1.3,1.1c0,1.7,3.8,1.2,3.8,3.8,0,1.4-1.2,2.3-2.6,2.3s-2.2-.5-2.9-1.3l.9-.8Z"/>
      </g>
    </g>
    <g>
      <g>
        <path class="st1" d="M53.3,87.2c.2-.2.3-.4.5-.5h0c.3-.4.6-.7,1-1,.1-.1.2-.2.3-.3,0,0,0,0,0-.1-.1,0-.2.2-.4.2,0,0,0,0,0,0,.1,0,.2-.2.3-.2,0,0,0,0,0,0,0,0,0,0,0,0-.4,0-.7.2-1,.5,0,0-.1,0-.1,0-.5.2-.8.5-1.2.7h0c-.2,0-.4.1-.5.2-.3,0-.5,0-.8,0-.4,0-.7.1-1.1.2,0,0,0,0,0,0-.2,0-.4.1-.6.2,0,0,0,0,0,0,0,0,0,0,0,0,0,0-.1.1-.2.2-.2,0-.3.3-.5.4,0,0,0,0,0,0-.2.2-.3.3-.5.5,0,0,0,0,0,0,0,0,0,0,0,0,0,0,0,0,0,0,0,0,0,0,0-.1,0,0,0,0,0-.1,0,0,0-.1.1-.2,0,0,0,0,0,0,0,0,0,0,0,0,.2-.1.3-.3.5-.4h0s0,0,0,0c0,0,0,0,0,0,0,0,0,0,0,0,0,0,0,0,0,0,0,0-.1,0-.1,0,0,0-.1.2-.2.2,0,0,0,0,0,0,0,0,0,0,0,0,0,0,0,0,0,0,0,0,0,0,0,0,0,0,0,0,0,0,0,0,0,0,0,0,0,0,0,0,0,0h0s0,0,0,0h0s0,0,0,0c0,0,0,0,0,0,0,0,0,0,0,0,0,0,0,0,0,0,0,0,.1-.1.2-.2h0c.1,0,.2-.1.3-.2,0,0,0,0,0,0-.2,0-.3.1-.5.2,0,0,0,0,0,0,0,0,0,0,0,0,0,0,0,0,0,0,0,0,.1,0,.2-.2,0,0,0,0,0,0,1-.8,2.3-.6,3.4-1,0,0,.2-.1.3-.2.2,0,.3-.2.5-.3.2-.2.4-.4.5-.7,0,0,0,0,0,0-.4.4-.8.8-1.3,1-.6.3-1.3.3-2,.4,0,0,0,0,.2,0,0,0,0-.1.1-.2h0s0,0,0,0c0,0,.2,0,.1,0,0-.1-.3,0-.4,0,0,0,0-.2,0-.2h.1c0,0,0-.1,0-.1.5-.3.9-.5,1.3-.7,0,0-.1,0-.2,0,0,0,0,0,0,0,.3,0,.6-.3.9-.4-.1,0-.2,0-.3,0,0,0,0,0,.2,0h0c0-.1,0-.1,0-.1,0,0,0,0,0,0,0,0,.1,0,.2,0,0,0,0,0,0,0,0-.1.2-.2.4-.2,0,0-.1,0-.1,0s0,0,0,0h0c0,0,0,0,0-.1.2-.2.2-.5.3-.7,0,0,0,0,0,0-.3.3-.8.5-1.2.6h-.2c-.2,0-.4,0-.5,0-.1,0-.2-.2-.3-.2-.2-.1-.5-.3-.8-.4-.8-.2-1.5-.4-2.3-.3.3-.2.7-.2,1.1-.3.5-.2,1-.3,1.5-.3,0,0-.2,0-.3,0-.4,0-.8,0-1.3.2-.3,0-.6.2-.9.2-.2,0-.3.2-.5.2h0c.3-.5.7-.8,1.1-.8.5,0,1.1,0,1.6,0,.4,0,.8.1,1.1.2.2,0,.2.2.3.3.2,0,.4,0,.5.1,0,0,0-.1,0-.2.1-.1.3,0,.4,0,.2-.2-.2-.4-.3-.6,0,0,0,0,0,0,.2.2.4.5.7.6.2,0,.5.2.5,0-.2-.3-.5-.6-.7-.9h0c0-.1,0-.1,0-.2h0c-.1-.2,0-.3-.2-.4,0-.2,0-.4,0-.5,0-.2,0-.3-.1-.5,0-.5-.2-1-.3-1.4,0-.6.3-1,.6-1.5.2-.4.5-.7.8-1,0-.4.3-.7.6-1,.2-.3.6-.5.9-.6.4-.2.8-.3.8-.3h-20.8s0,15.9,0,15.9h14.8c.6-.4,1.1-.6,1.9-1,.4-.2,1.2-.6,1.5-.9M48.7,85.1c0,0-.2,0-.2,0,0-.1.2-.1.4-.2,0,0,.1,0,.2,0,0,0,.2,0,.2.1-.2.2-.4,0-.6.2M44.1,84.4s0,0,0,0c.4-.5.7-1,1-1.5.4-.2.7-.5,1-.8.5-.5,1.1-1,1.7-1.3.2,0,.5,0,.8,0,0,.1-.2,0-.4.2,0,0,0,0,0,0,0,0,0,0,0,0-.3.3-.7.5-1,.9-.2.3-.3.7-.7.8-.1,0,0,0,0,0-.9.6-1.6,1.3-2.3,2.1M46.6,82.4c0,0,0,0,0,.1,0,0,0,0-.1.1,0,0,0,0,0,0,0-.1.1-.2.2-.3,0,0,0,0,0,0M48,86.9s0,0,0,0c0,0,0,0,0,0,0,0-.1.1-.2.2,0,0,0,0,0,0,0,0,0,0-.1.1,0,0-.2,0-.2,0,0,0,.1-.1.2-.2,0,0,0,0,.1-.1,0,0,0,0,0,0,0,0,.2,0,.2,0M47.5,86.7s0,0,0,0c-.1,0-.2.2-.3.2-.1,0-.3.1-.4.2,0,0,0,0,0,0,0,0,0,0,0,0-.1,0-.2.1-.3.2,0,0,0,0,0,0,0,0,0,0,0,0h0s0,0,0,0h0s0,0,0,0c0,0,0,0,0,0,0,0,0,0,0,0,0,0,0,0,0,0,0,0,0,0,0,0,0,0,0,0,0,0,0,0,0,0,0,0,0,0,0,0,0,0,0,0,0,0,0,0,0,0,0,0-.1,0,0,0-.1.1-.2.2,0,0,0,0,0,0,0,0,0,0,0,0,0,0,0,0,0,0h0s0,0,0,0c0,0,0,0,0,0,0,0,0,0,0,0,0,0,0,0,0,0,0,0,0,0,0,0,0,0,0,0,0,0,0,0,0,0,0,0h0s0,0,0,0c0,0,0,0,0-.1,0,0,0,0,0,0,0,0,0,0,0,0,0,0,0,0,0,0,0,0,0,0,0,0,0,0,0,0,0-.1,0,0,0,0,0,0,0,0,0,0,0,0,0,0,0,0,0,0,0,0,0,0,0,0,0,0,0,0,0,0h0s0,0,0,0c0,0,0,0,0,0,0,0,0,0,0,0,0,0,0,0,0,0,0,0,0,0,0,0h0s0,0,0,0c0,0,0,0,0,0,0,0,0,0,0,0,0,0,0-.1.1-.2,0,0,0,0,0,0,0,0,0,0-.1,0,0,0,0,0,0,0,0,0,0,0,0,0,0,0,0,0,0,0,0,0,0-.1.2-.2,0,0,0,0,0,0,0,0,0,0,0,0,0,0,0,0,0,0,0,0,0,0,0,0,.3-.3.8-.3,1.2-.4.2,0,.3,0,.5,0,0,0,.2,0,.3,0-.3.1-.5.3-.8.5M48.1,84.6s0,0,.1,0h-.2s0,0,0,0c-.2,0-.3,0-.5.1-.2,0-.4.2-.6.3-.3.1-.6.4-1,.5,0,0,0,0,0,0,0,0,.2-.1.2-.2,0,0,0,0,0,0,.2-.3.6-.5.9-.8h0c0-.2.2-.3.3-.4,0,0,.2-.2.3-.3,0,0,0,0,0,0-.1,0-.2,0-.4,0,0,0,.1,0,.2-.1,0,0,0,0,0,0,0,0,0-.1.2-.2.1,0,.3,0,.4-.1-.2,0-.5,0-.7,0,.2-.4.4-.7.8-.9,0,0,0,0,0,0,0,.2,0,.3-.2.3.2,0,.5,0,.7.2,0,0,0,0-.1,0,.2,0,.3,0,.5.2,0,0-.2,0-.3,0,.9.3,1.9.5,2.7,1.1-.7.3-1.4.5-2.1.6,0,0-.2,0-.2,0,0,0,0,0,0,0-.1,0-.2,0-.3,0-.1,0-.3,0-.4,0"/>
        <path class="st10" d="M79,73.2h-17.1s0,0,.2,0c.1,0,.3.2.4.2.2.1.4.3.6.5,0,0,.1.3,0,.4,0,.1,0,.4-.2.5-.2,0-.4,0-.6,0-.1,0-.2,0-.4,0,.5.2.9.4,1.2.8,0,0,.2,0,.3,0s0,0,0,0c0,0-.1,0,0,.2h0c.2,0,.1-.4.3-.3.2,0,.2.3.1.5-.1.1-.2.2-.4.3,0,0,0,.2,0,.2,0,.1.1.2.2.4,0,.2.1.5.2.7.1.5.2.9.2,1.4,0,.2-.1.5,0,.7,0,.2.2.4.3.6.1.2.2.3.3.5.2.3.5.6.4,1,0,.2-.4.2-.6.3-.2.2,0,.4,0,.5.2.3-.2.5-.4.5,0,0,.2,0,.2.1,0,.1.2.2,0,.4-.1.2-.5.3-.3.5.1.2,0,.4,0,.7,0,.3-.3.4-.5.5-.2,0-.4,0-.6,0,0,0-.1,0-.2,0-.5,0-1-.2-1.5-.2-.2,0-.3,0-.4.1-.1.1-.3.2-.4.3,0,0,0,0,0,0,0,0,0,0,0,0,0,0,0,0,0,0,0,0,0,0,0,0,0,.1-.2.2-.2.3,0,0,0,0,0,0,0,0,0,0,0,0,0,.2-.2.4-.2.6-.2.7-.1,1.3,0,1.4,0,0,1,.3,1.7.6.3.1.5.2.7.4h16.8v-15.9Z"/>
        <path class="st3" d="M62.9,79c.1,0,.3,0,.3,0,0,.2-.4.3-.6.5h0c0,0,0,.2-.2.2,0,0-.2,0-.3,0,.1.1.3.2.5.2,0,0,0,0,0,.1,0,0,0,0,0,0,0,0,0,0,0,0h0c0,.2-.2.2-.4.2.2,0,.5,0,.7,0,.2,0,0-.4.1-.5,0,0,0,0,0,0,0,0,.1-.2.2-.2,0,0,.2,0,.2,0,0,0-.1,0,0-.2.2-.1.3-.3.3-.5,0,0-.3,0-.4-.2-.2,0-.3,0-.5,0-.2,0-.3,0-.5.1-.2,0-.4.2-.6.3.2,0,.4-.1.7-.2.2,0,.3,0,.5,0"/>
      </g>
      <text class="st7" transform="translate(33.2 109.8)"><tspan x="0" y="0">RÉ</tspan><tspan class="st0" x="22.1" y="0">P</tspan><tspan x="32.9" y="0">UBLI</tspan><tspan class="st8" x="72.7" y="0">Q</tspan><tspan x="87.4" y="0">UE</tspan></text>
      <text class="st7" transform="translate(33.2 128.2)"><tspan x="0" y="0">F</tspan><tspan class="st14" x="9.6" y="0">R</tspan><tspan x="21.9" y="0">AN</tspan><tspan class="st13" x="49.9" y="0">Ç</tspan><tspan x="62.8" y="0">AISE</tspan></text>
      <path class="st6" d="M80.9,166c.4,0,.7.3.5,1l-1.8.4c.3-.8.8-1.4,1.2-1.4M81.9,168.9h-.4c-.4.5-.9.9-1.4.9s-.7-.3-.7-.9,0-.5,0-.8l2.9-.9c.6-1.3-.1-1.9-.9-1.9-1.4,0-2.9,2.3-2.9,4.2s.4,1.4,1.1,1.4,1.6-.8,2.2-2M81.3,164.8l2-1.9v-.2h-1.1l-1.2,2.1h.3ZM75.2,166.1h.9l-1.5,4.1c-.1.4,0,.7.4.7.9,0,2.2-.8,2.7-2h-.3c-.4.4-1.1.9-1.7,1.1l1.4-3.9h1.4l.2-.6h-1.4l.5-1.5h-.5l-1,1.5-1.2.2v.4ZM73.9,165.9c.1-.4-.1-.6-.3-.6-.8,0-1.8.7-2.2,1.8h.3c.3-.4.7-.8,1.1-.9l-1.6,4.1c-.1.4.1.6.3.6.8,0,1.7-.8,2.1-1.8h-.3c-.3.4-.7.8-1.1.9l1.7-4.1ZM74.2,163.8c.4,0,.7-.3.7-.7s-.3-.7-.7-.7-.7.3-.7.7.3.7.7.7M65.1,170.1c-.2.5,0,.8.5.8s.4,0,.5-.4l1.1-2.9c.5-.6,1.5-1.3,2-1.3s.3.2,0,.6l-1.7,3.2c-.2.3,0,.7.4.7.8,0,1.8-.7,2.2-1.8h-.3c-.3.4-.7.8-1.1.9l1.4-2.9c.2-.4.3-.7.3-1,0-.5-.3-.8-.8-.8-.7,0-1.4.8-2.3,1.8v-.8c0-.5-.2-1-.7-1s-.6.3-.9.7h0c.5,0,.8.9.4,1.7l-1.1,2.5ZM65.1,166.5c.2-.7,0-1.3-.4-1.3s-.8.5-1.4,1.8v-.8c0-.5-.2-1-.7-1s-1.1.9-1.5,1.8h.3c.3-.4.5-.6.7-.6s.4.4,0,1.2l-1.1,2.5c-.2.5,0,.8.5.8s.4,0,.5-.4l1.1-2.9c.3-.4.6-.7.9-1.1h1.1ZM58.7,166c.4,0,.7.3.5,1l-1.8.4c.3-.8.8-1.4,1.2-1.4M59.7,168.9h-.4c-.4.5-.9.9-1.4.9s-.7-.3-.7-.9,0-.5,0-.8l2.9-.9c.6-1.3-.1-1.9-.9-1.9-1.4,0-2.9,2.3-2.9,4.2s.4,1.4,1.1,1.4,1.6-.8,2.2-2M53,166.1h.9l-1.5,4.1c-.1.4,0,.7.4.7.9,0,2.2-.8,2.7-2h-.3c-.4.4-1.1.9-1.7,1.1l1.4-3.9h1.4l.2-.6h-1.4l.5-1.5h-.5l-1,1.5-1.2.2v.4ZM47.8,169.3c0-1.3,1.4-3,2.2-3s.3,0,.5,0l-.8,2.2c-.5.6-1.2,1.3-1.5,1.3s-.3-.2-.3-.5M52.1,165h-.4s-.5.4-.5.4h-.1c-2.4,0-4.4,2.6-4.4,4.6s.3.8.8.8,1.2-.9,1.9-1.8v.3c-.1.9.2,1.5.7,1.5s1.1-.9,1.5-1.8h-.3c-.3.4-.5.6-.7.6s-.4-.4,0-1.2l1.5-3.5ZM47.1,166.5c.2-.7,0-1.3-.4-1.3s-.8.5-1.4,1.8v-.8c0-.5-.2-1-.7-1s-1.1.9-1.5,1.8h.3c.3-.4.5-.6.7-.6s.4.4,0,1.2l-1.1,2.5c-.2.5,0,.8.5.8s.4,0,.5-.4l1.1-2.9c.3-.4.6-.7.9-1.1h1.1ZM39.2,170.7v-.3c-1.3-.3-1.4-.3-.9-1.8l.6-1.5h1.5c.7,0,.7.3.6,1h.4l.9-2.5h-.4c-.3.6-.6,1-1.4,1h-1.5l.8-2.2c.2-.7.4-.8,1.3-.8h.7c1,0,1.1.3,1.1,1.2h.4l.3-1.7h-5.7v.3c1,.2,1.1.3.6,1.8l-1.2,3.4c-.5,1.4-.7,1.5-2,1.8v.3c0,0,4,0,4,0Z"/>
      <path class="st6" d="M67.1,153.1c.4,0,.7.3.5,1l-1.8.4c.3-.8.8-1.4,1.2-1.4M68.1,156h-.4c-.4.5-.9.9-1.4.9s-.7-.3-.7-.9,0-.5,0-.8l2.9-.9c.6-1.3-.1-1.9-.9-1.9-1.4,0-2.9,2.3-2.9,4.2s.4,1.4,1.1,1.4,1.6-.8,2.2-2M67.5,151.9l2-1.9v-.2h-1.1l-1.2,2.1h.3ZM61.3,153.2h.9l-1.5,4.1c-.1.4,0,.7.4.7.9,0,2.2-.8,2.7-2h-.3c-.4.4-1.1.9-1.7,1.1l1.4-3.9h1.4l.2-.6h-1.4l.5-1.5h-.5l-1,1.5-1.2.2v.4ZM60.1,153c.1-.4-.1-.6-.3-.6-.8,0-1.8.7-2.2,1.8h.3c.3-.4.7-.8,1.1-.9l-1.6,4.1c-.1.4.1.6.3.6.8,0,1.7-.8,2.1-1.8h-.3c-.3.4-.7.8-1.1.9l1.7-4.1ZM60.4,150.9c.4,0,.7-.3.7-.7s-.3-.7-.7-.7-.7.3-.7.7.3.7.7.7M54.9,157.1l2.9-7.5h0c0-.1-1.8,0-1.8,0v.2l.4.3c.3.2.2.5,0,1.2l-2.2,5.9c-.2.3,0,.7.4.7.8,0,1.7-.7,2.1-1.8h-.3c-.3.4-.8.8-1.2.9M49.4,156.4c0-1.3,1.4-3,2.2-3s.3,0,.5,0l-.8,2.2c-.5.6-1.2,1.3-1.5,1.3s-.3-.2-.3-.5M53.7,152.1h-.4s-.5.4-.5.4h-.1c-2.4,0-4.4,2.6-4.4,4.6s.3.8.8.8,1.2-.9,1.9-1.8v.3c-.1.9.2,1.5.7,1.5s1.1-.9,1.5-1.8h-.3c-.3.4-.5.6-.7.6s-.4-.4,0-1.2l1.5-3.5ZM43.2,159c0-.5.5-.9,1.3-1.2.2.1.6.3,1.1.4.8.3,1.1.4,1.1.6,0,.5-.9.9-2,.9s-1.5-.2-1.5-.7M45.4,155.7c-.3,0-.5-.3-.5-.6,0-.9.5-2.3,1.3-2.3s.5.3.5.6c0,.9-.5,2.3-1.3,2.3M47.6,158.5c0-.7-.6-.9-1.5-1.2-.8-.2-1.2-.3-1.2-.6s.2-.5.5-.7c1.4,0,2.2-1.3,2.2-2.3s0-.4-.1-.6h1.1l.2-.6h-1.8c-.2-.1-.5-.2-.7-.2-1.4,0-2.4,1.3-2.4,2.3s.5,1.3,1.1,1.4c-.7.3-1,.7-1,1.1s0,.4.3.6c-1.5.5-2.2,1-2.2,1.7s.9,1,2.1,1c1.9,0,3.5-1,3.5-1.9M40.4,154.1c.7,0,.7.3.6,1h.4l.9-2.5h-.4c-.3.6-.6,1-1.4,1h-1.5l.8-2.1c.2-.7.4-.8,1.3-.8h.7c1,0,1.1.3,1.1,1.2h.4l.3-1.7h-5.7v.3c1,.2,1.1.3.6,1.8l-1.2,3.4c-.5,1.4-.7,1.5-2,1.8v.3c0,0,6.2,0,6.2,0l1.1-1.8h-.4c-.7.7-1.6,1.3-2.9,1.3s-1.5,0-1-1.6l.6-1.6h1.5ZM41.2,149.8l2-1.4v-.2h-1.2l-1.1,1.6h.3Z"/>
      <path class="st6" d="M66.4,140.2c.4,0,.7.3.5,1l-1.8.4c.3-.8.8-1.4,1.2-1.4M67.4,143.1h-.4c-.4.5-.9.9-1.4.9s-.7-.3-.7-.9,0-.5,0-.8l2.9-.9c.6-1.3-.1-1.9-.9-1.9-1.4,0-2.9,2.3-2.9,4.2s.4,1.4,1.1,1.4,1.6-.8,2.2-2M66.8,139l2-1.9v-.2h-1.1l-1.2,2.1h.3ZM60.9,140.3h.8l-1.5,4.1c-.1.4,0,.7.4.7.9,0,2.2-.8,2.7-2h-.3c-.4.4-1.1.9-1.7,1.1l1.4-3.9h1.4l.2-.6h-1.4l.5-1.5h-.5l-1,1.5-1,.2v.4ZM60.2,140.7c.2-.7,0-1.3-.4-1.3s-.8.5-1.4,1.8v-.8c0-.5-.2-1-.7-1s-1.1.9-1.5,1.8h.3c.3-.4.5-.6.7-.6s.4.4,0,1.2l-1.1,2.5c-.2.5,0,.8.5.8s.4,0,.5-.4l1.1-2.9c.3-.4.6-.7.9-1.1h1.1ZM53.9,140.2c.4,0,.7.3.5,1l-1.8.4c.3-.8.8-1.4,1.2-1.4M54.8,143.1h-.4c-.4.5-.9.9-1.4.9s-.7-.3-.7-.9,0-.5,0-.8l2.9-.9c.6-1.3-.1-1.9-.9-1.9-1.4,0-2.9,2.3-2.9,4.2s.4,1.4,1.1,1.4,1.6-.8,2.2-2M47.8,144.3c-.3,0-.7-.3-.7-.5s.1-.4.3-.8l.5-1.2c.5-.6,1.2-1.2,1.7-1.2s.5.2.5.5c0,1.1-1.1,3.2-2.2,3.2M51.1,140.6c0-.8-.3-1.1-.9-1.1s-1.4.8-2.1,1.7l1.7-4.5h0c0-.1-1.8,0-1.8,0v.2l.4.3c.3.2.2.5,0,1.2l-1.9,4.8c-.1.4-.3.8-.3.9,0,.5.7,1,1.3,1,1.4,0,3.7-2.5,3.7-4.5M45.5,140.1c.1-.4-.1-.6-.3-.6-.8,0-1.8.7-2.2,1.8h.3c.3-.4.7-.8,1.1-.9l-1.6,4.1c-.1.4.1.6.3.6.8,0,1.7-.8,2.1-1.8h-.3c-.3.4-.7.8-1.1.9l1.7-4.1ZM45.8,138c.4,0,.7-.3.7-.7s-.3-.7-.7-.7-.7.3-.7.7.3.7.7.7M41.6,137.4h-3.8v.3c1,.2,1.1.3.6,1.8l-1.2,3.4c-.5,1.4-.7,1.5-2,1.8v.3c0,0,5.6,0,5.6,0l1.2-2.2h-.4c-.7.8-1.5,1.7-2.8,1.7s-1.1-.2-.6-1.6l1.2-3.4c.5-1.4.7-1.5,2-1.8v-.3Z"/>
    </g>
  </g>
</svg>