<?xml version="1.0" encoding="UTF-8"?>
<svg id="Calque_1" xmlns="http://www.w3.org/2000/svg" version="1.1" xmlns:xlink="http://www.w3.org/1999/xlink" viewBox="0 0 480 240">
  <!-- Generator: Adobe Illustrator 30.1.0, SVG Export Plug-In . SVG Version: 2.1.1 Build 136)  -->
  <defs>
    <style>
      .st0, .st1 {
        fill: #fdc303;
      }

      .st2, .st3 {
        fill: #fff;
      }

      .st3, .st1 {
        fill-rule: evenodd;
      }

      .st4 {
        fill: none;
      }

      .st5 {
        clip-path: url(#clippath);
      }
    </style>
    <clipPath id="clippath">
      <rect class="st4" x="79.6" width="320.8" height="240"/>
    </clipPath>
  </defs>
  <sodipodi:namedview id="base" bordercolor="#666666" borderopacity="1.0" fit-margin-bottom="1" fit-margin-left="1" fit-margin-right="1" fit-margin-top="1" pagecolor="#ffffff" showgrid="false"/>
  <g id="layer1">
    <g id="g3338">
      <g class="st5">
        <g id="g3340">
          <g id="g3346">
            <path id="path3348" d="M138.8,176c-.1-.5-.4-.7-.8-1-.4-.3-.7-.3-.7-.3h-.1c.1-.3,0-.3,0-.6.1-.3,0-.3,0-.3,0,0-.3,0-.3-.3,0-.3.2-.4.1-.6,0-.2-.2,0-.3-.2-.1-.4-.2-.3-.2-.3h-.2c-.2-.3-.6-.3-.6-.3l-.4-.3c-.2-.7-.3-1.5-.4-1.5-.1,0,0,.3-.1.6-.1.3-.2.1-.2.1-.5-1.2-1-1.1-1.1-1.3-.1-.2-.2,0-.5-.3-.3-.2-.5,0-.1.3.4.2.4.7.5.9,0,.2,0,.3-.2.2-.2-.1,0-.4-.3-.8-.3-.4-1.2-1.3-1.2-1,0,.3.3.4.6,1.2.3.8,0,.7,0,.8,0,0-.2,0-.6-.6-.3-.5-.6-.5-.6-.5-.2-.3-.4-.4-.7-.6-.3-.2-.4-.5-.5-.3-.1.1,0,.4.4.8.4.4.3.4.5.8.2.4.1.5-.1.5-.3,0-.8-.7-1.1-.9-.2-.3-.5-.5-.8-.7-.3-.2-.3,0-.2.3.1.3.6.9.8,1.2.3.4,0,.5-.3.5-.2,0-.5-.2-.5-.2-.6-.3-.7-.3-.9-.5-.2-.1-.6-.5-.7-.4,0,0-.2.2,0,.7.3.5,0,.5,0,.5-.5-.2-1,0-.9.5.1.4.4.7.4.7,0,0,0,0,0,.2,0,.2.2.4.2.4,0,.2.2.7.5.7.7,0,.1.1.7.3.5.2,1.4.2,1.4.2,0,.1,0,.2,0,.2,0,0-1.9.7-4.6,3.8,0,.1-.2.6-.3.7-.4.5-.7,1-1.1,1.6-.2.3-.5.6-.6.9-.5.8-1,1.5-1.4,2.3-.1.2-.3.7-.4.9-1,1.6-1.6,2.2-1.6,2.2,0,0-.7.9-3.6,2.2-.6.3-1,.4-1.9.6-1,.2-1.9.5-2.8.7-1,.3-1.8.5-3.2,1.1-1,.4-2.3,1.2-3.6,1.8,0,0,0-.2-.2-.6,0,0-.1-.2-.2-.3,0,0-.1-.1-.2-.2,0,0,0-.2-.1-.3,0-.1-.2-.2-.3-.4-.4-.4-.7-.8-1.3-.9-.1,0-.2,0-.3-.1,0,0-.2,0-.2,0-.2,0-.4-.3-.5-.4-.9-.5-1.3-1.1-1.3-1.1,0,0-.6-2.9-3-4.8-.1,0-.4,0-.5-.1-.2-.2-.3-.5-.5-.6h-.3s0,0,0,0l-.3-.5-.2.2c-.7-.3-1.5-.7-2.4-.8h-1.2c-.5.1-1,.2-1.4.3-.3,0-.7.2-1,.3-1,.3-1.9.8-2.7,1.3-.9.7-1.7,1.6-2.2,2.3-2,2.3-2.7,5.7-2.7,5.7-.4.7-.6,1.8-.6,1.8-.8,2-1,4.4-.5,6.3.5,1.9,1.9,2.9,1.9,2.9v-.2c-.2-.5-.8-1.7-.8-1.7-.1-.5-.2-1.2-.3-2.3,0-1.2.3-2.3.4-2.7,0-.4.2-.5.2-.5.2.3.6,1,.6,1-.1-.5-.4-1.6-.4-1.6,1-2,1.6-2.5,1.6-2.5h0c-.1-.2-.2-.2-.2-.2.2,0,.3,0,.3,0,.4-.5.7-.8.7-.8.1.2.2.3.2.3v-.2c0,0,.2,0,.2,0v-.2c.2,0,.3,0,.3,0h.2c-.4.1-.5.4-.5.4v.3c.1,0,.5.4.5.4h0c-.5.9-.8,1.6-.8,1.6,0,.2-.1.6-.1.6-.2.5-.2,1.2-.2,1.6,0,.4.3.7.3.7,0,0,.2-.7.3-1.1.1-.4.2-.4.4-.8.1-.4.4-.6.4-.6h0c0,.1-.2.9,0,1.4.2.4.3.7.4.7,0,0,.2-.4.2-.4,0,0,0,.1.1.2,0,.1,0,.2,0,.2-.6.3-.6.4-.6.4h.2c.5,0,0,.2,0,.2-.3,0-.3.2-.3.2h.2s0,.1,0,.1h.2s0,0,0,0l-.3.2c0,.7.4.7,1,.5.6-.2,1.1-.3,1.1-.3h0c0,0,1.4-.2,1.8-.3.4,0,.7.2.7.2-.1.1-.1.3-.1.3-.3,0-.3.4-.3.4,0,0-.1,0,0,.5s.5.9.5.9c.4,0,.5.3.4.6-.1.4,0,.7.7.8.6,0,.6.4.6.4.2.4,0,.7,0,.7-.4.4.4.8.4.8.4.4.1.8.1.8h0c0-.1,0,0,0,0v-.2c-.1,0-.2.2-.2.2h-.2c.2.2.5.4.5.4v.2h0c0,0,0,.2,0,.2,0,.2,0,.2,0,.2.3.2,0,.6,0,.6.5.3.7.6.7.6v.2c0,0,.3,0,.3,0l.3.2h.2c0-.1.2,0,.2,0v.2c0,0,.2,0,.2,0v.2c.1.1,0,.2,0,.2.4.1.2.5.2.5,0,.2.2.5.2.5l.5.3h.3c0,.1.1.2.1.2v.5c-.1,0,0-.2,0-.2l.4.4c.4.7,1,1.3,1.3,1.5.3.2,0,.4,0,.4.5.3.7.6.7.6v.2c0,0,.3,0,.3,0l.3.2h.2c0-.1.2.1.2.1h.2s0,.2,0,.2l.4.5h.3s-.1.2-.1.2h.3c0,0,0,.3,0,.3h.4c0-.1.1,0,.1,0l.4.3h.3c0,.1.1.2.1.2l.3.3.2-.2.3.4.2.2-.2.2c.1,0,.8.5.8.5v.3c0,0,.3.1.3.1v.4s0,0,.4,0,.6.2.6.2c-.2,1.3.1,1.2.1,1.2h.3c.5-.1.6-.4.6-.4,0,.2.5.4.5.5,0,.2-.3.4-.3.4h.3c0,.1.2,0,.2,0v.2h.3c.1.6.3.5.3.5,0,0,.3-.1.4-.3,0-.2.4.3.4.3v.3c-.2.7-.1,1.7-.1,1.7.4,1.1.9,1.5.9,1.5,0,0,.2,1.6.5,2.1.3.5,1.4,4,1.6,4.6.2.6.4,1.4.4,1.4,0,0-.1.2,0,.2,0,0,0,.2,0,.2-.1.2,0,.2,0,.3,0,.1,0,.7-.2.8-.2,0-.2.3-.2.3-.4.2-.3.3-.3.3,0,0-.2.2-.2.2h0c0,0-.2.2-.2.4,0,.1-.4.4-.4.4h-.2c0,.1-.2.3-.2.3h-.1c0,0-.1.1-.1.1h-.2s-.1.1-.1.1h0c-.5.1-.8.5-1,.8-.2.4,0,.8.2.4.2-.4.5-.4.5-.4,0,0,0,.4.5.4.5,0,.8-.2.9-.2,0,0,.2-.3.2-.3,0,0,.2-.1.2-.1.2-.2.3-.3.5-.5.2-.2.2-.1.2-.1,0,0,0,.3,0,.6-.1.2-.6.6-.6.6-.5.2-.8.4-.9.4,0,0-.4.3-.4.3h0c-.3.3-.9.9-1,1.3,0,.5.3.1.5,0,.2-.2.4-.3.4-.3h.1c.1.2.7.3,1,0,.3-.3.5-.3.7-.3.2,0,.4,0,.8-.5.3-.5.8-.6,1.1-.6.3,0,.6.2.6.2h0c-.6.2-.9.7-1,1.1,0,.4.1.5.2.3.1-.2.4-.4.5-.4,0,0,0,0,0,0,0,.3.5.4.9.3.4-.1.5-.3.6-.4,0-.1.1-.1.1-.1,0,0,0,.3,0,.4,0,.1-.4.4-.4.4-.3.1-.3.2-.3.2-.6,0-.7.2-.7.2,0,0-.2.1-.2.1-.5.1-.9.6-1,.8s-.4.8-.2.6c.3-.2.8-.5.8-.5.2-.1.1.1.3.2.3.1.9,0,.9,0,.1-.2.3-.2.3-.2.7,0,.9-.3.9-.3h.4l.3-.2c.6-.2.5-.4.5-.4.2,0,1.9,0,2.1,0,.2,0,.9.2.9.2h1s1,.2,1.2.1c.5-.2.8-.1,1.1,0,.3.2,1.1.1,1.2,0,0-.2.2-.3.2-.3.4,0,.7.5,1.1.5.4,0,0-.5-.5-.9-.5-.4-1.2-.5-1.2-.5h0c.2-.1,0,0,.7,0,.7,0,.5-.3.5-.3.2-.2.6-.2,1.1,0,.5.2.4,0-.1-.5-.5-.5-1.4-.2-1.4-.2h-.1c0-.1-.4-.1-.4-.1h-.2c-.4,0-1.6.3-2.2,0-.6-.2-.9,0-.9,0l-.4-.2c.2,0,.4-.2.4-.2.4.2.8,0,.8,0,0,0,0,.1.6.1.6,0,.7-.5.7-.5.2-.1.6,0,.6,0,.8.4.5,0,.5,0-.6-.9-1.5-.5-1.5-.5-.4-.2-.5,0-.5,0-.7,0-1.1.1-1.1.1-.5,0-.9,0-1.5,0-.5,0-1.3-.1-1.3-.1-.4-.7-.8-3.1-1-3.6-.2-.5-.8-3.5-.8-3.5l-.3-1.9c.2-.2.2-.4.2-1.1,0-.7.4-.8.6-1.8.2-1,1.5-2.3,1.9-2.7.4-.5.9-1.6.9-1.6.2.3.4.2.6,0,.2-.2.2-.7.2-.8,0-.2.1-.4.1-.4v-.5c.1-.5.4-1,.4-1v-.3c.1,0,.2-.2.2-.2,0,0,0,0,.4-.7.4-.7,1.5-1.4,1.5-1.4l-.4.4c.2-.1.9-.4.9-.4l.2-.2v.3c.8-1,.9-.6.9-.6v-.4c.1-.2.2.2.2.2.3-.3.6-.6.6-.6v.4s.2,0,.2,0c0-.3.2-.4.2-.4,0,.2,0,.6,0,.6v-.2c.1,0,.2,0,.2,0,.2-.1.2-.5.2-.5h.2s.3-.4.3-.8c0-.3.2-.7.2-.7,0,.3.2.4.2.4v-.6h.1c0-.5,0-1.1,0-1.1.7-.7,2.9-2.4,2.9-2.4.6-.4,1-1.1,1.8-1.8.8-.7,1.4-1.1,1.4-1.1v-.2s.1,0,.1,0c.7-.9,1.3-2.1,1.6-3,.3-.9.8-2.5.8-2.5v-.2c.3,0,0-.5.2-.7.2-.2.2-.7.2-.7.3-.5.2-1,.2-1,.1-.2.2-.7.2-1,0-.3.1-.8.4-2.3.3-1.7-.5-3.5-.8-5.1-.6-1.4-1.3-2.4-1.7-3.2-.3-.4,0-.5,0-.5l1-.2,1.5-.5s.4-.2.5-.5c.1-.2.2-.3.2-.3.5,0,.4-.5.4-.5.5-.6.4-1.6.4-1.6,0,0,.2-.4-.1-1.5-.4-1.1-.8-1.2-.8-1.2,0,0,0,0,0-.3-.1-.2-.3-.2-.3-.2,0-.2.2-.2.3-.3.1-.1.2,0,.2,0,.3,0,.4,0,.6,0,.3,0,.4,0,.6-.1.2,0,.4.2.3-.2M113.9,232c-.2-.6-.3-.7-.7-1.8-.3-1-1.3-5.2-1.3-5.2h.2c.2.4.8,1.2.8,1.2.5,1.2.9,3.1,1.2,4.4.3,1.3.5,2,.5,2-.3-.5-.5-.6-.5-.6"/>
          </g>
          <g id="g3350">
            <path id="path3352" class="st0" d="M289.7,138.4c-2,.2-7.3-5.4-8.1-13-.6-5.2,2-61.3,1.6-64.8-.4-3.5,3.9-13.3,8.3-15.4,4.6-2.2,6-2.7,11.1-3-.9-2.4-1.9-4.7-2.9-6.7,0,0,0,0,0,0,0,0-10.8.7-15.6-2-4.9-2.7-2.7-3.9-.8-5.3,2-1.4,6-.4,11.7.8,0,0,.2.2.5.5C278.4,11.1,242.6.7,213.9,0c-18.8-.4-37,3.5-42.2,5.1-5.2,1.6-28.2,6.6-41.4,25.8-9.8,14.2-14.4,32.1-8.4,53.6,6,21.5,18.7,37.2,25.9,47.3,7.2,10.1,18.2,18.3,10.5,27.2-7.7,8.9-14.5,15.5-14.5,15.5l26.6-11.4s12.8,12,20.5,16.2c7.7,4.2,19.1,8,28.5,7.8,10.5-.2,37.2-8.1,58.5-32,5.5-6.2,10.2-12,14.1-17.8-1,1.5-1,1.1-2.2,1.2"/>
          </g>
          <g id="g3354">
            <path id="path3356" class="st0" d="M397.7,51.3c-1.2-2.8-3.7-10.1-12.6-14.9-8.9-4.8-22.8-2.7-30.5,5.4-7.7,8.1-18.7,27-21.2,31.4-2.5,4.4-4.2,6.2-4.2,6.2h-17.2c0,.1-1.8-10.3-4.7-21.8-1.7-.6-11.4-3.7-12.4,5.1-1,9.1-2.6,11,3.5,13.4,6,2.3,11.9,6.1,7.6,10.3-4.3,4.3-9.2,4.2-11.3,5-2.1.8-5.3,2.9-4.7,12.6.6,9.7,2.3,9.8,5.2,11.8,2.3,1.5,6.2,2.5,5.4,6.6,5.8-12,9.2-25,11.6-41.7,0,0,14.3,6,17.3,8.3,3,2.3,6.1-.1,7.1,15.9,1,16,1,31.5,6.7,35.7,5.6,4.3,17.4,8.1,28.5-5.3,11.1-13.4,13.3-19.6,16.9-26.1,3.5-6.3,8.5-20.3,9.1-22.1,3.1-9,4.1-26.3,0-35.9"/>
          </g>
          <g id="g3358">
            <path id="path3360" class="st2" d="M171.3,55.5c-.7-6.5-9.2-14.6-12-15.7-19.5-8-34.2,12.9-34.6,14.1-1.2,3-1.1,5,0,9.9,2,9.6,16,47,26.5,65.4,10.6,18.6,7.3-7,4.3-22.8-2-10.4-3.7-22.1-3.7-22.1,0,0,5.4-2.8,13.5-8.6,8.1-5.8,6.9-13.5,6.1-20.1"/>
          </g>
          <g id="g3362">
            <path id="path3364" class="st2" d="M184.8,43.4c-1.6,2-7.5,5.4-10.3,29-2.8,23.5-3.5,24.4-4.2,39.3-.6,15.2-.5,29.2,3.4,30.4,4,1.2,4.6-4.5,5-9.5.5-5,1.3-7.8,4-21.2,2.6-13.3,4.8-21.8,8.8-22.5,7.8-1.5,7,12.3,8.2,18.4,1.1,5.5,3.6,20.8,5.9,26.2,7.4,17.6,9.8,1.7,10.1-5.1.3-6.8-3-37.7-7-61.8-4-24.1-16.4-32.4-23.9-23.2"/>
          </g>
          <g id="g3366">
            <path id="path3368" class="st3" d="M256.9,28c2.4-2.4,2.6-6.2-7.3-8.1-12.8-2.5-30.6-3.6-47.7-1.3-6.3.8-12,3.1-13.1,5.9-1.5,3.7.1,7.6,5.4,8.1,6.5.7,8.3,1,12,2,6.7,1.8,9.8,7,11.7,19,2.3,14.4,4.3,62,4.8,72.9.3,6.3,1.2,16.7,1.9,20.1,2,9.2,5.6,9.7,7.6,4.1,2-5.6,1.5-33.2,1.1-47.8-.4-14.6.2-38.7-.1-50.5-.3-10.1,2.2-16.5,7.7-19.9,5.5-3.3,12.9-1.4,16-4.5"/>
          </g>
          <g id="g3370">
            <path id="path3372" class="st3" d="M275.2,37.6c-5.6-1.8-7.6,2.7-8.8,8.2-1.2,5.4-2.8,22.6-2.2,30.3.6,7.8.5,15.6-5.1,15.2-5.6-.4-4.8-3.5-4.6-17.1.2-13.1,5.4-40.2-2.6-39.9-2.6,0-4.9,2.3-6.1,5.1-.8,1.9-3.1,8.7-2.2,24.4.9,15.8,0,36.8-.1,44.5,0,7.8-1,30.7-1.2,37.4-.2,6.6,1.2,20.6,7.4,7.6,2.6-5.4,2.8-14.4,4.1-24.7,1.4-10.3,1-13.8,2.6-19.1,1.6-5.2,5.8-10.8,7.2-2.5.8,4.7-2.2,22.6-2,28,.2,9.7.9,21.1,2.8,23.3,5.5,6.3,7.3-1.9,8.1-5.6.8-3.7,2-22.2,2.2-28,.2-5.8,4-68.2,4.4-75.5.2-3.7,1.8-9.9-3.9-11.7"/>
          </g>
          <g id="g3374">
            <path id="path3376" class="st3" d="M295.2,115.8c-2.9-2-4.7-2.1-5.2-11.8-.6-9.7,2.6-11.9,4.7-12.6,2.1-.8,7-.7,11.3-5,4.3-4.3-1.5-8-7.6-10.3-6-2.3-4.4-4.2-3.5-13.4.9-8.7,10.7-5.7,12.4-5.1-1.3-5.2-2.9-10.6-4.7-15.4-5.1.3-6.5.8-11.1,3-4.4,2.1-8.6,11.9-8.2,15.4.4,3.5-2.2,59.6-1.6,64.8.8,7.7,6.2,13.2,8.1,13,1.3-.1,1.2.2,2.2-1.2,3.3-4.9,6.2-9.8,8.6-14.8.8-4.1-3.2-5.1-5.4-6.6"/>
          </g>
          <g id="g3378">
            <path id="path3380" class="st3" d="M295.2,115.8c-2.9-2-4.7-2.1-5.2-11.8-.6-9.7,2.6-11.9,4.7-12.6,2.1-.8,7-.7,11.3-5,4.3-4.3-1.5-8-7.6-10.3-6-2.3-4.4-4.2-3.5-13.4.9-8.7,10.7-5.7,12.4-5.1-1.3-5.2-2.9-10.6-4.7-15.4-5.1.3-6.5.8-11.1,3-4.4,2.1-8.6,11.9-8.2,15.4.4,3.5-2.2,59.6-1.6,64.8.8,7.7,6.2,13.2,8.1,13,1.3-.1,1.2.2,2.2-1.2,3.3-4.9,6.2-9.8,8.6-14.8.8-4.1-3.2-5.1-5.4-6.6"/>
          </g>
          <g id="g3382">
            <path id="path3384" class="st3" d="M349.2,127.7c-3.7,6.5-.5,9.4,4,11.5,4.5,2.2,7-.6,8.4-2.8,1.5-2.2,2.1-3.2,2-7.5-.2-4.3-10.2-8.6-14.4-1.2"/>
          </g>
          <g id="g3386">
            <path id="path3388" class="st3" d="M381.8,45.1c-8.3-3.2-12.1-2.2-15.8,1.9-2.2,2.4-7,17.4-8.5,27.7-.7,5.2-1.4,33.1-1.4,33.1,0,0-.2,17.6,6.4,8.7,2.9-4,10.3-18.3,13.1-25.3,2.9-6.9,10.9-22.8,11.3-28.4.4-5.6,3.2-14.5-5.1-17.7"/>
          </g>
          <g id="g3390">
            <path id="path3392" class="st3" d="M283.2,28.3c-1.9,1.4-4.1,2.5.8,5.3,4.9,2.7,15.6,2,15.6,2,0,0,0,0,0,0-1-1.9-2-3.5-3-4.7-.3-.4-.7-.9-1.1-1.3-.3-.3-.5-.5-.5-.5-5.8-1.2-9.8-2.1-11.8-.8"/>
          </g>
          <g id="g3394">
            <path id="path3396" class="st3" d="M283.2,28.3c-1.9,1.4-4.1,2.5.8,5.3,4.9,2.7,15.6,2,15.6,2,0,0,0,0,0,0-1-1.9-2-3.5-3-4.7-.3-.4-.7-.9-1.1-1.3-.3-.3-.5-.5-.5-.5-5.8-1.2-9.8-2.1-11.8-.8"/>
          </g>
          <g id="g3398">
            <path id="path3400" class="st1" d="M186.9,70.6c-2.2,10.7,10.9,4.8,11.6,2.9.6-1.5-.9-8.2-5.1-13.4-4.2-5.2-5.8,7.2-6.5,10.5"/>
          </g>
          <g id="g3402">
            <path id="path3404" class="st0" d="M151.6,55c-2.8-2.3-6.8-2.6-8.4.2-1.6,2.9-3.7,6,2.3,15.3,1.5,2.2,9.4-2.2,9.6-6.2.1-3.4-1.2-7.5-3.6-9.3"/>
          </g>
        </g>
      </g>
    </g>
  </g>
</svg>