<?xml version="1.0" encoding="UTF-8"?>
<svg id="Calque_1" xmlns="http://www.w3.org/2000/svg" version="1.1" viewBox="0 0 480 240">
  <!-- Generator: Adobe Illustrator 30.1.0, SVG Export Plug-In . SVG Version: 2.1.1 Build 136)  -->
  <defs>
    <style>
      .st0 {
        fill: #fff;
      }
    </style>
  </defs>
  <path class="st0" d="M226.6,106.4c4.6,0,4.1,1.8,3.5,2.7-.3.5-3.2,4.7-3.2,4.7-46.6-.6-47.3-.6-56.4.5-13.2,1.4-16.1,6.3-16.5,7-.2.2-4,6.3-6.2,9.7-2.2,3.4-2,4.8.3,6.9,2.2,2.1,11.7,2.2,11.7,2.2h62.9s19.3-30.1,20.6-32.1c1.3-2,1.6-3.6-.8-5.8-2.3-2.2-12-2.3-12-2.3h-63.1c-4.2,0-31,0-42.2.1-12.2.2-18.7,4.7-20.2,7.4-.2.3-20.9,32.7-20.9,32.7h13.8c0,0,16.6-26.2,19.1-30,2.6-3.8,6.9-3.7,11.2-3.7.4,0,29.1,0,34,0h64.4s0,0,0,0h0ZM214.3,133.6h-50.4s-4.2.1-2.9-1.8c1.3-1.9,5.8-9.1,5.8-9.1,0,0,1.1-2.5,9.3-2.4,8.2,0,47.2,0,47.2,0,0,0-9,13.3-9,13.3ZM98.7,103c-1.5-1.4-2.8-1.8-5.3-2.3-2.9-.6-8.2-.7-8.2-.7,0,0-41.7-.4-47.4.2-2.2,0-8.9,1-12.4,2.5-3.2,1.4-5,2.9-6,4.1-.9,1.3-15.7,25-15.8,25.1-.4.5-3.1,4.4,1.4,6.6,4.7,1.8,9.3,1.8,14.6,1.8,5.3,0,52.3,0,52.3,0l5.2-6.6H20s-3.4.2-2.3-1.5,3.8-6.4,3.8-6.4h49.5s7.4-.2,12.4-1.7c4.5-1.4,7.5-2.6,9.9-6.5,2.5-3.8,5.5-9.7,5.7-10.2.2-.3,1.3-2.7-.4-4.4,0,0,0,0,0,0ZM84.6,108.5c0,0-3.5,6.8-4.8,8.7-1.4,1.7-6,2.1-8.3,2.1-.4,0-45.9,0-45.9,0,0,0,4.7-8.3,6.1-10.3,1.1-1.9,5.4-2.2,6.2-2.3,2.1-.2,7.7-.1,16.7-.1,12,0,26.3,0,28.1,0,3.3,0,2.6.9,1.9,1.9,0,0,0,0,0,0ZM409.8,103c-1.5-1.4-2.8-1.8-5.3-2.3-2.9-.6-8.2-.7-8.2-.7,0,0-41.7-.4-47.4.2-2.2,0-8.9,1-12.4,2.5-3.2,1.4-5,2.9-6,4.1-.9,1.3-15.7,25-15.8,25.1-.4.5-3.1,4.4,1.4,6.6,4.7,1.8,9.3,1.8,14.6,1.8,5.3,0,52.3,0,52.3,0l5.2-6.6h-57s-3.4.2-2.3-1.5c1-1.6,3.8-6.4,3.8-6.4h49.5s7.4-.2,12.4-1.7c4.5-1.4,7.5-2.6,9.9-6.5,2.5-3.8,5.5-9.7,5.7-10.2.2-.3,1.3-2.7-.4-4.4,0,0,0,0,0,0ZM395.8,108.4c0,0-3.5,6.8-4.8,8.7-1.4,1.7-6,2.1-8.3,2.1-.3,0-15.6,0-45.9,0,0,0,4.7-8.3,6.1-10.3,1.1-1.9,5.4-2.2,6.2-2.3,2.1-.2,7.7-.1,16.7-.1,12,0,26.3,0,28.1,0,3.3,0,2.6.9,1.9,1.9,0,0,0,0,0,0ZM254.5,99.9l-5.2,6.5h51.1s-68.6,28-68.6,28l-4.6,5.7h74.9s5.2-6.5,5.2-6.5h-51.2s68.6-27.9,68.6-27.9l4.7-5.8h-75ZM417,107.3c1.6-2.7,8.1-7.3,20.2-7.4,12.2-.1,42.7-.1,42.7-.1l-5.1,6.5s-34.2,0-34.7,0c-4.3,0-8.6,0-11.2,3.7-2.5,3.8-19.1,30-19.1,30h-13.8c0,0,20.8-32.5,20.9-32.7,0,0,0,0,0,0Z"/>
</svg>