<?xml version="1.0" encoding="UTF-8"?>
<svg id="Calque_1" xmlns="http://www.w3.org/2000/svg" version="1.1" viewBox="0 0 480 240">
  <!-- Generator: Adobe Illustrator 30.1.0, SVG Export Plug-In . SVG Version: 2.1.1 Build 136)  -->
  <defs>
    <style>
      .st0 {
        fill: #00385b;
      }
    </style>
  </defs>
  <path class="st0" d="M44.1,72.7C19.7,72.7,0,92.4,0,116.8s19.7,44.1,44.1,44.1,44.1-19.7,44.1-44.1-19.7-44.1-44.1-44.1ZM27.6,136c-2.8,0-5.4-.6-7.5-1.8-4.3-2.5-6.9-6.9-6.9-11.8s2.3-8.7,5.2-13.3l8.4-13.8h9.2l-11.8,19c-1.7,2.8-3.1,5-3.1,7.5,0,3.9,2.7,6.5,6.5,6.5s6.8-2.8,6.8-6.7-2.8-6.3-7-6.3h-.3l4.4-7.1c6.8,1,10.9,5.9,10.9,12.9s-6.2,14.9-14.8,14.9ZM71.9,135.5h-23c-3.1,0-5-1.9-5-4.5s1.2-3.7,3.2-5.7l12.8-12.7c2-2,3-3.8,3-5.8,0-2.9-2.3-5-5.2-5s-5.3,2.3-5.3,5.3,1.1,3.7,3.4,5.3l-5.4,5.4c-3.8-2.5-5.8-6.1-5.8-10.4,0-7.2,5.8-12.8,13.5-12.8s7,1.3,9.5,3.6c2.5,2.3,3.9,5.4,3.9,8.6,0,5.7-3.2,8.8-8,13.2l-8.4,7.7h16.8v7.8Z"/>
  <g>
    <g>
      <path class="st0" d="M214,138.5c1.7.5,3,1.5,4,3,.8,1.2,1.4,2.4,1.7,3.8.3,1.4.5,2.6.5,3.9,0,3.1-.6,5.7-1.9,7.9-1.7,2.9-4.4,4.4-8,4.4h-10.2v-23.3h10.2c1.5,0,2.7.2,3.7.5ZM204.9,142.1v15.2h4.6c2.3,0,4-1.1,4.9-3.4.5-1.2.8-2.7.8-4.4s-.4-4.2-1.1-5.5c-.8-1.3-2.3-1.9-4.5-1.9h-4.6Z"/>
      <path class="st0" d="M234.9,144.4c1.2.5,2.2,1.4,3,2.6.7,1,1.2,2.2,1.4,3.6.1.8.2,1.9.2,3.4h-12.8c0,1.7.7,2.9,1.8,3.6.7.4,1.5.6,2.5.6s1.9-.3,2.5-.8c.4-.3.7-.7.9-1.2h4.7c-.1,1-.7,2.1-1.7,3.1-1.6,1.7-3.8,2.5-6.6,2.5s-4.4-.7-6.2-2.1c-1.8-1.4-2.7-3.7-2.7-6.9s.8-5.3,2.4-6.9c1.6-1.6,3.7-2.4,6.3-2.4s2.9.3,4.1.8ZM228.1,148.3c-.6.7-1.1,1.5-1.2,2.7h7.9c0-1.2-.5-2.1-1.2-2.7-.7-.6-1.6-.9-2.7-.9s-2.1.3-2.7,1ZM236.2,137l-4.9,4.7h-3.3l3.1-4.7h5.1Z"/>
      <path class="st0" d="M256.6,145.9c1.4,1.5,2.1,3.7,2.1,6.6s-.7,5.4-2.1,7c-1.4,1.6-3.2,2.4-5.4,2.4s-2.6-.4-3.5-1c-.5-.4-1-.9-1.5-1.7v9h-4.5v-24.1h4.4v2.6c.5-.8,1-1.3,1.6-1.8,1-.8,2.2-1.2,3.7-1.2,2.1,0,3.8.7,5.2,2.2ZM253.1,149.2c-.6-1-1.6-1.5-3-1.5s-2.8.8-3.5,2.3c-.3.8-.5,1.9-.5,3.1,0,2,.5,3.4,1.6,4.2.6.5,1.4.7,2.3.7,1.3,0,2.3-.5,3-1.5.7-1,1-2.3,1-3.9s-.3-2.5-.9-3.5Z"/>
      <path class="st0" d="M268.9,150.8c.9-.1,1.5-.2,1.8-.4.7-.3,1-.7,1-1.3s-.3-1.2-.8-1.5c-.5-.3-1.2-.4-2.2-.4s-1.9.3-2.3.8c-.3.4-.5.9-.6,1.6h-4.4c0-1.5.5-2.8,1.3-3.7,1.2-1.5,3.3-2.3,6.3-2.3s3.6.4,5.1,1.1c1.5.8,2.2,2.2,2.2,4.2v7.9c0,.5,0,1.2,0,2,0,.6.1,1,.3,1.2.2.2.4.4.7.5v.7h-5c-.1-.4-.2-.7-.3-1,0-.3-.1-.7-.1-1.1-.6.7-1.4,1.3-2.2,1.7-1,.6-2.1.8-3.4.8s-2.9-.4-4-1.3c-1-.9-1.6-2.2-1.6-3.8s.8-3.7,2.5-4.6c.9-.5,2.3-.9,4.1-1.1l1.6-.2ZM271.7,152.9c-.3.2-.6.3-.9.4-.3.1-.7.2-1.2.3l-1.1.2c-1,.2-1.7.4-2.1.6-.7.4-1.1,1.1-1.1,1.9s.2,1.3.7,1.7c.4.3,1,.5,1.6.5,1,0,1.9-.3,2.8-.9.8-.6,1.3-1.6,1.3-3.1v-1.7Z"/>
      <path class="st0" d="M290.1,143.7c0,0,.2,0,.4,0v4.6c-.3,0-.5,0-.8,0-.2,0-.4,0-.5,0-1.8,0-3.1.6-3.7,1.8-.4.7-.5,1.7-.5,3.1v8.2h-4.6v-17.3h4.4v3c.7-1.2,1.3-1.9,1.9-2.4.9-.7,2-1.1,3.3-1.1s.2,0,.2,0Z"/>
      <path class="st0" d="M292.2,147.5v-3.2h2.5v-4.8h4.5v4.8h2.9v3.2h-2.9v9.1c0,.7,0,1.2.3,1.3.2.2.7.3,1.7.3s.3,0,.4,0c.2,0,.3,0,.5,0v3.4h-2.2c-2.2.2-3.7-.2-4.4-1-.5-.5-.8-1.3-.8-2.4v-10.6h-2.5Z"/>
      <path class="st0" d="M316.4,144.4c1.2.5,2.2,1.4,3,2.6.7,1,1.2,2.2,1.4,3.6.1.8.2,1.9.2,3.4h-12.8c0,1.7.7,2.9,1.8,3.6.7.4,1.5.6,2.5.6s1.9-.3,2.6-.8c.4-.3.7-.7.9-1.2h4.7c-.1,1-.7,2.1-1.7,3.1-1.6,1.7-3.8,2.5-6.6,2.5s-4.4-.7-6.2-2.1c-1.8-1.4-2.7-3.7-2.7-6.9s.8-5.3,2.4-6.9c1.6-1.6,3.7-2.4,6.3-2.4s2.9.3,4.1.8ZM309.6,148.3c-.6.7-1.1,1.5-1.2,2.7h7.9c0-1.2-.5-2.1-1.2-2.7-.7-.6-1.6-.9-2.7-.9s-2.1.3-2.7,1Z"/>
      <path class="st0" d="M345.2,144.1c.8.3,1.4.8,2,1.6.5.6.8,1.3,1,2.2.1.6.2,1.4.2,2.6v10.9h-4.7v-11c0-.7-.1-1.2-.3-1.6-.4-.8-1.2-1.2-2.3-1.2s-2.1.5-2.6,1.6c-.2.5-.4,1.2-.4,2v10.3h-4.6v-10.3c0-1-.1-1.8-.3-2.2-.4-.8-1.1-1.2-2.3-1.2s-2.2.4-2.6,1.2c-.2.5-.4,1.2-.4,2.1v10.4h-4.7v-17.2h4.5v2.5c.6-.9,1.1-1.5,1.6-1.9.9-.7,2-1,3.5-1s2.4.3,3.3.9c.7.5,1.2,1.2,1.5,2.1.6-1,1.3-1.8,2.2-2.2.9-.5,2-.7,3.2-.7s1.5.1,2.3.4Z"/>
      <path class="st0" d="M364.1,144.4c1.2.5,2.2,1.4,3,2.6.7,1,1.2,2.2,1.4,3.6.1.8.2,1.9.1,3.4h-12.8c0,1.7.7,2.9,1.8,3.6.7.4,1.5.6,2.5.6s1.9-.3,2.5-.8c.4-.3.7-.7.9-1.2h4.7c-.1,1-.7,2.1-1.7,3.1-1.6,1.7-3.8,2.5-6.6,2.5s-4.4-.7-6.2-2.1c-1.8-1.4-2.7-3.7-2.7-6.9s.8-5.3,2.4-6.9c1.6-1.6,3.7-2.4,6.3-2.4s2.9.3,4.1.8ZM357.2,148.3c-.6.7-1.1,1.5-1.2,2.7h7.9c0-1.2-.5-2.1-1.2-2.7-.7-.6-1.6-.9-2.7-.9s-2.1.3-2.7,1Z"/>
      <path class="st0" d="M385.2,145.1c1.1.9,1.7,2.5,1.7,4.6v11.6h-4.7v-10.5c0-.9-.1-1.6-.4-2.1-.4-.9-1.3-1.3-2.6-1.3s-2.6.6-3.2,1.9c-.3.7-.4,1.6-.4,2.6v9.3h-4.6v-17.2h4.4v2.5c.6-.9,1.1-1.5,1.7-1.9.9-.7,2.1-1,3.6-1s3.3.5,4.4,1.4Z"/>
      <path class="st0" d="M389.4,147.5v-3.2h2.5v-4.8h4.5v4.8h2.9v3.2h-2.9v9.1c0,.7,0,1.2.3,1.3.2.2.7.3,1.7.3s.3,0,.4,0c.2,0,.3,0,.5,0v3.4h-2.2c-2.2.2-3.7-.2-4.4-1-.5-.5-.8-1.3-.8-2.4v-10.6h-2.5Z"/>
    </g>
    <g>
      <path class="st0" d="M154.6,128.6c.1,0,.2.1.4.4.1.3.2.6.4.9.1.3.2.7.3,1,0,.3.1.6.1.7s-.2.4-.5,1.1c-.4.7-.8,1.6-1.4,2.7-.6,1.1-1.3,2.5-2,3.9-.8,1.5-1.6,3-2.4,4.7-.8,1.6-1.7,3.3-2.5,5-.8,1.7-1.6,3.3-2.3,4.9-.7,1.6-1.4,3-1.9,4.4-.6,1.4-1,2.5-1.3,3.4,0,.2-.2.3-.6.1-.3-.2-.7-.4-1-.7-.4-.3-.7-.6-1-.9-.3-.3-.4-.5-.4-.6.2-.9.5-1.8.7-2.5.2-.7.4-1.4.7-2.2.3-.7.6-1.6,1.1-2.5.4-.9,1-2.1,1.7-3.4.7-1.4,1.6-3.1,2.6-5,1.1-2,2.3-4.4,3.9-7.2-4.1,3.4-7.5,6.5-10.2,9.4-2.7,2.9-4.8,5.5-6.4,7.6-1.6,2.2-2.8,3.9-3.5,5.1-.7,1.2-1.1,1.8-1.3,1.8s-.4-.1-.7-.3c-.3-.2-.6-.5-.8-.7-.3-.3-.5-.5-.7-.8-.2-.3-.3-.4-.3-.5.3-.6.8-1.6,1.5-2.9.6-1.3,1.3-2.7,2.1-4.3.7-1.6,1.5-3.2,2.3-4.9.8-1.7,1.5-3.3,2.1-4.7.6-1.4,1.2-2.6,1.6-3.6.4-1,.6-1.6.6-1.8-1.8,1.6-3.5,3.4-5.2,5.3-1.7,1.9-3.3,3.8-4.7,5.7-1.5,1.9-2.8,3.7-4,5.5-1.2,1.8-2.3,3.3-3.2,4.7-.9,1.4-1.6,2.4-2.1,3.3-.5.8-.8,1.2-.9,1.2-.1,0-.3-.1-.6-.3-.3-.2-.5-.5-.8-.7-.3-.3-.5-.6-.8-.9-.2-.3-.3-.5-.3-.7,1.4-2.5,3-5,4.8-7.5,1.8-2.5,3.6-5,5.5-7.3,1.9-2.3,3.7-4.5,5.6-6.5,1.8-2,3.5-3.8,5-5.3,1.5-1.5,2.8-2.7,3.9-3.6,1.1-.9,1.8-1.3,2.2-1.3s.5.1.8.4c.3.3.5.6.7.9.2.3.4.7.5,1s.2.5.2.7,0,.3-.3.7-.4.9-.7,1.5c-.3.6-.6,1.3-.9,2.1-.3.8-.7,1.5-1.1,2.3-.8,1.9-1.8,4-2.9,6.3,3-2.8,5.7-5.3,8.1-7.6,1-1,2-1.9,3-2.8,1-.9,1.9-1.7,2.7-2.4s1.4-1.3,2-1.7c.5-.4.8-.7.9-.7.1,0,.2,0,.3.1.1.1.2.2.3.3.1.1.2.3.3.4.1-.1.2-.2.3-.3.2-.2.4-.3.6-.3ZM118.6,151c0-.1.1-.2.1-.3,0,0,0-.2.1-.2,0,0,.1-.2.1-.2,0,0,0,.1-.1.2,0,0-.1.1-.2.2,0,0-.1.2-.2.3,0,.2-.2.4-.5.7-.1.3-.3.5-.5.8,0,.1-.2.3-.3.4,0,.1-.2.3-.3.4-.1.1-.2.3-.3.4,0,.1-.1.2-.2.3,0,.1-.1.2-.2.3,0,0,0,.2-.1.2,0,0,0,.2,0,.2,0,0,0,0,.1-.2,0,0,.1-.1.2-.2,0,0,.1-.2.2-.3,0-.1.2-.2.3-.3,0-.1.2-.2.3-.4,0-.1.2-.3.3-.4,0-.1.2-.3.3-.4.1-.1.2-.3.3-.4,0-.1.2-.3.3-.4,0-.1.2-.3.3-.4,0-.1.2-.2.2-.3ZM129.5,137.9c.3-.3.5-.6.8-.9.2-.3.4-.5.6-.7.2-.2.4-.4.5-.6,0,0-.1,0-.2.1,0,0-.1.1-.2.2,0,0-.1.2-.2.2-.4.3-.9.8-1.5,1.5-.1.2-.3.3-.4.5-.2.2-.3.3-.5.5-.2.2-.3.4-.5.6-.2.2-.4.4-.5.6-.4.4-.7.8-1.1,1.3-.4.4-.7.9-1.1,1.3-.4.5-.7.9-1.1,1.3-.4.4-.7.9-1,1.3-.3.4-.7.8-.9,1.2-.3.4-.6.8-.9,1.1-.3.3-.5.6-.7.9-.2.3-.4.5-.5.8,0,.1-.1.2-.2.3,0,0,0,.1-.2.2,0,0,0,.1,0,.2.1-.2.3-.4.5-.6.1-.2.3-.4.6-.7.2-.3.5-.6.8-.9.3-.3.6-.7.9-1.1.3-.4.6-.8,1-1.2.3-.4.7-.9,1-1.3.4-.4.7-.9,1.1-1.3.4-.5.7-.9,1.1-1.3.4-.4.7-.9,1.1-1.2.4-.4.7-.8,1-1.2.3-.4.6-.7.9-1ZM135,140.5c0-.2,0-.3.1-.3,0,0,0-.1,0-.1l-.2.4c0,.1-.1.3-.2.5,0,.2-.2.4-.3.6-.1.2-.2.5-.3.7-.1.3-.2.5-.4.8-.1.3-.3.6-.4.9-.1.3-.2.6-.4.9-.1.3-.3.6-.4.9-.1.3-.2.6-.4.9-.1.3-.3.6-.4.9-.1.3-.2.5-.3.7-.1.2-.2.4-.3.6,0,.2-.1.4-.2.5,0,0,0,.2-.1.3,0,0,0,0,0,.1l.2-.4c0-.1.1-.3.2-.5,0-.2.2-.4.3-.6.1-.2.3-.5.4-.7.1-.3.2-.5.4-.8.1-.3.3-.6.4-.9.1-.3.3-.6.4-.9.1-.3.3-.6.4-.9.1-.3.2-.6.3-.9.1-.3.3-.6.4-.9.1-.3.2-.5.3-.7.1-.2.2-.4.3-.6,0-.2.1-.3.2-.5ZM144.5,146.9c0,0,0-.2.1-.2,0,0,0-.1,0-.2v-.2c0,0,0,0,0,.1,0,0,0,.1,0,.2,0,0,0,.1-.1.2,0,.2-.2.4-.3.6-.1.2-.3.5-.4.8-.1.3-.3.6-.5,1-.2.3-.4.7-.5,1.1-.2.4-.3.8-.5,1.2-.2.4-.4.8-.6,1.2,0,.2-.2.4-.2.6,0,.2-.2.4-.3.6,0,.2-.2.4-.3.6,0,.2-.2.4-.3.6-.1.4-.3.8-.4,1.1-.1.4-.3.7-.4,1,0,.3-.2.6-.3.9,0,.1,0,.3-.1.4,0,0,0,.2,0,.3,0,.1,0,.2,0,.3s0,.1,0,.2c0,0,0,.1,0,.2,0,0,0-.1,0-.2,0,0,0-.1,0-.2,0,0,0-.1.1-.3,0-.2.2-.4.3-.6,0-.1.1-.3.2-.4,0-.1.1-.3.2-.4.1-.3.3-.6.4-1,.2-.4.3-.7.4-1.1.2-.4.3-.8.5-1.2.2-.4.4-.8.5-1.2.4-.8.7-1.6,1.1-2.4.3-.8.6-1.5.9-2.1.1-.3.3-.6.4-.8.1-.2.2-.5.3-.7ZM143.4,150.4c0-.1,0-.3.1-.4,0-.1,0-.2.1-.3,0-.1.1-.2.1-.3v.3c-.2,0-.2.2-.3.3,0,.1-.1.3-.2.4,0,.1-.1.3-.2.4s-.2.3-.3.5c0,.2-.2.3-.2.5,0,.2-.2.4-.3.6,0,.2-.2.4-.3.6,0,.2-.2.4-.2.6,0,.2-.2.3-.2.5,0,.2-.1.3-.2.5,0,.1,0,.3-.1.4,0,.1,0,.2-.1.3v.3c-.1,0,0-.3,0-.3,0,0,.1-.2.2-.3,0-.1.1-.2.2-.4,0-.1.1-.3.2-.4,0-.2.2-.3.3-.5,0-.2.2-.3.3-.5,0-.2.2-.4.2-.6,0-.2.2-.4.2-.6,0-.2.2-.4.2-.6,0-.2.2-.4.2-.5,0-.2.1-.3.2-.5ZM144.3,137c.2-.2.4-.4.6-.5.2-.2.4-.3.5-.5.2-.2.3-.3.5-.5.2-.2.3-.3.4-.4.1-.1.3-.3.4-.4.1-.1.2-.2.2-.3l.3-.3s0,0,0,0c0,0-.2.1-.2.2-.1.1-.4.3-.7.6-.1.1-.3.3-.5.4-.2.1-.4.3-.6.4-.2.2-.3.3-.5.5s-.4.3-.6.5c-.2.2-.4.3-.6.5-.2.2-.4.4-.5.5-.2.2-.4.3-.5.5-.2.2-.3.3-.4.4-.1.1-.3.3-.4.4,0,.1-.2.2-.3.3,0,0,0,.1-.1.1,0,0,0,0,0,0h0s0,0,0,0c0,0,0,0,0,0,0,0,0,0,.1-.1,0,0,.2-.2.3-.3.1,0,.3-.2.4-.3.1-.1.3-.3.5-.4.2-.1.4-.3.5-.5.2-.1.4-.3.6-.5.2-.2.4-.3.6-.5ZM148.6,133.6c0,0,.1-.1.2-.2,0,0,.1-.1.2-.2h.1c0,0-.1,0-.2,0,0,0-.2.1-.4.3-.1.1-.3.3-.5.5-.2.2-.4.4-.6.6-.2.2-.4.4-.6.6-.2.2-.4.3-.5.5,0,0-.1.1-.2.2,0,0-.1,0-.2.1h-.1c0,.1,0,0,.1,0,0,0,.1-.1.2-.1,0,0,.1-.1.2-.2.1-.1.3-.3.5-.5.2-.2.4-.3.6-.5.2-.2.4-.4.6-.6.2-.2.4-.3.5-.5Z"/>
      <path class="st0" d="M170.9,144.1c.1-.3.4-.3.7-.2.3.1.6.3.9.6.3.3.5.6.8.9.2.3.3.5.2.7-.4.9-.9,2-1.5,3.2-.6,1.2-1.4,2.3-2.4,3.4-1,1.1-2.1,2-3.4,2.8-1.3.8-2.8,1.1-4.4,1.1h-.4c-.1,0-.3,0-.4,0-.6.8-1.2,1.5-1.8,2.2-.6.7-1.3,1.3-1.9,1.8-.7.5-1.3.9-2,1.2-.7.3-1.3.4-2,.4s-.8-.1-1.4-.4c-.6-.3-1.2-.7-1.9-1.3-.6-.5-1.2-1.2-1.6-1.9-.5-.7-.7-1.6-.7-2.5s.2-1.6.4-2.5c.3-.9.7-1.8,1.1-2.8.5-.9,1-1.8,1.6-2.7.6-.9,1.2-1.6,1.7-2.3v-.8c0-.8.3-1.6.8-2.5.6-.8,1.3-1.6,2.1-2.2.8-.7,1.7-1.2,2.6-1.6.9-.4,1.8-.6,2.5-.6s.8.2,1.4.6,1.1.9,1.5,1.6c.5.7.9,1.5,1.2,2.5.4,1,.5,2.1.5,3.3s-.2,2.2-.6,3.4c-.4,1.3-.9,2.5-1.6,3.8.9-.2,1.8-.6,2.6-1.4.8-.7,1.5-1.5,2.2-2.4.6-.9,1.2-1.9,1.7-2.8.5-1,1-1.8,1.3-2.5ZM150.2,156.4c0,0,0-.2,0-.4,0,0,0-.2,0-.4,0-.1.1-.3.1-.4,0-.2,0-.3.2-.4,0-.3.2-.6.3-.9,0-.1.1-.3.2-.4,0-.1.1-.2.2-.4,0-.1,0-.2.1-.3,0,0,0-.2.1-.2,0,0,0-.2.1-.2,0,0,0,.1-.1.2,0,0-.1.1-.1.2,0,0,0,.2-.1.3-.1.2-.3.5-.4.8,0,.1-.1.3-.2.4,0,.1-.1.3-.2.4,0,.1-.1.3-.1.5,0,.2,0,.3-.1.5,0,.2,0,.3,0,.4s0,.1,0,.2c0,0,0,.1,0,.2,0,.1,0,.3,0,.3v.5h0c0,0,0,0,0-.1,0,0,0,0,0-.1s0-.2,0-.3c0,0,0-.2,0-.3ZM150.5,156.5c0-.1,0-.3,0-.4,0-.1,0-.3.1-.4,0-.3.2-.6.3-.9l.3-.5c0-.1.1-.3.2-.5,0-.2.2-.3.3-.5,0-.2.2-.3.3-.5l.6-1c.1-.2.2-.3.3-.5.1-.2.2-.3.3-.4v-.4c-.1,0-.3.1-.3.1-.1.2-.2.3-.3.5-.1.2-.2.3-.3.5l-.6,1c-.1.2-.2.4-.3.6,0,.2-.2.3-.2.5,0,.1-.1.2-.1.3,0,0,0,.2,0,.3,0,0,0,.2-.1.3,0,0,0,.2-.1.2,0,.2-.1.3-.1.5,0,.2,0,.3-.2.4,0,.1,0,.3-.1.4,0,0,0,.1,0,.2,0,0,0,.2,0,.2,0,.3,0,.5,0,.6,0,0,0,.2,0,.2,0,0,0,.1,0,.2h0c0,.1,0,0,0,0,0,0,0-.2,0-.4,0,0,0-.2,0-.3,0-.1,0-.2.1-.4ZM150.8,158.4c1,0,2.1-.3,3.1-.9,1-.6,2-1.3,2.9-2.3-.8-.5-1.5-1.1-2-1.8-.5-.7-.9-1.4-1.2-2.2-.7,1-1.4,2.1-1.9,3.3-.5,1.2-.8,2.5-.8,3.9ZM154.7,149.7c0,.9.2,1.7.7,2.4.5.7,1.5,1.1,2.8,1.3.7-.9,1.3-1.9,1.9-2.9.6-1,1.1-2,1.5-3,.4-1,.7-2,.9-2.9.2-.9.3-1.8.3-2.5s-.3-1-.8-1c-.8,0-1.7.3-2.6,1.1-.9.7-1.8,1.6-2.6,2.6.3.4.5.8.7,1.3.1.4.1.7,0,.8-.1.1-.5.4-1,.9-.5.5-1.1,1.1-1.8,1.9ZM156.6,155.8c0,0,.2-.1.2-.2,0,0,.2-.2.2-.3,0,0,0,0,0,0s0,0,0,0l-.5.5c-.1.1-.3.2-.4.3,0,.1-.2.2-.3.3-.1.1-.2.2-.3.3,0,0-.2.1-.2.2,0,0-.2.1-.2.2,0,0-.1,0-.2.1s0,0-.1,0l.5-.4c0,0,.2-.1.3-.2,0,0,.2-.2.3-.3.1,0,.2-.2.3-.3.1,0,.2-.2.4-.4ZM154.9,148.5c0,0,0,.2,0,.2,0,0,0,.2,0,.2.1-.1.2-.3.3-.4.1-.1.2-.2.3-.3.1-.1.2-.2.3-.3,0-.1.2-.2.3-.3l.4-.4.4-.4s0,0-.1,0c0,0-.1,0-.2.1,0,0-.1,0-.2.2-.1.1-.3.3-.5.4-.2.2-.4.3-.6.6l-.4.4ZM155.4,141.2c0,0-.2.2-.2.2,0,0-.1.1-.2.2h-.1c0,.1,0,.1,0,.1h.1c0-.2.1-.2.2-.3,0,0,.1-.1.2-.2,0,0,.2-.1.3-.2,0,0,.2-.2.4-.2.1,0,.2-.2.3-.3,0,0,.2-.2.4-.2.1,0,.3-.2.4-.3.1,0,.2-.2.3-.2.1,0,.3-.1.4-.2,0,0,.2-.1.3-.2.2-.1.4-.2.5-.3h.2c0-.1-.1,0-.2,0,0,0-.2,0-.5.2-.2.1-.5.2-.7.4-.2.1-.5.3-.7.4-.2.1-.5.3-.7.5-.2.2-.4.4-.6.5ZM155.8,140.4c0,0,0,0,0,0s0,0,0,0h0c0,0,.1,0,.2,0,0,0,.1-.1.2-.1,0,0,.2-.1.3-.2.1,0,.3-.1.4-.2.1,0,.2-.2.4-.3,0,0,.1-.1.2-.1,0,0,.2,0,.2-.1,0,0,.2,0,.2-.1,0,0,.1,0,.2-.1,0,0,.2-.1.5-.3.1,0,.3-.1.4-.2.1,0,.3-.1.4-.1.1,0,.3,0,.4-.2.2,0,.3,0,.3,0,0,0,.1,0,.2,0s0,0,.1,0h.2s0,0,0,0h-.5c-.2,0-.3,0-.4,0,0,0-.2,0-.4,0,0,0-.1,0-.2,0,0,0-.2,0-.2,0-.2,0-.3.1-.5.2-.2,0-.3.1-.5.2-.1,0-.3.2-.4.3-.2,0-.3.2-.4.3-.3.2-.5.4-.7.6-.3.2-.4.3-.5.4ZM160.9,150c0-.1.1-.2.2-.3,0,0,0-.2.1-.3.1-.2.2-.4.3-.6,0-.2.2-.4.3-.6,0-.2.1-.4.2-.6,0-.2.2-.3.2-.5.2-.7.4-1.2.5-1.7,0-.2.1-.4.1-.4,0,0,0-.1,0-.2,0,0,0,.1,0,.2,0,0,0,.1,0,.2,0,0,0,.2,0,.2,0,.2-.1.4-.2.7,0,.3-.2.6-.4.9,0,.2-.1.3-.2.5,0,.2-.2.4-.2.6,0,.2-.2.4-.3.6,0,.2-.2.4-.3.6,0,.2-.2.4-.3.6,0,.1-.1.2-.1.3,0,.1,0,.2-.1.3-.1.2-.3.4-.4.6-.1.2-.2.4-.3.6-.1.2-.3.4-.4.6-.1.2-.3.4-.4.6,0,.1-.1.2-.2.3,0,0-.2.2-.2.3h.2l.4-.5c.1-.2.3-.4.4-.6.1-.2.3-.4.4-.6.1-.2.3-.4.4-.6.1-.2.2-.4.3-.6,0-.1.1-.2.1-.3,0,0,0-.2.1-.3ZM162.6,146.9c0-.2.1-.4.2-.6,0-.2.1-.4.2-.7,0-.2.1-.4.1-.7,0-.2,0-.4.1-.6,0-.2,0-.4.1-.6,0-.2,0-.4,0-.5v-1.1h0c0,.1,0,.2,0,.2,0,0,0,0,0,.1,0,0,0,.2,0,.3,0,.1,0,.3,0,.5,0,.2,0,.3,0,.5,0,.2,0,.4-.1.6,0,.2-.1.4-.1.6,0,.2,0,.4-.1.6,0,.2-.1.4-.2.7,0,.2-.1.4-.2.7,0,.2-.1.4-.2.6,0,.2-.1.3-.2.5,0,.2-.1.3-.1.4,0,.1,0,.2-.1.3,0,0,0,.2,0,.2s0,0,0,0v-.3c.2,0,.2-.2.3-.3,0-.1.1-.3.2-.5,0-.1.1-.3.2-.5,0-.2.2-.4.2-.6Z"/>
      <path class="st0" d="M188,147.6c.1-.2.3-.2.6,0,.3.2.6.4,1,.7.3.3.6.6.8,1,.2.4.3.6.2.8-.5,1.1-1.2,2.3-2.1,3.7-.9,1.4-1.8,2.7-2.9,3.9-1.1,1.2-2.2,2.2-3.3,3.1-1.2.8-2.3,1.3-3.4,1.3s-.8-.1-1.3-.4c-.5-.3-.9-.6-1.3-1.1-.4-.4-.7-.8-1-1.3-.3-.5-.4-.8-.4-1.2,0-.7.2-1.5.6-2.5.4-1,.9-2.1,1.4-3.2.6-1.2,1.2-2.4,1.8-3.6.6-1.3,1.2-2.5,1.7-3.7-2.2,2.2-4.1,4.4-5.8,6.4-1.6,2-3,3.8-4.1,5.4-1.1,1.6-1.9,2.8-2.5,3.7-.6.9-.9,1.4-1.1,1.4s-.4,0-.7-.3c-.3-.2-.6-.4-.8-.7-.3-.3-.5-.6-.7-1-.2-.4-.3-.7-.3-1.1s.2-.9.7-1.9c.4-1.1,1-2.3,1.6-3.8.7-1.5,1.4-3,2.1-4.7.8-1.7,1.5-3.2,2.1-4.7.7-1.5,1.2-2.7,1.6-3.8.4-1.1.7-1.7.7-2s0-.1,0-.2c0-.1.2-.2.3-.2s.5,0,.8.2c.3.1.6.3.9.6.3.2.5.5.7.8.2.3.3.7.3,1s0,.5-.3,1.1c-.2.5-.4,1.2-.7,1.9-.3.7-.6,1.6-1,2.5-.4.9-.7,1.8-1.1,2.7.9-1,1.8-2.1,2.7-3.2.9-1.1,1.8-2.1,2.6-3,.8-.9,1.5-1.7,2.2-2.4s1-1,1.3-1.2c0,0,0,0,0,0,0,0,0,0,0,0s0,0,0,0c0,0,.1,0,.2,0,.2,0,.4.2.6.4.3.2.5.5.8.8s.5.7.7,1.2c.2.5.3,1,.3,1.5s-.2,1-.5,1.8c-.3.8-.7,1.7-1.1,2.7-.4,1-.9,2-1.5,3.1-.5,1.1-1.1,2.1-1.5,3.1-.5,1-.8,1.9-1.1,2.7-.3.8-.5,1.4-.5,1.8.7,0,1.4-.3,2.2-.8.8-.6,1.6-1.3,2.4-2.3.8-1,1.7-2,2.5-3.3.8-1.2,1.6-2.5,2.3-3.8ZM171.4,150c.1-.3.3-.6.4-.8.1-.3.2-.6.4-.8.1-.3.3-.6.4-.9.1-.3.2-.6.4-.9.1-.3.2-.5.3-.8,0-.3.2-.5.3-.7,0-.2.2-.4.2-.6,0-.2.1-.3.2-.5,0,0,0-.1,0-.1s0,0,0-.1c0,0,0-.1,0-.1l-2,4.7c-.2.6-.5,1.2-.7,1.7-.2.5-.5,1.1-.6,1.5-.1.2-.2.4-.3.6,0,.2-.1.3-.2.5,0,.1-.1.3-.2.4,0-.1.1-.2.2-.4l.5-1c.1-.2.2-.5.3-.7,0-.2.2-.5.4-.8ZM172.8,147.9s0,0,0,0c0,0,0,0,0-.1s0,0,0-.1c.1-.2.3-.5.5-.9.1-.2.2-.4.3-.6,0-.2.2-.5.3-.7.1-.2.2-.5.3-.8.1-.3.2-.5.3-.8.1-.3.2-.5.3-.8,0-.3.2-.5.3-.8,0-.3.2-.5.2-.7,0-.2.1-.5.2-.7,0-.4.1-.8.1-1.1v-.2c0,0,0-.1,0-.1s0,0,0,0h0v.4c0,0,0,.1,0,.2s0,.1,0,.2c0,0,0,.2-.1.3,0,0,0,.2,0,.3,0,.2-.1.5-.2.7-.1.2-.2.5-.3.7-.1.2-.2.5-.3.7-.1.3-.2.5-.3.8-.1.3-.2.5-.3.8,0,.3-.2.5-.3.8-.1.3-.2.5-.3.7,0,.2-.2.4-.3.6,0,.2-.1.4-.2.6,0,.1-.1.3-.2.4v.4ZM176.2,154.8c.1-.3.3-.5.4-.8,0-.3.2-.5.4-.8.1-.3.3-.5.4-.8.1-.3.2-.5.4-.8.2-.6.4-1,.6-1.4,0-.2.2-.4.2-.6,0-.2.1-.3.2-.4,0,0,0-.2.1-.3,0,0,0,0,0,0,0,0,0,0,0,0,0,0-.1.1-.2.3,0,.1-.1.2-.2.4,0,.2-.2.3-.3.5-.1.2-.2.4-.3.6-.1.2-.2.5-.4.7-.1.3-.3.5-.4.8-.1.3-.3.5-.4.8-.1.3-.2.5-.3.8-.1.3-.2.5-.3.8,0,.1-.1.3-.1.4,0,.1,0,.2-.2.3,0,.1,0,.3-.1.4,0,.1,0,.2,0,.3,0,.2-.1.4-.1.6,0,0,0,.2,0,.2,0,0,0,.1,0,.2v.3h0c0,0,0,0,0,0,0-.1,0-.2,0-.3,0-.3.2-.6.3-1,0-.2.2-.4.3-.7.1-.2.2-.5.3-.7ZM180.6,161.2c0,0,.2,0,.2-.1,0,0,.1,0,.2-.1,0,0,.1,0,.2-.1h-.2c-.2.1-.3.2-.5.3-.4.2-.8.3-1.4.3h-.4c0,0-.1,0-.2,0,0,0-.1,0-.2,0-.2,0-.4,0-.6-.2h-.3c0-.1-.1-.2-.2-.2,0,0,0,0,0,0s0,0,0,0,0,0,0,0h.1c0,.2.1.2.2.3h.3c0,.2.2.2.3.3,0,0,.2,0,.4.1,0,0,.1,0,.2,0s.1,0,.2,0h.4c.1,0,.3,0,.4,0,.1,0,.2,0,.4-.1.1,0,.3,0,.4-.1,0,0,.2,0,.3-.2ZM180.5,146.2c-.3.7-.7,1.4-1.1,2.3-.1.2-.2.4-.3.6-.1.2-.2.4-.3.6-.1.2-.2.4-.3.6,0,.2-.1.4-.2.5,0,.2-.1.3-.2.4,0,.1-.1.3-.1.4,0,.1,0,.2,0,.3,0,0,0-.2.1-.3,0,0,.1-.2.1-.3,0-.1.1-.3.2-.4.2-.3.3-.7.5-1.1.2-.4.4-.8.6-1.2.1-.2.2-.4.3-.6,0-.2.2-.4.3-.6.1-.2.2-.4.3-.6,0-.2.2-.3.2-.5,0-.1.1-.3.2-.4,0-.1.1-.3.2-.4s0-.2.1-.3c0,0-.1.2-.2.3,0,0-.1.2-.2.3,0,.1-.1.3-.2.4Z"/>
    </g>
  </g>
  <g>
    <path class="st0" d="M140,95.9c-2.4,2-5.8,3-10.2,3h-8.5v14.7h-8.5v-40.9h17.5c4,0,7.3,1.1,9.7,3.2,2.4,2.1,3.6,5.4,3.6,9.8s-1.2,8.2-3.6,10.2ZM133.5,81.1c-1.1-.9-2.6-1.4-4.5-1.4h-7.7v12.1h7.7c1.9,0,3.5-.5,4.5-1.5,1.1-1,1.6-2.5,1.6-4.7s-.5-3.6-1.6-4.6Z"/>
    <path class="st0" d="M161.8,95.2c1.5-.2,2.5-.4,3.2-.7,1.1-.5,1.7-1.2,1.7-2.2s-.4-2.1-1.3-2.6c-.9-.5-2.2-.7-3.8-.7s-3.2.5-4,1.4c-.6.7-.9,1.6-1.1,2.8h-7.6c.2-2.6.9-4.8,2.2-6.5,2.1-2.7,5.7-4,10.8-4s6.3.7,8.9,2c2.6,1.3,3.9,3.8,3.9,7.4v13.9c0,1,0,2.1,0,3.5,0,1,.2,1.7.5,2.1.3.4.6.7,1.2.9v1.2h-8.6c-.2-.6-.4-1.2-.5-1.7,0-.5-.2-1.1-.2-1.8-1.1,1.2-2.4,2.2-3.8,3-1.7,1-3.6,1.5-5.8,1.5s-5-.8-6.8-2.3c-1.8-1.6-2.7-3.8-2.7-6.7s1.4-6.4,4.3-8.1c1.6-.9,3.9-1.6,7-1.9l2.7-.3ZM166.6,98.9c-.5.3-1,.6-1.5.8-.5.2-1.2.4-2.1.5l-1.8.3c-1.7.3-2.9.7-3.6,1.1-1.2.7-1.9,1.8-1.9,3.4s.4,2.3,1.1,2.9c.8.6,1.7.9,2.8.9,1.7,0,3.3-.5,4.8-1.5,1.5-1,2.2-2.8,2.3-5.5v-2.9Z"/>
    <path class="st0" d="M187.5,103.9c.2,1.4.5,2.4,1.1,3,1,1.1,2.8,1.6,5.5,1.6s2.8-.2,3.7-.7c.9-.5,1.4-1.2,1.4-2.1s-.4-1.6-1.1-2c-.7-.5-3.5-1.3-8.3-2.4-3.4-.9-5.9-1.9-7.3-3.2-1.4-1.3-2.1-3.1-2.1-5.4s1.1-5.2,3.3-7.2c2.2-2,5.3-3,9.3-3s6.9.8,9.2,2.3c2.4,1.5,3.7,4.1,4.1,7.8h-7.9c-.1-1-.4-1.8-.9-2.4-.9-1.1-2.4-1.6-4.4-1.6s-3,.3-3.7.8c-.7.5-1.1,1.2-1.1,1.9s.4,1.6,1.2,2c.8.4,3.5,1.2,8.3,2.2,3.1.7,5.5,1.9,7.1,3.4,1.6,1.5,2.3,3.4,2.3,5.7s-1.1,5.4-3.3,7.3c-2.2,1.9-5.7,2.8-10.3,2.8s-8.3-1-10.5-3c-2.3-2-3.4-4.6-3.4-7.7h8Z"/>
    <path class="st0" d="M247.9,83.8c1.4.8,2.6,1.9,3.5,3.3v-14.4h8v40.9h-7.7v-4.2c-1.1,1.8-2.4,3.1-3.9,3.9-1.4.8-3.2,1.2-5.4,1.2-3.5,0-6.5-1.4-8.9-4.3-2.4-2.9-3.6-6.5-3.6-11s1.2-9.2,3.6-12.2c2.4-3,5.6-4.4,9.5-4.4s3.5.4,4.9,1.2ZM249.8,105.4c1.2-1.7,1.8-3.8,1.8-6.5s-.9-6.3-2.8-7.9c-1.1-1-2.5-1.4-4-1.4-2.3,0-4,.9-5.1,2.6-1.1,1.8-1.6,3.9-1.6,6.5s.6,5,1.7,6.7c1.1,1.7,2.8,2.5,5,2.5s3.9-.8,5.1-2.5Z"/>
    <path class="st0" d="M286.3,83.9c2.1.9,3.9,2.4,5.2,4.5,1.2,1.8,2,3.9,2.4,6.3.2,1.4.3,3.4.3,6h-22c.1,3,1.2,5.2,3.2,6.4,1.2.8,2.7,1.1,4.4,1.1s3.3-.5,4.4-1.4c.6-.5,1.2-1.2,1.6-2.1h8.1c-.2,1.8-1.2,3.6-2.9,5.5-2.7,2.9-6.5,4.4-11.4,4.4s-7.6-1.2-10.6-3.7c-3.1-2.5-4.6-6.5-4.6-12.1s1.4-9.3,4.2-12.1c2.8-2.8,6.4-4.2,10.8-4.2s5,.5,7.1,1.4ZM274.4,90.8c-1.1,1.2-1.8,2.7-2.1,4.7h13.6c-.1-2.1-.8-3.7-2.1-4.8-1.3-1.1-2.8-1.6-4.7-1.6s-3.6.6-4.7,1.7Z"/>
    <path class="st0" d="M323,76.9c3.3-3.4,7.5-5.1,12.6-5.1s11.8,2.3,14.9,6.8c1.7,2.5,2.7,5.1,2.8,7.6h-8.5c-.5-2-1.2-3.4-2.1-4.4-1.5-1.8-3.8-2.7-6.8-2.7s-5.4,1.3-7.2,3.8c-1.8,2.5-2.6,6.1-2.6,10.6s.9,8,2.8,10.3c1.9,2.3,4.2,3.4,7.1,3.4s5.2-1,6.7-2.9c.8-1.1,1.6-2.6,2.1-4.7h8.5c-.7,4.5-2.6,8.1-5.6,10.9-3,2.8-6.9,4.2-11.6,4.2s-10.4-1.9-13.7-5.7c-3.3-3.8-5-9-5-15.6s1.9-12.7,5.7-16.5Z"/>
    <path class="st0" d="M371.5,95.2c1.5-.2,2.5-.4,3.2-.7,1.1-.5,1.7-1.2,1.7-2.2s-.4-2.1-1.3-2.6c-.9-.5-2.2-.7-3.8-.7s-3.2.5-4,1.4c-.6.7-.9,1.6-1.1,2.8h-7.6c.2-2.6.9-4.8,2.2-6.5,2.1-2.7,5.7-4,10.8-4s6.3.7,8.9,2c2.6,1.3,3.9,3.8,3.9,7.4v13.9c0,1,0,2.1,0,3.5,0,1,.2,1.7.5,2.1.3.4.6.7,1.2.9v1.2h-8.6c-.2-.6-.4-1.2-.5-1.7,0-.5-.2-1.1-.2-1.8-1.1,1.2-2.4,2.2-3.8,3-1.7,1-3.6,1.5-5.8,1.5s-5-.8-6.8-2.3c-1.8-1.6-2.7-3.8-2.7-6.7s1.4-6.4,4.3-8.1c1.6-.9,3.9-1.6,7-1.9l2.7-.3ZM376.3,98.9c-.5.3-1,.6-1.5.8-.5.2-1.2.4-2.1.5l-1.8.3c-1.7.3-2.9.7-3.6,1.1-1.2.7-1.9,1.8-1.9,3.4s.4,2.3,1.1,2.9c.8.6,1.7.9,2.8.9,1.7,0,3.3-.5,4.8-1.5,1.5-1,2.2-2.8,2.3-5.5v-2.9Z"/>
    <path class="st0" d="M399.2,113.6h-7.9v-40.9h7.9v40.9Z"/>
    <path class="st0" d="M418.8,95.2c1.5-.2,2.5-.4,3.2-.7,1.1-.5,1.7-1.2,1.7-2.2s-.4-2.1-1.3-2.6c-.9-.5-2.2-.7-3.8-.7s-3.2.5-4,1.4c-.6.7-.9,1.6-1.1,2.8h-7.6c.2-2.6.9-4.8,2.2-6.5,2.1-2.7,5.7-4,10.8-4s6.3.7,8.9,2c2.6,1.3,3.9,3.8,3.9,7.4v13.9c0,1,0,2.1,0,3.5,0,1,.2,1.7.5,2.1.3.4.6.7,1.2.9v1.2h-8.6c-.2-.6-.4-1.2-.5-1.7,0-.5-.2-1.1-.2-1.8-1.1,1.2-2.4,2.2-3.8,3-1.7,1-3.6,1.5-5.8,1.5s-5-.8-6.8-2.3c-1.8-1.6-2.7-3.8-2.7-6.7s1.4-6.4,4.3-8.1c1.6-.9,3.9-1.6,7-1.9l2.7-.3ZM423.7,98.9c-.5.3-1,.6-1.5.8-.5.2-1.2.4-2.1.5l-1.8.3c-1.7.3-2.9.7-3.6,1.1-1.2.7-1.9,1.8-1.9,3.4s.4,2.3,1.1,2.9c.8.6,1.7.9,2.8.9,1.7,0,3.3-.5,4.8-1.5,1.5-1,2.2-2.8,2.3-5.5v-2.9Z"/>
    <path class="st0" d="M446.6,79.7h-8v-7.3h8v7.3ZM438.6,83.3h8v30.3h-8v-30.3Z"/>
    <path class="st0" d="M460.4,103.9c.2,1.4.5,2.4,1.1,3,1,1.1,2.8,1.6,5.5,1.6s2.8-.2,3.7-.7c.9-.5,1.4-1.2,1.4-2.1s-.4-1.6-1.1-2c-.7-.5-3.5-1.3-8.3-2.4-3.4-.9-5.9-1.9-7.3-3.2-1.4-1.3-2.1-3.1-2.1-5.4s1.1-5.2,3.3-7.2c2.2-2,5.3-3,9.3-3s6.9.8,9.2,2.3c2.4,1.5,3.7,4.1,4.1,7.8h-7.9c-.1-1-.4-1.8-.9-2.4-.9-1.1-2.4-1.6-4.4-1.6s-3,.3-3.7.8c-.7.5-1.1,1.2-1.1,1.9s.4,1.6,1.2,2c.8.4,3.5,1.2,8.3,2.2,3.1.7,5.5,1.9,7.1,3.4,1.6,1.5,2.3,3.4,2.3,5.7s-1.1,5.4-3.3,7.3c-2.2,1.9-5.7,2.8-10.3,2.8s-8.3-1-10.5-3c-2.3-2-3.4-4.6-3.4-7.7h8Z"/>
    <path class="st0" d="M299.1,98.2c0-3.2,2.6-5.7,5.7-5.7s5.7,2.6,5.7,5.7-2.6,5.7-5.7,5.7-5.7-2.6-5.7-5.7Z"/>
    <path class="st0" d="M213.3,98.2c0-3.2,2.6-5.7,5.7-5.7s5.7,2.6,5.7,5.7-2.6,5.7-5.7,5.7-5.7-2.6-5.7-5.7Z"/>
  </g>
</svg>