<?xml version="1.0" encoding="UTF-8"?>
<svg id="Calque_1" xmlns="http://www.w3.org/2000/svg" version="1.1" viewBox="0 0 480 240">
  <!-- Generator: Adobe Illustrator 30.1.0, SVG Export Plug-In . SVG Version: 2.1.1 Build 136)  -->
  <defs>
    <style>
      .st0 {
        fill: #fff;
      }

      .st1 {
        fill: #ecc523;
      }
    </style>
  </defs>
  <path class="st0" d="M0,83.2v11.8h22.9v81.7h11.8v-82c-.1,0,22.9,0,22.9,0v-11.5H0ZM146.5,144.9v-15.4c0-9.6-3.5-17.9-10.4-24.8-6.9-6.9-15.2-10.4-24.9-10.4s-18,3.5-24.9,10.4-10.4,15.2-10.4,24.9v15.4h70.6ZM111.3,82.8c12.8,0,24,4.6,33.2,13.8s13.8,20.2,13.8,33.2v47h-11.8v-19.9h-70.5v19.9h-11.8v-47.1c0-12.8,4.6-24,13.8-33.2,9.2-9.2,20.3-13.7,33.3-13.7M177.1,164.8h28.9c9.7,0,18-3.5,24.9-10.4,6.9-6.9,10.4-15.3,10.4-24.9s-3.5-18-10.4-24.9-15.3-10.2-24.9-10.2h-28.9v70.4ZM165.3,82.5h41.1c12.8,0,23.9,4.8,33.1,13.8,9.2,9.2,13.8,20.2,13.8,33.1s-4.6,24-13.6,33.1c-9.2,9.2-20,13.9-33.1,14h-41.1s-.2-94-.2-94ZM342.5,144.8v-15.5c0-9.6-3.5-17.9-10.4-24.8-6.9-6.9-15.2-10.4-24.9-10.4s-18,3.5-24.9,10.4c-6.9,6.9-10.4,15.2-10.4,24.9v15.4s70.6,0,70.6,0ZM307.1,82.4c12.8,0,24,4.6,33.2,13.8,9.2,9.2,13.8,20.2,13.8,33.2v47.1h-11.8v-19.9h-70.5v20h-11.8v-47.1c0-12.8,4.6-24,13.8-33.2,9.3-9.4,20.4-13.9,33.3-13.9M415.8,164.6c10,0,18.5-3.5,25.6-10.5,7-7,10.5-15.6,10.5-25.6s-3.5-18.3-10.5-25.4c-7.1-7-15.6-10.5-25.6-10.5s-18.3,3.5-25.4,10.5c-7,7-10.5,15.6-10.5,25.4s3.5,18.5,10.5,25.6c7,7,15.4,10.5,25.4,10.5M415.8,80.7c13.2,0,24.6,4.8,34,14,9.3,9.3,14,20.6,14,33.7s-4.8,24.6-14,34c-9.3,9.3-20.8,14-34,14s-24.5-4.8-33.7-14c-9.3-9.3-14-20.8-14-34s4.8-24.5,14-33.7c9.3-9.5,20.6-14,33.7-14"/>
  <path class="st1" d="M447.7,75.4v-12.1c8.8.1,16.5,3.4,22.8,9.6s9.5,13.8,9.5,22.6h-12.1c0-5.5-2-10.2-6-14.3-3.8-4-8.6-5.9-14.2-5.9"/>
</svg>