<?xml version="1.0" encoding="UTF-8"?>
<svg id="Calque_1" xmlns="http://www.w3.org/2000/svg" version="1.1" viewBox="0 0 480 240">
  <!-- Generator: Adobe Illustrator 30.1.0, SVG Export Plug-In . SVG Version: 2.1.1 Build 136)  -->
  <defs>
    <style>
      .st0 {
        fill: #129bd8;
      }
    </style>
  </defs>
  <g id="baseline">
    <path class="st0" d="M32.4,235.7l-3.6-9.6h-.8v9.6h-4.3v-23h5.7c3.1,0,5.6,2.7,5.6,6.6s-1,4.4-2.2,5.3l4.3,11h-4.6ZM29,216.2h-1v6.2h1c.8,0,1.7-1.1,1.7-3.1,0-2-.9-3.1-1.7-3.1h0Z"/>
    <path class="st0" d="M48.3,227l-1.7,1.7h-4.9c.1,2.1,1.2,3.9,3,3.9,1.1,0,2.1-.4,2.9-1.2l-.2,3.7c-1,.7-2.1,1-3.3.9-3.9,0-6.5-3.3-6.5-8.6s2.4-8.4,5.8-8.4,5,2.9,5,6.3c0,.6,0,1.2-.1,1.7h0ZM42.8,217.5l-1.4-1.6c1.9-.8,3.6-2,4.8-3.7l.5,2.7c-1.1,1.2-2.4,2.1-4,2.6h0ZM43.4,222.2c-.9,0-1.6,1.6-1.7,3.4h3c0-.2,0-.4,0-.6,0-1.5-.5-2.8-1.3-2.8h0Z"/>
    <path class="st0" d="M53.4,236c-1.2,0-2.3-.4-3.2-1.1l-.3-4c.7.9,1.8,1.5,3,1.5.6,0,1.2-.4,1.3-1,0,0,0,0,0-.1,0-.9-.5-1.7-1.2-2.3-1.7-1.7-2.7-3.5-2.7-5.3,0-2.9,1.8-4.7,4.5-4.7.9,0,1.8.3,2.6.8l-.2,3.5c-.5-.5-1.2-.8-2-.8-.5,0-1,.4-1,.9,0,0,0,0,0,0,0,.7.3,1.2,1.3,2.3,1.9,2.1,2.7,3.5,2.7,5.2,0,2.8-1.6,5-4.8,5h0Z"/>
    <path class="st0" d="M70.4,227l-1.7,1.7h-4.9c.1,2.1,1.2,3.9,3,3.9,1.1,0,2.1-.4,2.8-1.2l-.2,3.7c-1,.7-2.1,1-3.3.9-3.9,0-6.5-3.3-6.5-8.6s2.4-8.4,5.8-8.4,5.1,2.9,5.1,6.3c0,.6,0,1.2-.1,1.7h0ZM65.4,222.2c-.9,0-1.6,1.6-1.7,3.4h3c0-.2,0-.4,0-.6,0-1.5-.5-2.8-1.3-2.8h0Z"/>
    <path class="st0" d="M81.7,236c-1.1,0-2.1-.7-2.6-1.7-.7,1-1.8,1.7-3,1.7-2.3,0-4.2-1.6-4.2-4.9s1.6-5.3,4.4-5.6h1.5v-.9c0-1.3-.7-2.1-1.9-2.1-1.1,0-2.1.5-2.8,1.2l-.2-3.5c1-.8,2.3-1.2,3.5-1.2,3.3,0,5.5,2.1,5.5,6.2v5.6c0,1.3.6,2,1.4,2.2l-1.6,3.1ZM77.8,228.5h-.9c-.8.2-1.4,1.1-1.4,2.5s.5,1.7,1,1.7,1.3-.7,1.3-1.8v-2.4Z"/>
    <path class="st0" d="M92.2,235.7v-1.4c-.7,1.1-1.9,1.7-3.1,1.7-2.7,0-4.2-2-4.2-5v-11.6h4.1v10.9c0,1.3.5,2.1,1.3,2.1s1.4-.8,1.4-2.2v-10.7h4.2v16.3h-3.7Z"/>
    <path class="st0" d="M115.4,235.7l-4.7-8.7c-.7-1.3-1.6-3-2.1-4.4h0c0,1.5.1,3.1.1,4.4v8.7h-4.1v-23h3.3l4.2,8.3c.6,1.2,1.4,2.9,1.9,4.2h0c0-1.3-.1-3-.1-4.2v-8.3h4.1v23.1h-2.7Z"/>
    <path class="st0" d="M130.2,236c-1.1,0-2.1-.7-2.6-1.7-.7,1-1.8,1.7-3,1.7-2.3,0-4.2-1.6-4.2-4.9s1.6-5.3,4.4-5.6h1.5v-.9c0-1.3-.7-2.1-1.9-2.1-1.1,0-2.1.5-2.8,1.2l-.2-3.5c1-.8,2.3-1.2,3.5-1.2,3.3,0,5.5,2.1,5.5,6.2v5.6c0,1.3.6,2,1.4,2.2l-1.6,3.1ZM126.3,228.5h-.9c-.8.2-1.4,1.1-1.4,2.5s.5,1.7,1,1.7,1.3-.7,1.3-1.8v-2.4Z"/>
    <path class="st0" d="M140.9,222.9h-3v7.2c0,1.3.5,2.1,1.4,2.1.4,0,.8-.1,1.1-.4l-.3,3.6c-.7.3-1.4.5-2.1.5-2.6,0-4.3-2.1-4.3-4.9v-8h-1.7v-3.6h1.8v-2.9l4.1-1.6v4.5h3.1l-.2,3.6Z"/>
    <path class="st0" d="M145.2,217.1c-.7,0-2.1-1.6-2.1-2.5s1.4-2.5,2.1-2.5,2.1,1.7,2.1,2.5-1.4,2.5-2.1,2.5ZM143.1,235.7v-16.3h4.2v16.3h-4.2Z"/>
    <path class="st0" d="M155.6,236c-3.7,0-6-3.5-6-8.5s2.3-8.5,6-8.5,6,3.5,6,8.5-2.3,8.5-6,8.5ZM155.6,222.7c-1,0-1.8,2-1.8,4.8s.8,4.8,1.8,4.8,1.7-2,1.7-4.8-.8-4.8-1.7-4.8h0Z"/>
    <path class="st0" d="M170.5,235.7v-10.9c0-1.3-.5-2.1-1.3-2.1s-1.4.8-1.4,2.2v10.7h-4.1v-16.3h3.6v1.4c.7-1.1,1.9-1.8,3.2-1.7,2.7,0,4.2,2,4.2,5v11.6h-4.2Z"/>
    <path class="st0" d="M186.5,236c-1.1,0-2.1-.7-2.6-1.7-.7,1-1.8,1.7-3,1.7-2.3,0-4.2-1.6-4.2-4.9s1.6-5.3,4.4-5.6h1.5v-.9c0-1.3-.7-2.1-1.9-2.1-1.1,0-2.1.5-2.8,1.2l-.2-3.5c1-.8,2.3-1.2,3.5-1.2,3.3,0,5.5,2.1,5.5,6.2v5.6c0,1.3.6,2,1.4,2.2l-1.6,3.1ZM182.6,228.5h-.9c-.8.2-1.4,1.1-1.4,2.5s.5,1.7,1,1.7,1.3-.7,1.3-1.8v-2.4Z"/>
    <path class="st0" d="M193.7,236.2c-2-.4-3.8-2.2-3.8-5.2v-19.2h4.1v18.9c0,1.3.5,2.1,1.4,2.5l-1.8,3.1Z"/>
    <path class="st0" d="M211.3,235.7v-1.1c-.7,1-1.8,1.5-3,1.4-2.7,0-5.4-3.1-5.4-8.4s2.3-8.6,5.8-8.6c.6,0,1.2.1,1.7.4v-7.7h4.1v23.9h-3.2ZM210.4,223.3c-.3-.4-.8-.6-1.3-.5-1.2,0-2,1.9-2,4.8s.8,4.8,2,4.8c.5,0,1-.3,1.3-.7v-8.4Z"/>
    <path class="st0" d="M227.4,227l-1.7,1.7h-4.9c.1,2.1,1.2,3.9,3,3.9,1.1,0,2.1-.4,2.9-1.2l-.2,3.7c-1,.7-2.1,1-3.3.9-3.9,0-6.5-3.3-6.5-8.6s2.4-8.4,5.8-8.4,5.1,2.9,5.1,6.3c0,.6,0,1.2-.1,1.7h0ZM222.4,222.2c-.9,0-1.6,1.6-1.7,3.4h3c0-.2,0-.4,0-.6,0-1.5-.5-2.8-1.3-2.8h0Z"/>
    <path class="st0" d="M232.4,236c-1.2,0-2.3-.4-3.2-1.1l-.3-4c.7.9,1.8,1.5,3,1.5.6,0,1.2-.4,1.3-1,0,0,0,0,0-.1,0-.9-.5-1.7-1.2-2.3-1.7-1.7-2.7-3.5-2.7-5.3,0-2.9,1.8-4.7,4.5-4.7.9,0,1.8.3,2.6.8l-.2,3.5c-.5-.5-1.2-.8-2-.8-.5,0-1,.4-1,.9,0,0,0,0,0,0,0,.7.3,1.2,1.3,2.3,1.9,2.1,2.7,3.5,2.7,5.2,0,2.8-1.6,5-4.8,5h0Z"/>
    <path class="st0" d="M245.2,240l-1.9-3.3c2.1-.7,2.9-1.9,2.9-5.4v-18.6h4.4v19c0,5.2-2.3,7.2-5.4,8.3Z"/>
    <path class="st0" d="M260.8,235.7v-1.4c-.7,1.1-1.9,1.7-3.1,1.7-2.7,0-4.2-2-4.2-5v-11.6h4.1v10.9c0,1.3.5,2.1,1.3,2.1s1.4-.8,1.4-2.2v-10.7h4.2v16.3h-3.7Z"/>
    <path class="st0" d="M273.7,235.7v-10.9c0-1.3-.5-2.1-1.3-2.1s-1.4.8-1.4,2.2v10.7h-4.1v-16.3h3.6v1.4c.7-1.1,1.9-1.8,3.2-1.7,2.7,0,4.2,2,4.2,5v11.6h-4.2Z"/>
    <path class="st0" d="M282.7,217.1c-.7,0-2.1-1.6-2.1-2.5s1.4-2.5,2.1-2.5,2.1,1.7,2.1,2.5-1.4,2.5-2.1,2.5ZM280.6,235.7v-16.3h4.2v16.3h-4.2Z"/>
    <path class="st0" d="M293.1,236c-3.7,0-6-3.5-6-8.5s2.3-8.5,6-8.5,6,3.5,6,8.5-2.3,8.5-6,8.5ZM293.2,222.7c-1,0-1.8,2-1.8,4.8s.8,4.8,1.8,4.8,1.7-2,1.7-4.8-.8-4.8-1.7-4.8h0Z"/>
    <path class="st0" d="M308.9,223.5c-2,0-3.4,2.2-3.4,5.2v7h-4.1v-16.3h3.8v2.3c.6-1.6,1.8-2.5,3.9-2.5l.2,4.4c-.1,0-.2,0-.4,0h0Z"/>
    <path class="st0" d="M313.9,236c-1.2,0-2.3-.4-3.2-1.1l-.3-4c.7.9,1.8,1.5,3,1.5.6,0,1.2-.4,1.3-1,0,0,0-.1,0-.2,0-.9-.5-1.7-1.2-2.3-1.7-1.7-2.7-3.5-2.7-5.3,0-2.9,1.8-4.7,4.5-4.7.9,0,1.8.3,2.6.8l-.2,3.5c-.5-.5-1.2-.8-2-.8-.5,0-1,.4-1,.9,0,0,0,0,0,0,0,.7.3,1.2,1.3,2.3,1.9,2.1,2.7,3.5,2.7,5.2,0,2.8-1.6,5-4.8,5h0Z"/>
    <path class="st0" d="M335.7,235.7l-1-5.3h-3.7l-1,5.3h-4l5.3-23.1h3.5l5.3,23.1h-4.3ZM333.2,222.6c-.1-.7-.3-1.4-.4-2.2h0c0,.8-.3,1.6-.4,2.2l-.8,4.4h2.5l-.8-4.4Z"/>
    <path class="st0" d="M344.3,236c-1.2,0-2.3-.4-3.2-1.1l-.3-4c.7.9,1.8,1.5,3,1.5.6,0,1.2-.4,1.3-1,0,0,0,0,0-.1,0-.9-.5-1.7-1.2-2.3-1.7-1.7-2.7-3.5-2.7-5.3,0-2.9,1.8-4.7,4.5-4.7.9,0,1.8.3,2.6.8l-.2,3.5c-.5-.5-1.2-.8-2-.8-.5,0-1,.4-1,.9,0,0,0,0,0,0,0,.7.3,1.2,1.3,2.3,1.9,2.1,2.7,3.5,2.7,5.2,0,2.8-1.6,5-4.8,5h0Z"/>
    <path class="st0" d="M354,236c-1.2,0-2.3-.4-3.2-1.1l-.3-4c.7.9,1.8,1.5,3,1.5.6,0,1.2-.4,1.3-1,0,0,0,0,0-.1,0-.9-.5-1.7-1.2-2.3-1.7-1.7-2.7-3.5-2.7-5.3,0-2.9,1.8-4.7,4.5-4.7.9,0,1.8.3,2.6.8l-.2,3.5c-.5-.5-1.2-.8-2-.8-.5,0-1,.4-1,.9,0,0,0,0,0,0,0,.7.3,1.2,1.3,2.3,1.9,2.1,2.7,3.5,2.7,5.2,0,2.8-1.6,5-4.8,5h0Z"/>
    <path class="st0" d="M366.3,236c-3.7,0-6-3.5-6-8.5s2.3-8.5,6-8.5,6,3.5,6,8.5-2.3,8.5-6,8.5ZM366.3,222.7c-1,0-1.8,2-1.8,4.8s.8,4.8,1.8,4.8,1.7-2,1.7-4.8-.8-4.8-1.7-4.8h0Z"/>
    <path class="st0" d="M382.9,223.7c-.6-.6-1.3-.9-2.1-.9-1.5,0-2.6,1.9-2.6,4.8s1,4.7,2.7,4.7c.8,0,1.6-.3,2.2-.9l-.2,3.9c-.8.5-1.8.8-2.9.8-3.4,0-6-3.2-6-8.5s2.6-8.5,6-8.5c1.1,0,2.2.3,3.1.9l-.2,3.7Z"/>
    <path class="st0" d="M387.4,217.1c-.7,0-2.1-1.6-2.1-2.5s1.4-2.5,2.1-2.5,2.1,1.7,2.1,2.5-1.4,2.5-2.1,2.5ZM385.3,235.7v-16.3h4.2v16.3h-4.2Z"/>
    <path class="st0" d="M401.6,236c-1.1,0-2.1-.7-2.6-1.7-.7,1-1.8,1.7-3,1.7-2.3,0-4.2-1.6-4.2-4.9s1.6-5.3,4.4-5.6h1.5v-.9c0-1.3-.7-2.1-1.9-2.1-1.1,0-2.1.5-2.8,1.2l-.2-3.5c1-.8,2.3-1.2,3.5-1.2,3.3,0,5.5,2.1,5.5,6.2v5.6c0,1.3.6,2,1.4,2.2l-1.6,3.1ZM397.7,228.5h-.9c-.8.2-1.4,1.1-1.4,2.5s.5,1.7,1,1.7,1.3-.7,1.3-1.8v-2.4Z"/>
    <path class="st0" d="M412.4,222.9h-3v7.2c0,1.3.5,2.1,1.4,2.1.4,0,.8-.1,1.1-.4l-.3,3.6c-.7.3-1.4.5-2.1.5-2.6,0-4.3-2.1-4.3-4.9v-8h-1.7v-3.6h1.8v-2.9l4.1-1.6v4.5h3.1l-.2,3.6Z"/>
    <path class="st0" d="M416.6,217.1c-.7,0-2.1-1.6-2.1-2.5s1.4-2.5,2.1-2.5,2.1,1.7,2.1,2.5-1.4,2.5-2.1,2.5ZM414.5,235.7v-16.3h4.2v16.3h-4.2Z"/>
    <path class="st0" d="M427,236c-3.7,0-6-3.5-6-8.5s2.3-8.5,6-8.5,6,3.5,6,8.5-2.3,8.5-6,8.5ZM427.1,222.7c-1,0-1.8,2-1.8,4.8s.8,4.8,1.8,4.8,1.7-2,1.7-4.8-.8-4.8-1.7-4.8h0Z"/>
    <path class="st0" d="M441.9,235.7v-10.9c0-1.3-.5-2.1-1.3-2.1s-1.4.8-1.4,2.2v10.7h-4.1v-16.3h3.6v1.4c.7-1.1,1.9-1.8,3.2-1.7,2.7,0,4.2,2,4.2,5v11.6h-4.2Z"/>
    <path class="st0" d="M451.5,236c-1.2,0-2.3-.4-3.2-1.1l-.3-4c.7.9,1.8,1.5,3,1.5.6,0,1.2-.4,1.3-1,0,0,0,0,0-.1,0-.9-.5-1.7-1.2-2.3-1.7-1.7-2.7-3.5-2.7-5.3,0-2.9,1.8-4.7,4.5-4.7.9,0,1.8.3,2.6.8l-.2,3.5c-.5-.5-1.2-.8-2-.8-.5,0-1,.4-1,.9,0,0,0,0,0,0,0,.7.3,1.2,1.3,2.3,2,2.1,2.7,3.5,2.7,5.2,0,2.8-1.6,5-4.8,5h0Z"/>
  </g>
  <g id="association">
    <path class="st0" d="M316.4,18.7l-1.1-4h-4.5l-1.1,4h-3.7l5.7-18.4h3l5.7,18.4h-3.9ZM313.5,8.1c-.2-.6-.3-1.2-.4-1.8h0c0,.6-.2,1.2-.4,1.8l-1,3.6h2.9l-1-3.6Z"/>
    <path class="st0" d="M325.9,18.8c-1.5,0-3-.4-4.2-1.3l-.3-3.9c1.1,1.1,2.6,1.7,4.2,1.8,1.3,0,2-.6,2-1.7s-.7-2-2.2-3c-2.4-1.6-3.6-3.3-3.6-5.6s1.9-5,5.1-5c1.2,0,2.4.3,3.5.9l-.3,3.4c-.8-.6-1.8-.9-2.8-1-1.2,0-1.8.6-1.8,1.4s.5,1.5,2.1,2.6c2.3,1.5,3.8,3.4,3.8,5.9s-1.9,5.4-5.6,5.4h0Z"/>
    <path class="st0" d="M338.2,18.8c-1.5,0-3-.4-4.2-1.3l-.3-3.9c1.1,1.1,2.6,1.7,4.2,1.8,1.3,0,2-.6,2-1.7s-.7-2-2.2-3c-2.5-1.6-3.6-3.3-3.6-5.6s1.9-5,5.1-5c1.2,0,2.4.3,3.5.9l-.3,3.4c-.8-.6-1.8-.9-2.8-1-1.2,0-1.8.6-1.8,1.4s.5,1.5,2.1,2.6c2.3,1.5,3.8,3.4,3.8,5.9s-1.9,5.4-5.6,5.4h0Z"/>
    <path class="st0" d="M353.7,18.7c-4.3,0-7.8-3.7-7.8-9.4S349.4,0,353.7,0s7.8,3.7,7.8,9.3c0,5.7-3.6,9.4-7.8,9.4ZM353.7,3.5c-2,0-3.8,2.4-3.8,5.8s1.8,5.8,3.8,5.8,3.8-2.3,3.8-5.8-1.8-5.8-3.8-5.8Z"/>
    <path class="st0" d="M375.3,4.6c-.9-.7-2-1.1-3.2-1-2.6,0-4.4,2.4-4.4,5.9s1.8,5.9,4.5,5.9c1.2,0,2.4-.3,3.3-1l-.3,3.6c-1.1.6-2.4.9-3.7.8-4.1,0-7.9-3.3-7.9-9.3s3.8-9.3,7.9-9.3c1.4,0,2.8.3,4,1l-.3,3.5Z"/>
    <path class="st0" d="M379.1,18.7V.3h4.2v18.4h-4.2Z"/>
    <path class="st0" d="M396.9,18.8l-1.1-4h-4.5l-1.1,4h-3.7l5.7-18.3h2.9l5.6,18.3h-3.9ZM394,8.2c-.2-.6-.3-1.2-.4-1.8h0c0,.6-.2,1.2-.4,1.8l-1,3.6h2.9l-1-3.6Z"/>
    <path class="st0" d="M409,3.6v15.2h-4V3.6h-4.4V.4h12.7v3.3h-4.3Z"/>
    <path class="st0" d="M416,18.8V.4h4v18.4h-4Z"/>
    <path class="st0" d="M431.3,18.8c-4.3,0-7.9-3.7-7.9-9.4s3.6-9.4,7.9-9.4,7.9,3.7,7.9,9.4-3.6,9.4-7.9,9.4ZM431.3,3.5c-2,0-3.9,2.4-3.9,5.9s1.8,5.9,3.9,5.9,3.9-2.4,3.9-5.9-1.9-5.9-3.9-5.9Z"/>
    <path class="st0" d="M453.3,18.9l-5.4-7.4c-.9-1.2-1.8-2.6-2.6-3.8h0c0,1.3,0,2.6,0,3.7v7.3h-3.9V.3h3.1l4.8,6.7c.7,1,1.7,2.4,2.3,3.4h0c0-1.1,0-2.3,0-3.4V.3h3.9v18.5h-2.2Z"/>
  </g>
  <g id="junior">
    <path class="st0" d="M428.3,94.3v77.6c0,1.1-.9,2-2,2H105.5c-.6,3.3-1.6,6.5-3,9.5-1.6,3.7-5,7.3-6.9,8.9h346c10.6,0,13.9-4.5,13.9-14.6v-83.5h-27.2Z"/>
    <path class="st0" d="M35.1.4c-7.9,0-10.7,2.9-10.7,10v3.3c0,.3,0,.6,0,.9v101.9h27.4V20.7c0-1,.7-1.9,1.7-1.9,0,0,.1,0,.2,0h202.8V.4H35.1Z"/>
    <path class="st0" d="M423.4,34.4c-2.6.6-5,1.8-7.1,3.3-.9.7-2.2.6-2.9-.3-.3-.4-.5-.8-.5-1.3v-2.2h-27.4v124.4h27.4V57.1c0-2.5.7-4.5,2-5.8,1.3-1.3,3.2-1.9,5.6-1.9,4.8,0,7.6,2.9,7.6,7.9v25.9h27.4v-33.8c0-4.5-1.9-8.3-5.7-11.5-3.9-3.2-9-4.9-15.2-4.9-3.8,0-7.5.4-11.2,1.4h0Z"/>
    <path class="st0" d="M315.9,39.2h0c-6.7,4.1-9.9,10.4-9.9,19.2v75.4c0,9,3.3,15.3,9.9,19.4,5.7,3.5,14.1,5.3,24.8,5.3s18.7-1.6,24.1-4.8c6.5-3.8,9.7-9.9,9.7-18.8V57.3c0-7.6-3.1-13.3-9.4-17.3-6.5-4.1-14.8-6.3-24.4-6.3-10.5,0-18.9,1.8-24.8,5.5ZM332.8,134.7V57.6c0-2.6.7-4.7,2.2-6.1,1.4-1.4,3.3-2.2,5.3-2.1,2.1-.1,4.1.7,5.6,2.2,1.2,1.4,1.9,3.4,1.9,6v77.2c0,2.5-.6,4.6-1.8,6-3,3.1-7.9,3.2-11,.3,0,0-.2-.2-.3-.3-1.2-1.5-1.8-3.5-1.8-6h0Z"/>
    <path class="st0" d="M267.5.4h27.4v18.4h-27.4V.4Z"/>
    <path class="st0" d="M267.5,34v124.5h27.4V34h-27.4Z"/>
    <path class="st0" d="M224.3,34.4h0c-3.1.9-5.5,2-7.1,3.3-.9.7-2.2.6-2.9-.3-.3-.4-.5-.8-.5-1.3v-2.1h-27.4v124.5h27.4V57.1c0-2.5.7-4.5,2-5.8,1.3-1.3,3.2-2,5.6-2,4.8,0,7.6,2.9,7.6,7.9v101.3h27.4V49.3c0-4.5-1.9-8.3-5.7-11.5-3.9-3.2-9-4.9-15.2-4.9-3.8,0-7.5.4-11.2,1.4h0Z"/>
    <path class="st0" d="M148,34v102.7c.1,2-.6,4.1-1.9,5.6-1.3,1.4-3.2,2.1-5.6,2.1-4.8,0-7.6-2.9-7.6-7.9V34h-27.4v110.4c0,4.4,1.9,8,5.7,11.1,3.9,3.2,9.1,4.8,15.2,4.8,3.8,0,7.6-.5,11.3-1.7,3.1-1.1,5.4-2.4,6.9-3.8.8-.8,2.1-.8,2.9,0,.4.4.6.9.6,1.4v2.3h27.4V34h-27.4Z"/>
    <path class="st0" d="M66.8,168.1c0,2.1-.7,4.1-2.1,5.6-1.3,1.4-3.2,2.1-5.7,2.1-4.9,0-7.5-2.8-7.5-7.9v-40.4h-27.2v38.4c0,6.8,2.7,13.9,8.3,18.3,6.6,5.3,12,7.9,26.5,7.9s21-2.2,27.9-7.9c6.2-5.2,7.4-13.4,7.4-22.2V34h-27.5v134.1Z"/>
  </g>
</svg>