<?xml version="1.0" encoding="UTF-8"?>
<svg id="Calque_1" xmlns="http://www.w3.org/2000/svg" version="1.1" xmlns:xlink="http://www.w3.org/1999/xlink" viewBox="0 0 480 240">
  <!-- Generator: Adobe Illustrator 30.1.0, SVG Export Plug-In . SVG Version: 2.1.1 Build 136)  -->
  <defs>
    <style>
      .st0 {
        fill: #293273;
      }

      .st0, .st1 {
        fill-rule: evenodd;
      }

      .st2 {
        fill: #fff;
      }

      .st3 {
        fill: #c4c4c4;
      }

      .st4 {
        fill: #e10814;
      }

      .st5 {
        fill: #808081;
      }

      .st6 {
        fill: #1e1e1e;
      }
    </style>
    <mask id="mask" x="83.4" y="96.2" width="57" height="20" maskUnits="userSpaceOnUse">
      <g id="mask0">
        <rect class="st3" x="83.4" y="96.2" width="57" height="20"/>
      </g>
    </mask>
    <mask id="mask-1" x="83.4" y="170.2" width="54" height="37" maskUnits="userSpaceOnUse">
      <g id="mask1">
        <rect class="st3" x="83.4" y="170.2" width="54" height="37"/>
      </g>
    </mask>
  </defs>
  <rect class="st2" x="57.7" width="367.2" height="240"/>
  <rect class="st2" x="89.5" y="31.8" width="87.4" height="31.8"/>
  <path class="st0" d="M125.6,59.8c.3-.3.7-.7,1-1.1.6-.7,1.3-1.4,2-2,.2-.2.4-.4.7-.5,0,0,0,0,0-.1,0,0,0,0,0-.1-.2,0-.3.2-.4.2-.1,0-.2.2-.4.2,0,0-.1,0,0-.1l.6-.5s0,0,0,0c0,0,0,0,0-.1-.8-.1-1.4.4-1.9.9h0c0,0-.2,0-.2,0,0,0,0,0,0,0-.5.2-.9.4-1.3.7h0c-.4.3-.7.5-1.2.7h0c-.1,0-.3,0-.4,0-.2,0-.4.2-.6.2-.4,0-.8,0-1.1,0h0c-.1,0-.2,0-.4,0-.7,0-1.5.2-2.2.4h0s0,0,0,0h0c-.4.1-.8.3-1.1.5,0,0,0,0,0,0,0,0,0,0,0,.1-.1.1-.3.3-.4.4-.3.1-.5.3-.7.5,0,0-.2.2-.3.2,0,0,0,0,0,0,0,0-.2.2-.3.3h0s0,0,0,0h0c-.2.2-.4.4-.7.6,0,0-.1,0-.2,0,0,0,0,0,0,0,0,0,.1-.2.2-.3,0,0,.1-.2.2-.3,0-.1.2-.2.3-.4,0,0,0,0,0,0,0,0,0,0,0,0,.3-.3.6-.5,1-.8,0,0,0,0,0,0,0,0,0,0,0,0,0,0,0,0,0,0,0,0,0,0,0,0,0,0,0,0,0,0h0c0,0-.2.1-.3.2,0,0,0,0-.1.1h0c0,.1-.2.2-.3.2,0,0,0,0,0,0,0,0,0,0,0,0h0s0,0,0,0h0s0,0,0,0h0s0,0,0,0h0c0,0,0,0,0-.1h0s0,0,0,0h0c0,0,0,0,0-.1h0s0,0,0,0h0c0,0,0-.1,0-.1h0s0,0,0,0h0s0,0,0,0h0s0,0,0,0c0,0,0,0,0,0,0,0,0,0,0,0,.1-.1.3-.3.4-.4h0c.2,0,.3-.2.5-.3h0s0,0,0,0c0,0,.1,0,.2-.1,0,0,0,0,0,0h0c-.3,0-.7.2-1,.4,0,0,0,0-.1,0,0,0-.1,0-.1,0,0,0,0,0,0,0,0,0,.1-.1.2-.2,0,0,.1,0,.2-.1,0,0,.1,0,.1,0,1.2-.9,2.7-1.1,4.1-1.4.9-.1,1.8-.3,2.6-.6l.5-.4c.2,0,.3-.2.4-.3.1-.1.3-.2.5-.3.5-.3.8-.8,1-1.4,0,0,0,0,0-.1-.8.8-1.7,1.5-2.6,2-.9.5-1.9.5-2.8.6-.4,0-.7,0-1.1.1,0-.1.2-.1.3-.1,0-.1,0-.2.2-.3,0,0,0,0,0,0h.2s0,0,0,0c0,0,0,0,0,0,.1,0,.3,0,.2,0,0-.1-.2,0-.4,0-.1,0-.3.1-.5,0,0,0,0-.1,0-.2,0,0,0-.1,0-.2h.2c0,0,0-.2.1-.2.5-.3,1-.6,1.6-.9.3-.2.7-.4,1-.6,0,0-.1,0-.2,0,0,0-.2,0-.3,0,0,0,0,0,0,0s0,0,0,0c.4-.1.7-.3,1.1-.4.3-.1.5-.2.8-.4,0,0-.2,0-.2,0-.1,0-.3,0-.4,0,0,0,0,0,.1,0,0,0,.1-.1.3-.1v-.2c0,0,0,0,.1,0,0,0,0,0-.1,0,0,0,0,0,.2,0,0,0,.1,0,.2,0,0,0-.2,0-.2,0,.2-.2.5-.3.8-.4,0,0,0,0-.1,0s0,0,0,0,0,0,.1,0h-.1c0,0,0-.1,0-.2h0s0,0,0,0c.2-.3.3-.6.4-.9,0-.2,0-.3.1-.5,0,0-.1,0-.1,0-.6.6-1.5.9-2.4,1.1h0s-.3,0-.3,0c-.3.1-.7.1-1,0-.1,0-.2-.2-.4-.3,0,0-.1-.1-.2-.2-.5-.3-1-.5-1.5-.7-1.5-.5-3.1-.7-4.6-.7.4-.2.9-.3,1.4-.4.2,0,.5-.1.7-.2.1,0,.3,0,.4-.1.9-.3,1.7-.5,2.6-.5-.1,0-.3,0-.4,0,0,0-.1,0-.2,0-.7,0-1.4,0-2.1.3-.2,0-.3,0-.5.1-.3,0-.6.2-.9.2-.3,0-.6.2-.9.2-.1,0-.3.1-.4.2-.2.1-.3.3-.6.2v-.2c.6-.7,1.3-1.4,2.3-1.5.9-.2,1.8,0,2.7,0h0c.2,0,.3,0,.5,0,.8,0,1.5.2,2.3.4.2,0,.3.1.3.3,0,.1.1.2.3.3.1,0,.3,0,.4,0,.2,0,.4,0,.6.2,0,0,0,0,0-.1,0,0,0-.2,0-.2.1-.1.3,0,.4,0,.1,0,.2,0,.3,0,.3-.2,0-.5-.3-.8-.1-.1-.3-.3-.4-.4,0,0,0,0,0-.1.1.1.3.3.4.4.3.3.6.6,1,.8.3.1,1,.3.9,0-.2-.5-.6-.9-.9-1.3-.2-.2-.3-.3-.5-.5v-.2c0,0-.1,0-.1,0,0,0,0,0,0,0v-.2c-.2,0-.2-.2-.2-.3,0,0,0-.1,0-.2-.1-.2-.1-.4-.1-.6,0-.2,0-.3,0-.5-.1-.3-.2-.7-.2-1,0-.4-.2-.8-.2-1.2h0c-.1-.6-.2-1.1-.3-1.7,0-.9.3-1.6.8-2.4.1-.2.3-.5.4-.7.4-.7.9-1.4,1.7-1.9.2-.7.7-1.3,1.1-1.9h0c.5-.6,1.3-.9,1.9-1.2.5-.2,1.1-.4,1.6-.6h-41.2v31.8h29.2c.8-.6,1.6-.9,2.5-1.4.4-.2.9-.4,1.3-.6,0,0,.2,0,.3-.2h0s0,0,0,0h0c.8-.4,2.2-1.1,2.7-1.6ZM116.1,55.5c0-.2.3-.3.5-.3,0,0,.2,0,.2,0h0s0,0,0,0h0c.1,0,.3-.1.4,0,0,.1.2.1.2.2,0,0,.1,0,.2,0-.2.2-.5.2-.7.3-.2,0-.4,0-.5.1,0,0,0,0-.1,0-.1,0-.2,0-.2,0ZM109,51c-.5,1.1-1.2,2.1-1.9,3.1,0,0,0,0,0,.1,1.4-1.6,2.8-3,4.6-4.1,0,0,0,0,0,0,0,0,0,.1,0,0,.6-.1.9-.7,1.2-1.2,0-.1.1-.3.2-.4.3-.5.7-.7,1.1-1,.3-.2.6-.4.8-.7,0,0,0,.1,0,.2,0,0,.1,0,.2,0,.1,0,.2-.1.3-.1.1,0,.3,0,.4-.2-.5-.2-1-.2-1.6,0-1.3.6-2.3,1.6-3.4,2.6-.6.6-1.3,1.3-2,1.7ZM112,50.5c0,.1-.1.2-.2.2,0,0-.1,0-.1,0,0-.3.2-.5.5-.5,0,0,0,0,0,.1,0,0,0,0,0,.1,0,0,0,0,0,.1ZM114.9,59.5s0,0,0,0c0,0,.1-.1.1-.2,0-.1-.3,0-.3,0,0,0,0,0-.1.1,0,0-.2.2-.2.2,0,0-.1.1-.2.2,0,0-.2.2-.3.2-.1,0,.2.1.3,0,0,0,.2-.1.2-.2,0,0,0,0,0,0,.2,0,.3-.2.5-.3ZM113.9,58.8h0c-.2.2-.4.3-.6.5-.2.1-.4.2-.6.3,0,0-.1,0-.2,0,0,0,0,0,0,0,0,0,0,0-.1,0-.2.1-.4.3-.6.5,0,0,0,0,0,0,0,0,0,0,0,0h0s0,0,0,0h0s0,0-.1.1c0,0,0,0,0,0,0,0-.1,0-.1,0h0s0,0,0,0c0,0,0,0-.1,0,0,0,0,0,0,0h0s0,0,0,0c0,0,0,0,0,0,0,0-.1.1-.2.2-.1.1-.2.2-.3.4h0s0,0,0,0c0,0,0,0,0,0h0s0,0,0,0h0s0,0,0,0c0,0,0,0,0,0h0s0,0,0,0h0s0,0,0,0c0,0,0,0,0,0h0s0,0,0,0h0c0,0,.1-.2.2-.2h0s0,0,0,0h.1c0-.1,0-.1,0-.2h0c0-.1.1-.2.2-.3h0s0,0,0,0c0,0,0,0,0,0,0,0,0,0,0-.1,0,0,0,0,0-.1h0s0,0,0,0c0,0,0,0,0,0,0,0,0,0,0,0,0,0,0,0,0-.1h0s0,0,0,0c0,0,0,0,0,0,0,0,0,0,0,0,0,0,0,0,0,0h0s0,0,0,0c0,0,0,0,0,0,0-.1.1-.2.2-.3,0,0,0,0,0,0h0s0,0,0,0c0,0,0,0-.1.1,0,0,0,0,0,0,0,0-.2,0-.1,0,0,0,0,0,.1-.1.1-.1.2-.2.3-.3h0c0,0,.1,0,.2-.1,0,0,0,0,0,0h0c0,0,0-.1.1-.2h0s0,0,0,0c.4-.3.8-.5,1.4-.6.3,0,.6-.2.9-.3.2,0,.4,0,.5,0,.1,0,.3,0,.4,0,.2,0,.4,0,.5.1-.4.2-.8.5-1.2.7-.1,0-.2.1-.3.2h0ZM114.9,54.4h.5c0,0-.1,0-.2,0,0,0,0,0,0,0,.2.2.5.1.8,0,.2-.1.4-.1.6-.1,0,0,0-.1,0-.2.2,0,.3,0,.5,0,1.4-.3,2.8-.6,4.1-1.3-1.3-1-3-1.5-4.6-1.9h0c-.3,0-.6-.2-.8-.2,0,0,.1,0,.2,0,.1,0,.2,0,.4,0-.2-.1-.3-.2-.5-.2-.2,0-.3,0-.4-.1,0,0,0,0,0,0,0,0,.1,0,.2,0-.3-.2-.6-.2-1-.3h0c-.2,0-.3,0-.5,0,.3,0,.5-.3.5-.6,0,0-.1,0-.2,0-.7.4-1.2,1-1.5,1.8.3.2.6.1.8.1.2,0,.3,0,.5,0-.1.1-.3.2-.5.2,0,0-.1,0-.2,0-.2,0-.4.2-.3.3,0,0,0,0,.1,0-.1,0-.3.1-.4.2.2.1.3.1.5,0,0,0,.1,0,.2,0,0,0,0,.1.1.1h0s0,0,0,0c-.3,0-.5.3-.6.5,0,.2-.2.3-.3.4h0c0,0-.2.2-.3.2v.2c-.2.2-.4.3-.6.5h0c-.4.3-.8.6-1.1,1.1,0,0,0,0,0,.1,0,0-.1.1-.2.2,0,0-.2.1-.2.2,0,0,0,.1,0,.1.4-.1.7-.3,1-.5.3-.2.6-.4.9-.5.3,0,.5-.2.7-.3.2,0,.4-.2.6-.2.2,0,.3,0,.5-.1h0c.2,0,.3,0,.5-.1,0,0,0,.1,0,.1ZM117.6,59.7s0,0,0,0h0c0,0,.2-.1.2-.2,0,0,0,0,0,0,0,0,0,0,0,0,0,0-.2.2-.2.3ZM129.3,55.8h-.1c0,0,.1,0,.1,0Z"/>
  <path class="st4" d="M176.9,31.8h-34.2c.1,0,.2,0,.3.2.3.1.6.3.9.5.5.2.9.5,1.1,1,.1.2.3.5.2.8-.1.3-.2.8-.5.9-.4.2-.8.2-1.3.1-.2,0-.5,0-.7-.1.9.4,1.7.8,2.3,1.6,0,.1.3.2.5.2s0,.1,0,.2c-.1.1-.2.2-.2.4h.2c.3-.1.2-.7.7-.5.3.2.4.6.2.9-.2.2-.5.4-.7.6,0,.1,0,.3,0,.4.2.2.3.5.3.7.2.4.2.9.4,1.3.2.9.5,1.8.4,2.7,0,.5-.2.9,0,1.4.1.5.4.8.7,1.3.2.4.5.6.7,1,.4.6,1,1.2.7,1.9-.2.4-.8.4-1.3.6-.4.3,0,.8.1,1.1.3.5-.4.9-.8,1.1.1.2.4.1.4.2,0,.3.4.5.2.8-.2.4-1,.5-.6,1.1.2.4,0,.9,0,1.3-.2.5-.7.8-1.1.9-.4.1-.8.1-1.1,0-.1,0-.2-.1-.4-.1-1-.1-2-.4-3.1-.4-.3,0-.6.1-.8.2-.3.2-.5.4-.7.6h0c0,0,0,.1-.1.2,0,0,0,0,0,0,0,0,0,0,0,0-.2.2-.3.5-.5.7,0,0,0,0,0,0,0,0,0,0,0,0-.2.4-.3.7-.5,1.1-.4,1.4-.2,2.6,0,2.8,0,0,2,.7,3.3,1.3.5.2,1,.4,1.4.7h33.6v-31.8Z"/>
  <path class="st5" d="M144.7,43.4c.2,0,.6,0,.6.2-.1.5-.8.6-1.2,1.1h-.2c-.2.1-.1.4-.3.4-.2,0-.4,0-.5,0,.2.2.5.4.9.4.1,0,.2.1.2.2,0,0,0,0,.1,0,0,0,.1,0,.1,0v.2c-.2.2-.5.1-.7.2.5.1.9.1,1.4,0,.4-.1,0-.7.2-1-.1,0,0-.2-.1-.2.1-.1.2-.3.4-.4.1,0,.3,0,.4-.2,0-.1-.2-.2-.2-.3.4-.2.7-.6.5-1,0-.2-.5-.2-.8-.3-.3-.1-.7,0-1,0-.3,0-.6.2-.9.2-.4.1-.8.3-1.1.6.4-.2.9-.3,1.3-.4.4,0,.7,0,1,0Z"/>
  <path class="st6" d="M89.6,103.3h4.5v-9h2.8c4.9,0,7.9-2.5,7.9-6.6s-3-6.6-7.9-6.6h-7.3v22.3ZM97.1,84.8c1.9,0,3.1,1.1,3.1,2.8s-1.1,2.9-3.1,2.9h-3v-5.8h3ZM109,103.3h4.5v-9h2.3l5.9,9h5.3l-7-9.9c2.3-1,3.6-3.1,3.6-5.8,0-4.1-3-6.6-7.9-6.6h-6.8v22.3ZM116,84.8c1.9,0,3,1.1,3,2.8s-1.1,2.9-3,2.9h-2.5v-5.8h2.5ZM138.9,79.2l4.1-4.3h-4.6l-3.6,4.3h4.1ZM130.4,103.3h13v-3.8h-8.5v-5.7h7.2v-3.8h-7.2v-5.3h8.5v-3.8h-13v22.3ZM149.1,103.3h4.5v-9.5h7.2v-3.8h-7.2v-5.3h8.5v-3.8h-13v22.3ZM166.5,103.3h13v-3.8h-8.5v-5.7h7.2v-3.8h-7.2v-5.3h8.5v-3.8h-13v22.3ZM183.4,85.2h6.9v18.2h4.5v-18.2h6.9v-4.1h-18.2v4.1ZM89.6,136.7h8.7c7.1,0,11.8-5.1,11.8-11.1s-4.8-11.1-11.8-11.1h-8.7v22.3ZM98.4,118.5c4.1,0,7.1,3.1,7.1,7s-3,7-7.1,7h-4.3v-14.1h4.3ZM128.1,128.4c0,3-1.7,4.7-4.5,4.7s-4.5-1.7-4.5-4.7v-13.9h-4.5v13.5c0,5.8,3.4,9.3,9,9.3s9-3.5,9-9.3v-13.5h-4.5v13.9ZM147.4,136.7h4.5v-9h2.8c4.9,0,7.9-2.5,7.9-6.6s-3-6.6-7.9-6.6h-7.3v22.3ZM154.9,118.2c1.9,0,3.1,1.1,3.1,2.8s-1.1,2.9-3.1,2.9h-3v-5.8h3ZM162.1,136.7h4.8l2.1-5.8h8.9l2.1,5.8h4.8l-8.4-22.3h-5.9l-8.4,22.3ZM170.5,127.1l3.1-8.4,3.1,8.4h-6.1ZM186.8,133.6c2,2.4,4.5,3.7,8.2,3.7s7.3-2.5,7.4-6.7c0-7.6-10.1-6.5-10.1-10.5s1-2.4,2.6-2.4,3.1,1.1,4.5,2.8l3.3-3c-1.9-2.3-4.5-3.8-7.8-3.8s-7.2,2.9-7.2,6.5c0,7.5,10.1,6.4,10.1,10.5s-1.1,2.5-2.9,2.5-3.6-1-4.9-2.7l-3.3,3ZM205,126.6v3.9h8.6v-3.9h-8.6ZM217.6,136.7h8.7c7.1,0,11.8-5.1,11.8-11.1s-4.8-11.1-11.8-11.1h-8.7v22.3ZM226.4,118.5c4.1,0,7.1,3.1,7.1,7s-3,7-7.1,7h-4.3v-14.1h4.3ZM243,136.7h13v-3.8h-8.5v-5.7h7.2v-3.8h-7.2v-5.3h8.5v-3.8h-13v22.3ZM259,126.6v3.9h8.6v-3.9h-8.6ZM282.2,133.1c-4.2,0-7.2-3.3-7.2-7.5s3-7.5,7.2-7.5,4.5,1.2,5.8,3.1l3.6-2.8c-2-2.7-5.3-4.5-9.4-4.5-7,0-11.8,5.4-11.8,11.8s4.8,11.8,11.8,11.8,7.3-1.8,9.4-4.5l-3.6-2.7c-1.3,1.8-3.3,3.1-5.8,3.1ZM293,136.7h4.8l2.1-5.8h8.9l2.1,5.8h4.8l-8.4-22.3h-5.9l-8.4,22.3ZM301.4,127.1l3.1-8.4,3.1,8.4h-6.1ZM319.7,136.7h13v-4.1h-8.5v-18.2h-4.5v22.3ZM335.3,136.7h4.8l2.1-5.8h8.9l2.1,5.8h4.8l-8.4-22.3h-5.9l-8.4,22.3ZM343.6,127.1l3.1-8.4,3.1,8.4h-6.1ZM362,136.7h4.5v-22.3h-4.5v22.3ZM371.2,133.6c2,2.4,4.5,3.7,8.2,3.7s7.3-2.5,7.4-6.7c0-7.6-10.1-6.5-10.1-10.5s1-2.4,2.6-2.4,3.1,1.1,4.5,2.8l3.3-3c-1.9-2.3-4.5-3.8-7.8-3.8s-7.2,2.9-7.2,6.5c0,7.5,10.1,6.4,10.1,10.5s-1.1,2.5-2.9,2.5-3.6-1-4.9-2.7l-3.3,3Z"/>
  <path class="st1" d="M172,193.4l-3,2.7h-.8l1.7-3.1h2v.4ZM169.9,203.9h-.6c-.8,1-1.7,1.7-2.5,1.7s-1.3-.5-1.3-1.7,0-1,.2-1.4l5.2-1.7c1-2.4-.2-3.5-1.6-3.5-2.4,0-5.2,4.3-5.2,7.7s.8,2.5,2,2.5c1.4,0,2.9-1.4,4.1-3.6ZM168.1,198.7c.7,0,1.3.5,1,1.8l-3.2.9c.5-1.5,1.5-2.6,2.2-2.6ZM158,198.7h1.7l-2.7,7.5c-.3.6,0,1.3.8,1.3,1.9,0,4.3-1.7,5.1-4h-.5c-.7,1-2.2,2.1-3.4,2.3l2.5-7h2.6l.3-1.1h-2.5l1-2.7h-1l-1.8,2.7-2.1.3v.8ZM155.6,197.3c.3,0,.8.4.6,1.1l-3.1,7.5c.8-.1,1.6-.9,2.1-1.6h.5c-.7,1.9-2.4,3.2-3.8,3.2s-.9-.4-.6-1.1l2.9-7.5c-.8.1-1.6.9-2.1,1.6h-.5c.7-1.9,2.5-3.2,4-3.2ZM156.5,195.4c.6,0,1.2-.5,1.2-1.2s-.5-1.2-1.2-1.2-1.2.5-1.2,1.2.5,1.2,1.2,1.2ZM142.6,201.6c.7-1.5.4-2.2,0-2.2s-.8.4-1.3,1.2h-.5c.7-1.6,1.7-3.2,2.7-3.2s1.2.9,1.2,1.9v1.4c.1-.2.3-.3.4-.5h0c1.3-1.6,2.4-2.8,3.6-2.8s1.4.6,1.4,1.4-.2,1.1-.5,1.8l-2.6,5.3c.8-.1,1.6-.9,2.1-1.6h.5c-.7,1.9-2.5,3.2-4,3.2s-1-.7-.8-1.3l3.1-5.9c.3-.7.4-1.1-.1-1.1s-2.4,1.2-3.4,2.3l-2,5.3c-.2.5-.4.7-1,.7-.8,0-1.2-.5-.9-1.4l2-4.5ZM140.6,199.6c.3-1.2.2-2.3-.8-2.3s-1.5.8-2.6,3.1v.2c0,0,0-1.4,0-1.4,0-1-.3-1.9-1.2-1.9s-2,1.6-2.7,3.2h.5c.5-.7,1-1.2,1.4-1.2s.7.7,0,2.2l-2,4.5c-.4.9,0,1.4.9,1.4s.7-.1,1-.7l2-5.3c.6-.7,1.1-1.3,1.7-2h2.1ZM130.5,200.5c.3-1.2-.3-1.8-1-1.8s-1.7,1.1-2.2,2.6l3.2-.9ZM131.3,203.9h-.6c-.8,1-1.7,1.7-2.5,1.7s-1.3-.5-1.3-1.7,0-1,.2-1.4l5.2-1.7c1-2.4-.2-3.5-1.6-3.5-2.4,0-5.2,4.3-5.2,7.7s.8,2.5,2,2.5c1.4,0,2.9-1.4,4.1-3.6ZM121.1,198.7h-1.7v-.8l2.1-.3,1.8-2.7h1l-1,2.7h2.5l-.3,1.1h-2.6l-2.5,7c1.1-.2,2.7-1.3,3.4-2.3h.5c-.9,2.4-3.2,4-5.1,4s-1-.6-.8-1.3l2.7-7.5ZM110.3,204.6c0-2.3,2.6-5.4,4-5.4s.6,0,.9.1l-1.5,4c-.9,1-2.2,2.3-2.8,2.3s-.6-.3-.6-1ZM117.4,196.8h.8c0,0-2.8,6.4-2.8,6.4-.7,1.5-.4,2.2,0,2.2s.9-.4,1.4-1.2h.5c-.7,1.6-1.7,3.2-2.7,3.2s-1.4-1-1.3-2.7v-.6c0,0-.1.2-.1.2-1.1,1.6-2.2,3-3.2,3s-1.4-.6-1.4-1.4c0-3.7,4-8.4,7.8-8.4h.2l.9-.9ZM110.2,199.6c.3-1.2.2-2.3-.8-2.3s-1.5.8-2.6,3.1v.2c0,0,0-1.4,0-1.4,0-1-.3-1.9-1.2-1.9s-2,1.6-2.7,3.2h.5c.5-.7,1-1.2,1.3-1.2s.7.7,0,2.2l-2,4.5c-.4.9,0,1.4.9,1.4s.7-.1,1-.7l2-5.3c.6-.7,1.1-1.3,1.7-2h2.1ZM97.1,206.6l-.2.6h-7.4l.2-.6c2.3-.4,2.7-.6,3.6-3.2l2.1-5.5c.9-2.6.7-2.8-1.3-3.2l.2-.6h9.6l-.6,3.1h-.7c0-1.8-.2-2.3-1.9-2.3h-.4c-1.7,0-1.9.3-2.4,1.6l-1.4,3.7h2c1.3,0,1.8-.8,2.4-1.9h.7l-1.7,4.5h-.7c.2-1.4.2-1.9-1.1-1.9h-2l-.9,2.5c-1,2.6-.7,2.7,1.7,3.2,0,0,0,0,.2,0Z"/>
  <path class="st1" d="M103.3,169.1l-3,2.1h0s-.8,0-.8,0l1.7-2.5h2v.4ZM124,184l4.7-12.6-.2-.2-3.3.4v.4l.6.5c.5.4.4.8,0,2v.2c0,0-3.7,9.7-3.7,9.7-.3.6,0,1.3.8,1.3,1.5,0,3.1-1.4,3.8-3.2h-.5c-.5.7-1.5,1.5-2.3,1.6ZM145.7,174.3l3-2.7v-.4h-2l-1.7,3.1h.8ZM145.9,182.1h.6c-1.2,2.3-2.6,3.6-4,3.6s-2-.9-2-2.5c0-3.4,2.8-7.7,5.2-7.7s2.6,1,1.6,3.5l-5.2,1.7c0,.4-.2,1-.2,1.4,0,1.2.4,1.7,1.3,1.7s1.7-.8,2.5-1.7ZM145.8,178.6c.3-1.2-.3-1.7-1-1.7s-1.7,1.1-2.2,2.6l3.2-.9ZM136.4,176.9h-1.7v-.8l2.1-.3,1.8-2.7h1l-1,2.7h2.5l-.3,1.1h-2.6l-2.5,7c1.1-.2,2.7-1.3,3.4-2.3h.5c-.9,2.4-3.2,4-5.1,4s-1-.6-.8-1.3l2.7-7.5ZM132.9,176.6c.2-.7-.3-1.1-.6-1.1-1.5,0-3.3,1.4-4,3.2h.5c.5-.7,1.3-1.5,2.1-1.6l-2.9,7.5c-.3.7.3,1.1.6,1.1,1.4,0,3.1-1.4,3.8-3.2h-.5c-.5.7-1.3,1.5-2.1,1.6l3.1-7.5ZM134.4,172.4c0,.6-.5,1.2-1.2,1.2s-1.2-.5-1.2-1.2.5-1.2,1.2-1.2,1.2.5,1.2,1.2ZM118.3,177.3c-1.4,0-4,3.1-4,5.4s.2,1,.6,1c.6,0,1.9-1.3,2.8-2.3l1.5-4c-.3,0-.6-.1-.9-.1ZM122.2,175.1h-.8c0,0-.9.8-.9.8h-.2c-3.8,0-7.8,4.7-7.8,8.4s.5,1.4,1.4,1.4,2.1-1.4,3.2-3l.2-.2v.6c-.2,1.7.3,2.7,1.2,2.7s2-1.6,2.7-3.2h-.5c-.5.7-1,1.2-1.4,1.2s-.7-.7,0-2.2l2.8-6.4ZM106.2,185.4c-1.4.5-2.3,1.2-2.3,2.2s.9,1.3,2.6,1.3,3.7-.7,3.7-1.6-.5-.6-2-1.1c-.9-.3-1.6-.5-2-.8ZM107.8,181.4c-.6,0-.9-.5-.9-1.1,0-1.8.9-4.1,2.3-4.1s.9.5.9,1.1c0,1.9-.9,4.1-2.3,4.1ZM109,184.4c1.7.5,2.8,1,2.8,2.2s-2.9,3.4-6.3,3.4c-2,0-3.7-.5-3.7-1.8s1.1-2.3,3.9-3.1c-.4-.3-.5-.6-.5-1,0-.8.7-1.4,1.9-1.9-1.2-.2-1.9-1-1.9-2.4,0-2,1.7-4.3,4.3-4.3s1,.1,1.4.4h2.9l-.3,1.1h-1.7c0,.3.2.6.2,1,0,1.9-1.6,4.2-4,4.3-.6.3-1,.8-1,1.2s.5.6,1.7.9h0c.2,0,.3,0,.5.1ZM98.9,179c1.2,0,1.3.5,1.1,1.9h.7l1.7-4.5h-.7c-.6,1.1-1.1,1.9-2.4,1.9h-2.7l1.3-3.7c.5-1.3.7-1.6,2.4-1.6h1.2c1.7,0,1.9.5,1.9,2.3h.7l.6-3.1h-10.4l-.2.6c2,.4,2.2.6,1.3,3.2l-2.1,5.6c-1,2.6-1.3,2.8-3.7,3.2l-.2.6h11.5l2.1-3.3h-.8c-1.3,1.3-2.7,2.5-5.3,2.5s-2.8-.1-2-2.5c0-.2.1-.3.2-.5l1-2.5h2.8Z"/>
  <path class="st1" d="M108.4,151.8c.6,0,1.2-.5,1.2-1.2s-.5-1.2-1.2-1.2-1.2.5-1.2,1.2.5,1.2,1.2,1.2ZM111.2,163.8c2.5,0,6.6-4.5,6.6-8.1s-.4-2.1-1.5-2.1-2.6,1.4-3.8,3.1l2.7-7.2-.2-.2-3.3.4v.4l.6.5c.6.4.4.9,0,2.1h0c0,.1-2.9,7.7-2.9,7.7-.3.6-.5,1.4-.5,1.6,0,.9,1.2,1.7,2.3,1.7ZM145.4,152.5l3-2.7v-.4h-2l-1.7,3.1h.8ZM145.6,160.2h.6c-1.2,2.3-2.7,3.6-4.1,3.6-1.2,0-2-.9-2-2.5,0-3.4,2.8-7.7,5.2-7.7s2.6,1,1.6,3.5l-5.2,1.7c0,.4-.2,1-.2,1.4,0,1.2.4,1.7,1.3,1.7s1.7-.8,2.5-1.7ZM145.4,156.8c.3-1.2-.3-1.7-1-1.7s-1.7,1.1-2.2,2.6l3.2-.9ZM136,155.1h-1.7v-.8l2.1-.3,1.8-2.7h1l-1,2.7h2.5l-.3,1.1h-2.6l-2.5,7c1.1-.2,2.7-1.3,3.4-2.3h.5c-.9,2.4-3.2,4-5.1,4s-1-.6-.8-1.3l2.7-7.5ZM133.4,156c.3-1.2.2-2.3-.8-2.3s-1.5.8-2.6,3.1v.2c0,0,0-1.4,0-1.4,0-1-.3-1.9-1.2-1.9s-2,1.6-2.7,3.2h.5c.5-.7,1-1.2,1.3-1.2s.7.7,0,2.2l-2,4.5c-.4.9,0,1.4.9,1.4s.7-.1,1-.7l2-5.3c.6-.7,1.1-1.3,1.7-2h2.1ZM123.3,156.8c.3-1.2-.3-1.7-1-1.7s-1.7,1.1-2.2,2.6l3.2-.9ZM124.1,160.2h-.6c-.8,1-1.7,1.7-2.5,1.7s-1.3-.5-1.3-1.7,0-1,.2-1.4l5.2-1.7c1-2.4-.2-3.5-1.6-3.5-2.4,0-5.2,4.3-5.2,7.7s.8,2.5,2,2.5c1.4,0,2.9-1.3,4.1-3.6ZM110.8,161.5c0,.4.7.9,1.2.9,2.1,0,4-3.7,4-5.8,0-.7-.3-1-.8-1-.8,0-2.2,1.1-3.1,2.2l-.8,2.2c-.3.7-.5,1.3-.5,1.4ZM107.4,153.7c.4,0,.8.4.6,1.1l-3.1,7.5c.8-.1,1.6-.9,2.1-1.6h.5c-.7,1.9-2.4,3.2-3.8,3.2s-.9-.4-.6-1.1l2.9-7.5c-.8.1-1.6.9-2.1,1.6h-.5c.7-1.9,2.5-3.2,4-3.2ZM94.3,150.4h6.8l-.2.6c-2.3.4-2.7.6-3.7,3.2l-2,5.6c-1,2.7-.7,3,1,3s3.6-1.6,4.8-2.9c0-.1.2-.2.3-.3h.8l-2.3,4h-10.4l.2-.6c2.3-.4,2.7-.6,3.6-3.2l2.1-5.6c.9-2.6.7-2.8-1.3-3.2l.2-.6Z"/>
</svg>