<?xml version="1.0" encoding="utf-8"?>
<!-- Generator: Adobe Illustrator 30.2.1, SVG Export Plug-In . SVG Version: 9.03 Build 0)  -->
<svg version="1.0" id="Calque_1" xmlns="http://www.w3.org/2000/svg" xmlns:xlink="http://www.w3.org/1999/xlink" x="0px" y="0px"
	 viewBox="0 0 1581 441" style="enable-background:new 0 0 1581 441;" xml:space="preserve">
<style type="text/css">
	.st0{fill:#FFFFFF;}
</style>
<g transform="translate(0.000000,441.000000) scale(0.100000,-0.100000)">
	<path class="st0" d="M0,2205C0,1192.8,2.5,365,5.8,365c5,0,685.1,126,768.5,142.7l43.4,8.3V1192V1867h258.7h258.7v123.5
		c0,67.6,2.5,243.7,5.8,392.2l5,268.7h-263.7H817.8v296.2v296.2h304.6c167.7,0,304.6,1.7,304.6,4.2c0,9.2,66.8,721.8,70.9,757.7
		l5,39.2H751H0V2205z"/>
	<path class="st0" d="M12482,3937.4l-665.9-55.1V2220V557.8l27.5-4.2c24.2-4.2,1313.5-97.6,1339.3-96.8c7.5,0,10,88.5,10,413.1
		v413.1h-283.7h-283.7v300.4v300.4h242h242v358.8v358.8h-250.3h-250.3v237.8V3077l19.2,3.3c10,2.5,95.1,5.8,189.4,9.2
		c94.3,2.5,217,6.7,273.7,10l101.8,5v444.8v445.6l-22.5-0.8C13157,3993.3,12847.5,3968.2,12482,3937.4z"/>
	<path class="st0" d="M8207,3822.2c8.3-83.4,103.5-1341,101.8-1342.7c-0.8-1.7-123.5,299.6-272.9,669.2
		c-148.5,369.7-273.7,675.9-277,681.8c-5,9.2-235.3-33.4-613.3-113.5l-35.9-7.5V2275.1V840.6H7481h371.3l-4.2,60.1
		c-8.3,111.8-39.2,1036.4-35.9,1073.1c2.5,32.5,27.5-24.2,264.5-596.6c143.5-348,265.4-635.9,268.7-640.9c5-5,121,2.5,317.9,19.2
		c171.1,15,311.3,28.4,311.3,29.2c0.8,0.8-3.3,602.5-9.2,1336.8c-5.8,734.3-10.8,1427.8-10.8,1542.1l-0.8,206.1h-375.5H8202
		L8207,3822.2z"/>
	<path class="st0" d="M2332.3,3818.9c-499-33.4-773.6-374.7-860.3-1067.3c-17.5-143.5-25-630.9-12.5-801.1
		c41.7-552.4,191.1-911.2,456.5-1094c142.7-97.6,357.2-150.2,569.1-137.7c241.2,13.4,405.6,81.8,553.3,229.5
		c121,121,186.9,234.5,250.3,428.1c88.5,270.4,128.5,674.2,108.5,1094.8c-22.5,470.6-93.5,763.5-239.5,988
		c-139.4,213.6-359.7,341.3-616.7,357.2c-40.9,2.5-84.3,5-96,6.7C2433.3,3823.9,2383.2,3822.2,2332.3,3818.9z M2450,3163
		c60.9-65.9,86.8-328.8,86.8-891.2c0-692.6-43.4-980.5-138.5-918.7c-40.9,27.5-71.8,161.9-86.8,384.7
		c-10.8,162.7-10.8,907.9,0,1063.9c15.9,220.3,44.2,342.1,86.8,371.3C2421.6,3189.7,2425.8,3188.8,2450,3163z"/>
	<path class="st0" d="M3504.8,2301.8V782.2h383H4270l5,106c3.3,59.2,10,251.2,15,428.1s11.7,332.1,15,344.6
		c4.2,17.5,40.1-95.1,150.2-475.6c80.1-274.5,147.7-502.3,151-505.7c6.7-7.5,789.4,54.2,797.8,62.6c2.5,3.3-84.3,276.2-192.8,608.3
		L5014.3,1953l41.7,36.7c138.5,121,252.8,354.6,285.4,585.8c14.2,101,5,351.3-16.7,443.9c-83.4,363-304.6,645-586.6,750.2
		c-122.7,45.1-112.7,44.2-692.6,47.6l-540.7,3.3V2301.8z M4365.1,3101.2c59.2-29.2,107.6-104.3,133.5-207.8
		c17.5-69.3,15-288.7-4.2-358.8c-35.9-131.8-99.3-208.6-194.4-237.8l-19.2-5V2709v418.1l27.5-5.8
		C4322.5,3118.7,4348.4,3109.6,4365.1,3101.2z"/>
	<path class="st0" d="M5365.6,3423.3v-388h212.8h212.8V1917.1V798.9h400.5h400.5v1051.4v1051.4h217h217v388v388l-18.4,3.3
		c-17.5,4.2-1608.9,131-1631.4,130.2C5368.1,3811.3,5365.6,3727.9,5365.6,3423.3z"/>
	<path class="st0" d="M9129.1,2213.3V698.8h413.1h413.1v1514.6v1514.6h-413.1h-413.1V2213.3z"/>
	<path class="st0" d="M10898.1,3622.8c-452.3-24.2-828.6-44.2-836.1-44.2c-14.2-0.8-15-25-15-393v-392.2h212.8h212.8V1696V598.7
		h404.7h404.7v1143.2v1143.2h225.3h225.3v392.2c0,216.1-2.5,391.4-5.8,391.4C11722.6,3667.8,11350.4,3647.8,10898.1,3622.8z"/>
</g>
</svg>
