<?xml version="1.0" encoding="utf-8"?>
<!-- Generator: Adobe Illustrator 30.2.1, SVG Export Plug-In . SVG Version: 9.03 Build 0)  -->
<svg version="1.0" id="Calque_1" xmlns="http://www.w3.org/2000/svg" xmlns:xlink="http://www.w3.org/1999/xlink" x="0px" y="0px"
	 viewBox="0 0 1581 441" style="enable-background:new 0 0 1581 441;" xml:space="preserve">
<style type="text/css">
	.st0{fill:#1E1E1E;}
</style>
<path id="path204" class="st0" d="M489.6,238.9v61.5c0,41.5-20.5,62-62,62h-37.2c-41.5,0-62-20.5-62-62v-71.1h65.4v64.8
	c0,8.1,3.8,11.9,11.9,11.9h6.2c8.1,0,11.9-3.8,11.9-11.9v-40.1c0-10.5-3.3-15.7-11.4-21.5L355,190.3c-20.5-14.8-26.7-28.6-26.7-52.4
	V84.9c0-41.5,20.5-62,62-62h36.3c41.5,0,62,20.5,62,62v61.1h-65.3V91.1c0-8.1-3.8-11.9-11.9-11.9h-5.3c-8.1,0-11.9,3.8-11.9,11.9
	v31.5c0,10.5,3.3,15.7,11.5,21.5l57.2,42.4C483.4,201.2,489.6,214.1,489.6,238.9 M513.1,85.4h26.2v277.4h66.8V85.4h42.8V25.8H484.2
	L513.1,85.4z M240.9,293.3c0,8.1-3.8,11.9-11.9,11.9h-7.1c-8.1,0-11.9-3.8-11.9-11.9V25.8h-66.8v274.7c0,41.5,20.5,62,62,62h40.5
	c41.5,0,62-20.5,62-62V25.8h-66.8V293.3z M55.6,288c0,8.1-3.8,11.9-11.9,11.9H0v59.6h60.3c41.5,0,62-20.5,62-62V25.8H55.6V288z
	 M1522.8,219.8h54.9v-59.6h-54.9V85.4h57.2V25.8h-124v333.8h125V300h-58.2V219.8z M1368.3,293.3c0,8.1-3.8,11.9-11.9,11.9h-8.6
	c-8.1,0-11.9-3.8-11.9-11.9V92c0-8.1,3.8-11.9,11.9-11.9h7.6c8.1,0,11.9,3.8,11.9,11.9v71.1h65.8V84.9c0-41.5-20.5-62-62-62H1331
	c-41.5,0-62,20.5-62,62v215.6c0,41.5,20.5,62,62,62h41c41.5,0,62-20.5,62-62v-88.2h-65.8V293.3z M1031.3,24.2h4.4v303.6v4.9v27H969
	v-27h-45.1l-25.2,85.5h-71l24.6-75.7c-11.9,11.5-29.5,17.2-53.2,17.2h-94V25.8h94c48.2,0,71.6,23.4,71.6,71.5v188.8l85.3-262H1031.3
	z M803.9,101.6c0-12.9-5.7-18.6-18.6-18.6h-13.4v219.4h13.4c12.9,0,18.6-5.7,18.6-18.6V101.6z M969,177.3l-27.3,95.1H969V177.3z
	 M1179.6,187.3l-41.6-161.5h-75.4h-4.4v333.8h68.2l-1.4-165.4v-15.3l46.2,180.7h75.1V25.7h-66.8V187.3z"/>
</svg>
