<?xml version="1.0" encoding="utf-8"?>
<!-- Generator: Adobe Illustrator 30.2.1, SVG Export Plug-In . SVG Version: 9.03 Build 0)  -->
<svg version="1.0" id="Calque_1" xmlns="http://www.w3.org/2000/svg" xmlns:xlink="http://www.w3.org/1999/xlink" x="0px" y="0px"
	 viewBox="0 0 1581 441" style="enable-background:new 0 0 1581 441;" xml:space="preserve">
<style type="text/css">
	.st0{fill:#FFFFFF;}
</style>
<sodipodi:namedview  bordercolor="#666666" borderopacity="1" gridtolerance="10" guidetolerance="10" objecttolerance="10" pagecolor="#ffffff" showgrid="false">
	</sodipodi:namedview>
<g transform="translate(-49.29 -475.1)">
	<path class="st0" d="M727.9,877.5c1.2-3.2,27.7-84.5,30.5-93.6l1.6-5.3l-10,5.3c-9.5,5-12.8,5.4-61.3,6.1l-51.3,0.7V513.2l51.3,0.7
		c48.2,0.7,51.9,1.1,61.1,6c11.5,6.1,20.2,18.3,23.5,32.8c1.4,5.9,2.5,46,2.6,93.4l0.2,83l4.3-12.7c2.4-7,18.4-56,35.7-109
		l31.4-96.3h64.4v279.1H859l-1.4-21.9l-17.1-0.7c-9.5-0.4-18.1,0.4-19.4,1.7c-1.3,1.3-9.8,26.5-19,56l-16.6,53.7l-29.4,0.6
		C732.8,880.3,727,879.8,727.9,877.5L727.9,877.5z M715.8,739.6c4.4-4.4,4.6-7.7,4.6-87.6s-0.2-83.2-4.6-87.6
		c-3.1-3.1-7.7-4.6-13.8-4.6h-9.2v184.5h9.2C708.1,744.3,712.7,742.7,715.8,739.6z M858.8,679.3c0-21.8-0.5-39-1.2-38.4
		c-1.4,1.4-21.9,72.1-21.9,75.6c0,1.4,5,2.4,11.5,2.4h11.5L858.8,679.3L858.8,679.3z M198,789.6c-10.7-4.1-16.2-8.9-22.2-18.9
		l-5.4-9.2l-0.7-124l-0.7-124h55.5v113.7c0,85.4,0.7,114.4,2.8,116.5c1.5,1.5,5.9,2.8,9.8,2.7c14.7-0.1,13.9,6.7,14.6-118.7
		l0.6-114.3h52.9l-0.1,122.8c0,114.2-0.3,123.5-4.3,132c-9.3,20.2-19.9,24.3-63.1,24C218.6,792.4,202.1,791.2,198,789.6L198,789.6z
		 M356.1,791.2c-14.3-5.6-19.2-9.4-24.9-19c-6.2-10.5-6.3-11.4-6.3-49.9v-39.2l51.9-1.3v27.9c0,15.3,1.1,29.9,2.4,32.4
		c1.7,3.2,4.9,4.5,11.5,4.5c6.6,0,9.7-1.2,11.5-4.5c2.9-5.5,3.2-39.3,0.3-46.9c-1.2-3.1-14.7-14.8-30.8-26.6
		c-47.2-34.6-48.7-37.5-47.4-91.5c0.7-31.4,1.3-35.5,6.2-43.8c10.7-18.1,20.3-21.6,60.3-21.7c25.5-0.1,32.8,0.6,40.5,4.1
		c20.7,9.4,26.4,24.6,26.4,69.6v27.6h-55.2l-0.6-27.1l-0.6-27.1h-20.8l-0.7,21.9c-0.5,15.3,0.2,23.1,2.3,25.6
		c1.6,2,17.3,14.3,34.9,27.2c42,30.9,41.3,29.4,40.3,86.2c-0.8,48.2-2.9,55.3-18.8,65.9c-8.9,5.9-10.7,6.2-44,6.6
		C375.2,792.3,358,791.9,356.1,791.2L356.1,791.2z M499.1,677.4V562h-20.7l-11.6-23c-6.4-12.7-11.6-23.6-11.6-24.2
		c0-0.7,30.6-1.2,68-1.2h68V562h-36.9v230.6h-55.4V677.4L499.1,677.4z M1140.2,791.1c-13.4-4.8-19.2-9.3-24.9-18.9l-6.3-10.7V542.4
		l6.3-10.7c10.2-17.3,16.7-19.3,62-19.3c37.5,0,38.4,0.1,47.5,6.1c15.9,10.5,18,17.7,18.8,65.9l0.7,42.1H1191v-31
		c0-25.1-0.7-31.7-3.6-34.6c-4.3-4.3-17.3-4.8-21.3-0.9c-2.1,2.1-2.8,25.6-2.8,91.8s0.7,89.7,2.8,91.8c1.5,1.5,6.5,2.8,11.1,2.8
		c4.6,0,9.5-1.2,11.1-2.8c1.9-1.9,2.8-13.9,2.8-39.2v-36.4h53l-0.1,45.6c0,39.3-0.6,46.8-4.3,54.8c-9.3,20.2-19.9,24.3-63.1,24
		C1158.5,792.4,1142.1,791.8,1140.2,791.1L1140.2,791.1z M49.3,766.2V742h21.8c19.2,0,22.1-0.5,24.2-4.5c1.5-2.9,2.4-42.9,2.4-114.2
		V513.6h53l-0.1,121.7c0,113.1-0.3,122.3-4.3,130.9c-9.2,19.9-19.9,24-64.3,24.1l-32.9,0.1L49.3,766.2L49.3,766.2z M932.7,652V513.6
		h65.9l15.7,61.7c8.7,33.9,16.6,63.8,17.6,66.3c1,2.5,1.9-25.2,2-61.7l0.1-66.3h55.4v277l-63.4-1.3L989.2,644l-0.6,73.2l-0.6,73.2
		h-55.3V652.1L932.7,652z M1264.8,652V513.6h101.5V562h-46.1v62.3h43.8v50.7h-43.8V742h48.4v48.4h-103.8V652z"/>
</g>
</svg>
