<?xml version="1.0" encoding="UTF-8"?>
<svg id="Calque_1" xmlns="http://www.w3.org/2000/svg" version="1.1" viewBox="0 0 515 74">
  <!-- Generator: Adobe Illustrator 30.2.1, SVG Export Plug-In . SVG Version: 2.1.1 Build 1)  -->
  <defs>
    <style>
      .st0 {
        fill: #fff;
      }
    </style>
  </defs>
  <g id="Valorant_logo">
    <path class="st0" d="M459.1,14.4h18.4v56.5c0,.7.6,1.3,1.4,1.3h10.6c.7,0,1.3-.6,1.3-1.3V14.4c0,0,23,0,23,0,.7,0,1.1-.8.6-1.3l-7.9-9.9c-.7-.8-1.7-1.3-2.7-1.3h-44.7c-.7,0-1.3.6-1.3,1.3v9.9c0,.7.6,1.3,1.3,1.3M14.4,70.9L68.4,3.1c.4-.5,0-1.3-.6-1.3h-13.5c-1.1,0-2.1.5-2.7,1.3L13.2,51.2V3.1c0-.7-.6-1.3-1.3-1.3H1.3C.6,1.8,0,2.4,0,3.1v67.7c0,.7.6,1.3,1.3,1.3h10.3c1.1,0,2.1-.5,2.7-1.3M52.5,70.9l18.6-23.3,18.6,23.3c.7.8,1.7,1.3,2.7,1.3h10.3c.7,0,1.3-.6,1.3-1.3V3.1c0-.7-.6-1.3-1.3-1.3h-8.7c-2.1,0-4.1,1-5.5,2.6l-53,66.4c-.4.5,0,1.3.6,1.3h13.5c1.1,0,2.1-.5,2.7-1.3M90.8,21.4v31.2l-12.5-15.6,12.5-15.6ZM392.6,70.8L338.6,3.1c-.7-.8-1.7-1.3-2.7-1.3h-10.3c-.7,0-1.3.6-1.3,1.3v67.7c0,.7.6,1.3,1.3,1.3h10.3c1.1,0,2.1-.5,2.7-1.3l18.6-23.3,18.6,23.3c.7.8,1.7,1.3,2.7,1.3h13.5c.7,0,1.1-.8.6-1.3M349.9,37l-12.5,15.6v-31.2l12.5,15.6ZM201.1,0c-20.4,0-36.9,16.5-36.9,36.9s16.5,36.9,36.9,36.9,36.9-16.5,36.9-36.9C238,16.6,221.5,0,201.1,0M201.1,61.4c-13.1,0-23.7-10.9-23.7-24.4s10.6-24.4,23.7-24.4,23.7,10.9,23.7,24.4c0,13.5-10.6,24.4-23.7,24.4M435.4,3.1v48L397.1,3.1c-.7-.8-1.7-1.3-2.7-1.3h-10.3c-.7,0-1.3.6-1.3,1.3v32.6c0,.8.3,1.6.8,2.2l11,13.8c.5.6,1.5.3,1.5-.5v-28.4l38.4,48.1c.7.8,1.7,1.3,2.7,1.3h10.3c.7,0,1.3-.6,1.3-1.3V3.1c0-.7-.6-1.3-1.3-1.3h-10.6c-.7,0-1.3.6-1.3,1.3M306.5,17.8V3.1c0-.7-.6-1.3-1.3-1.3h-54c-.7,0-1.3.6-1.3,1.3v67.7c0,.7.6,1.3,1.3,1.3h10.6c.7,0,1.3-.6,1.3-1.3V14.4h30.3l-20.4,25.6c-.4.5-.4,1.2,0,1.7l23.3,29.2c.7.8,1.7,1.3,2.7,1.3h13.5c.7,0,1.1-.8.6-1.3l-24-30.1,16.6-20.8c.5-.6.8-1.4.8-2.2M121.2,72.2h31.3c1.1,0,2.1-.5,2.7-1.3l7.9-9.9c.4-.5,0-1.3-.6-1.3h-29.4V3.1c0-.7-.6-1.3-1.3-1.3h-10.6c-.7,0-1.3.6-1.3,1.3v67.7c0,.7.6,1.3,1.3,1.3"/>
  </g>
</svg>