<?xml version="1.0" encoding="UTF-8"?>
<svg xmlns="http://www.w3.org/2000/svg" version="1.1" xmlns:xlink="http://www.w3.org/1999/xlink" viewBox="0 0 2000 2000">
  <!-- Generator: Adobe Illustrator 30.1.0, SVG Export Plug-In . SVG Version: 2.1.1 Build 136)  -->
  <defs>
    <style>
      .st0 {
        fill: url(#linear-gradient4);
      }

      .st0, .st1, .st2, .st3, .st4, .st5, .st6, .st7, .st8 {
        display: none;
      }

      .st1 {
        fill: url(#linear-gradient8);
      }

      .st2 {
        fill: url(#linear-gradient5);
      }

      .st3 {
        fill: url(#linear-gradient2);
      }

      .st4 {
        fill: url(#linear-gradient1);
      }

      .st5 {
        fill: url(#linear-gradient9);
      }

      .st6 {
        fill: url(#linear-gradient7);
      }

      .st9 {
        fill: url(#linear-gradient6);
      }

      .st7 {
        fill: url(#linear-gradient);
      }

      .st8 {
        fill: url(#linear-gradient3);
      }
    </style>
    <linearGradient id="linear-gradient" x1="1386.4" y1="414.1" x2="443.2" y2="-529.1" gradientTransform="translate(-120.8 1687.3) rotate(-45)" gradientUnits="userSpaceOnUse">
      <stop offset="0" stop-color="#fbb900"/>
      <stop offset="1" stop-color="#e60661"/>
    </linearGradient>
    <linearGradient id="linear-gradient1" x1="1386.4" y1="414.1" x2="443.2" y2="-529.1" gradientTransform="translate(-120.8 1687.3) rotate(-45)" gradientUnits="userSpaceOnUse">
      <stop offset="0" stop-color="#e60661"/>
      <stop offset="1" stop-color="#7f2171"/>
    </linearGradient>
    <linearGradient id="linear-gradient2" x1="1841.7" y1="1590.9" x2="2803.4" y2="1590.9" gradientTransform="translate(2590.3 -1323.1) rotate(90)" xlink:href="#linear-gradient1"/>
    <linearGradient id="linear-gradient3" x1="1841.7" y1="1590.9" x2="2803.4" y2="1590.9" gradientTransform="translate(2590.3 -1323.1) rotate(90)" xlink:href="#linear-gradient"/>
    <linearGradient id="linear-gradient4" x1="564" y1="999.8" x2="1435.7" y2="999.8" gradientTransform="matrix(1,0,0,1,0,0)" xlink:href="#linear-gradient1"/>
    <linearGradient id="linear-gradient5" x1="564" y1="999.8" x2="1435.7" y2="999.8" gradientTransform="matrix(1,0,0,1,0,0)" xlink:href="#linear-gradient"/>
    <linearGradient id="linear-gradient6" x1="494.9" y1="999.8" x2="1504.7" y2="999.8" gradientTransform="translate(999.8 -414.1) rotate(45)" xlink:href="#linear-gradient"/>
    <linearGradient id="linear-gradient7" x1="494.9" y1="999.8" x2="1504.7" y2="999.8" gradientTransform="translate(999.8 -414.1) rotate(45)" xlink:href="#linear-gradient1"/>
    <linearGradient id="linear-gradient8" x1="263.7" y1="963.3" x2="1808.9" y2="963.3" gradientTransform="matrix(1,0,0,1,0,0)" xlink:href="#linear-gradient"/>
    <linearGradient id="linear-gradient9" x1="263.7" y1="963.3" x2="1808.9" y2="963.3" gradientTransform="matrix(1,0,0,1,0,0)" xlink:href="#linear-gradient1"/>
  </defs>
  <g id="Calque_1">
    <path class="st7" d="M312.2,312.2h0c-108.5,108.5-108.5,286.1,0,394.6l980.7,980.7c108.5,108.5,286.1,108.5,394.6,0h0c108.5-108.5,108.5-286.1,0-394.6L706.8,312.2c-108.5-108.5-286.1-108.5-394.6,0Z"/>
    <path class="st4" d="M312.2,312.2h0c-108.5,108.5-108.5,286.1,0,394.6l980.7,980.7c108.5,108.5,286.1,108.5,394.6,0h0c108.5-108.5,108.5-286.1,0-394.6L706.8,312.2c-108.5-108.5-286.1-108.5-394.6,0Z"/>
  </g>
  <g id="Calque_5">
    <path class="st3" d="M1353.9,518.5h-709.3c-75.9,0-137.4,61.5-137.4,137.4v686.7c0,121.3,145.8,183.1,233,98.7l709.3-686.7c88.7-85.9,27.9-236.1-95.6-236.1Z"/>
    <path class="st8" d="M1353.9,518.5h-709.3c-75.9,0-137.4,61.5-137.4,137.4v686.7c0,121.3,145.8,183.1,233,98.7l709.3-686.7c88.7-85.9,27.9-236.1-95.6-236.1Z"/>
  </g>
  <g id="Calque_4">
    <path class="st0" d="M645.4,645.4h0c-108.5,108.5-108.5,286.1,0,394.6l314.4,314.4c108.5,108.5,286.1,108.5,394.6,0h0c108.5-108.5,108.5-286.1,0-394.6l-314.4-314.4c-108.5-108.5-286.1-108.5-394.6,0Z"/>
    <path class="st2" d="M645.4,645.4h0c-108.5,108.5-108.5,286.1,0,394.6l314.4,314.4c108.5,108.5,286.1,108.5,394.6,0h0c108.5-108.5,108.5-286.1,0-394.6l-314.4-314.4c-108.5-108.5-286.1-108.5-394.6,0Z"/>
  </g>
  <g id="Calque_3">
    <circle class="st9" cx="999.8" cy="999.8" r="504.9" transform="translate(-414.1 999.8) rotate(-45)"/>
    <circle class="st6" cx="999.8" cy="999.8" r="504.9" transform="translate(-414.1 999.8) rotate(-45)"/>
  </g>
  <g id="Calque_2">
    <path class="st1" d="M1391.8,1736c-48.8,0-97.1-13.7-139.2-55.8-85.7-85.7-53.7-197.2-28-286.7,24.7-86,33.3-129.5,5.4-157.4-27.8-27.9-71.4-19.3-157.3,5.4-89.5,25.7-201,57.8-286.7-27.9-85.7-85.7-53.7-197.2-28-286.7,24.7-85.9,33.3-129.5,5.5-157.3-27.9-27.9-71.4-19.3-157.3,5.4-89.5,25.8-201,57.8-286.7-27.9-85.7-85.7-53.7-197.2-27.9-286.7,24.7-86,33.3-129.5,5.4-157.3-25.7-25.7-25.7-67.3,0-93,25.7-25.7,67.3-25.7,93,0,85.7,85.7,53.7,197.2,28,286.7-24.7,85.9-33.3,129.5-5.5,157.3,27.9,27.8,71.4,19.2,157.4-5.5,89.5-25.7,201-57.8,286.7,28,85.7,85.7,53.7,197.1,28,286.7-24.7,85.9-33.3,129.5-5.5,157.3,27.8,27.9,71.3,19.3,157.4-5.4,89.5-25.7,201-57.8,286.7,28,85.7,85.7,53.7,197.2,28,286.7-24.7,86-33.3,129.5-5.5,157.4,27.9,27.8,71.4,19.3,157.4-5.4,89.6-25.7,201-57.8,286.7,28,25.7,25.7,25.7,67.3,0,93-25.7,25.7-67.3,25.7-93,0-27.9-27.9-71.5-19.3-157.4,5.4-45.6,13.1-96.8,27.8-147.5,27.8Z"/>
    <path class="st5" d="M1391.8,1736c-48.8,0-97.1-13.7-139.2-55.8-85.7-85.7-53.7-197.2-28-286.7,24.7-86,33.3-129.5,5.4-157.4-27.8-27.9-71.4-19.3-157.3,5.4-89.5,25.7-201,57.8-286.7-27.9-85.7-85.7-53.7-197.2-28-286.7,24.7-85.9,33.3-129.5,5.5-157.3-27.9-27.9-71.4-19.3-157.3,5.4-89.5,25.8-201,57.8-286.7-27.9-85.7-85.7-53.7-197.2-27.9-286.7,24.7-86,33.3-129.5,5.4-157.3-25.7-25.7-25.7-67.3,0-93,25.7-25.7,67.3-25.7,93,0,85.7,85.7,53.7,197.2,28,286.7-24.7,85.9-33.3,129.5-5.5,157.3,27.9,27.8,71.4,19.2,157.4-5.5,89.5-25.7,201-57.8,286.7,28,85.7,85.7,53.7,197.1,28,286.7-24.7,85.9-33.3,129.5-5.5,157.3,27.8,27.9,71.3,19.3,157.4-5.4,89.5-25.7,201-57.8,286.7,28,85.7,85.7,53.7,197.2,28,286.7-24.7,86-33.3,129.5-5.5,157.4,27.9,27.8,71.4,19.3,157.4-5.4,89.6-25.7,201-57.8,286.7,28,25.7,25.7,25.7,67.3,0,93-25.7,25.7-67.3,25.7-93,0-27.9-27.9-71.5-19.3-157.4,5.4-45.6,13.1-96.8,27.8-147.5,27.8Z"/>
  </g>
</svg>