<?xml version="1.0" encoding="UTF-8"?>
<svg id="Calque_1" xmlns="http://www.w3.org/2000/svg" version="1.1" xmlns:xlink="http://www.w3.org/1999/xlink" viewBox="0 0 2000 2000">
  <!-- Generator: Adobe Illustrator 30.1.0, SVG Export Plug-In . SVG Version: 2.1.1 Build 136)  -->
  <defs>
    <style>
      .st0 {
        fill: url(#linear-gradient2);
      }

      .st1 {
        fill: url(#linear-gradient10);
      }

      .st2 {
        fill: url(#linear-gradient1);
      }

      .st3 {
        fill: url(#linear-gradient9);
      }

      .st4 {
        fill: url(#linear-gradient18);
      }

      .st5 {
        fill: url(#linear-gradient8);
      }

      .st6 {
        fill: url(#linear-gradient11);
      }

      .st7 {
        fill: url(#linear-gradient16);
      }

      .st8 {
        fill: url(#linear-gradient12);
      }

      .st9 {
        fill: url(#linear-gradient7);
      }

      .st10 {
        fill: url(#linear-gradient4);
      }

      .st11 {
        fill: url(#linear-gradient14);
      }

      .st12 {
        fill: url(#linear-gradient5);
      }

      .st13 {
        fill: url(#linear-gradient3);
      }

      .st14 {
        fill: url(#linear-gradient15);
      }

      .st15 {
        fill: url(#linear-gradient17);
      }

      .st16 {
        fill: url(#linear-gradient6);
      }

      .st17 {
        fill: url(#linear-gradient13);
      }

      .st18 {
        fill: url(#linear-gradient);
      }
    </style>
    <linearGradient id="linear-gradient" x1="-.4" y1="999.8" x2="2000" y2="999.8" gradientUnits="userSpaceOnUse">
      <stop offset="0" stop-color="#fbb900"/>
      <stop offset="1" stop-color="#e60661"/>
    </linearGradient>
    <linearGradient id="linear-gradient1" x1="50.6" x2="1949" xlink:href="#linear-gradient"/>
    <linearGradient id="linear-gradient2" x1="101.6" y1="999.8" x2="1898.1" y2="999.8" xlink:href="#linear-gradient"/>
    <linearGradient id="linear-gradient3" x1="152.6" y1="999.8" x2="1847.1" y2="999.8" xlink:href="#linear-gradient"/>
    <linearGradient id="linear-gradient4" x1="203.5" y1="999.8" x2="1796.1" y2="999.8" xlink:href="#linear-gradient"/>
    <linearGradient id="linear-gradient5" x1="254.5" y1="999.8" x2="1745.1" y2="999.8" xlink:href="#linear-gradient"/>
    <linearGradient id="linear-gradient6" x1="305.5" y1="999.8" x2="1694.1" y2="999.8" xlink:href="#linear-gradient"/>
    <linearGradient id="linear-gradient7" x1="356.5" y1="999.8" x2="1643.2" y2="999.8" xlink:href="#linear-gradient"/>
    <linearGradient id="linear-gradient8" x1="407.5" y1="999.8" x2="1592.2" y2="999.8" xlink:href="#linear-gradient"/>
    <linearGradient id="linear-gradient9" x1="458.4" y1="999.8" x2="1541.2" y2="999.8" xlink:href="#linear-gradient"/>
    <linearGradient id="linear-gradient10" x1="509.4" y1="999.8" x2="1490.2" y2="999.8" xlink:href="#linear-gradient"/>
    <linearGradient id="linear-gradient11" x1="560.4" y1="999.8" x2="1439.3" y2="999.8" xlink:href="#linear-gradient"/>
    <linearGradient id="linear-gradient12" x1="611.4" y1="999.8" x2="1388.3" y2="999.8" xlink:href="#linear-gradient"/>
    <linearGradient id="linear-gradient13" x1="662.3" y1="999.8" x2="1337.3" y2="999.8" xlink:href="#linear-gradient"/>
    <linearGradient id="linear-gradient14" x1="713.3" y1="999.8" x2="1286.3" y2="999.8" xlink:href="#linear-gradient"/>
    <linearGradient id="linear-gradient15" x1="764.3" y1="999.8" x2="1235.4" y2="999.8" xlink:href="#linear-gradient"/>
    <linearGradient id="linear-gradient16" x1="815.3" y1="999.8" x2="1184.4" y2="999.8" xlink:href="#linear-gradient"/>
    <linearGradient id="linear-gradient17" x1="866.2" y1="999.8" x2="1133.4" y2="999.8" xlink:href="#linear-gradient"/>
    <linearGradient id="linear-gradient18" x1="917.2" y1="999.8" x2="1082.4" y2="999.8" xlink:href="#linear-gradient"/>
  </defs>
  <path class="st18" d="M999.8,2000C448.3,2000-.4,1551.3-.4,999.8S448.3-.4,999.8-.4s1000.2,448.7,1000.2,1000.2-448.7,1000.2-1000.2,1000.2ZM999.8,5.2C451.4,5.2,5.2,451.4,5.2,999.8s446.2,994.6,994.6,994.6,994.6-446.2,994.6-994.6S1548.3,5.2,999.8,5.2Z"/>
  <path class="st2" d="M999.8,1949c-523.4,0-949.2-425.8-949.2-949.2S476.4,50.6,999.8,50.6s949.2,425.8,949.2,949.2-425.8,949.2-949.2,949.2ZM999.8,56.2C479.5,56.2,56.2,479.5,56.2,999.8s423.3,943.6,943.6,943.6,943.6-423.3,943.6-943.6S1520.1,56.2,999.8,56.2Z"/>
  <path class="st0" d="M999.8,1898c-495.3,0-898.2-402.9-898.2-898.2S504.5,101.6,999.8,101.6s898.2,402.9,898.2,898.2-402.9,898.2-898.2,898.2ZM999.8,107.2c-492.2,0-892.7,400.4-892.7,892.7s400.4,892.7,892.7,892.7,892.7-400.4,892.7-892.7S1492,107.2,999.8,107.2Z"/>
  <path class="st13" d="M999.8,1847.1c-467.2,0-847.3-380.1-847.3-847.3S532.6,152.6,999.8,152.6s847.3,380.1,847.3,847.3-380.1,847.3-847.3,847.3ZM999.8,158.1c-464.1,0-841.7,377.6-841.7,841.7s377.6,841.7,841.7,841.7,841.7-377.6,841.7-841.7S1463.9,158.1,999.8,158.1Z"/>
  <path class="st10" d="M999.8,1796.1c-439.1,0-796.3-357.2-796.3-796.3S560.8,203.5,999.8,203.5s796.3,357.2,796.3,796.3-357.2,796.3-796.3,796.3ZM999.8,209.1c-436,0-790.7,354.7-790.7,790.7s354.7,790.7,790.7,790.7,790.7-354.7,790.7-790.7S1435.8,209.1,999.8,209.1Z"/>
  <path class="st12" d="M999.8,1745.1c-411,0-745.3-334.3-745.3-745.3S588.9,254.5,999.8,254.5s745.3,334.3,745.3,745.3-334.3,745.3-745.3,745.3ZM999.8,260.1c-407.9,0-739.7,331.8-739.7,739.7s331.8,739.7,739.7,739.7,739.7-331.8,739.7-739.7-331.8-739.7-739.7-739.7Z"/>
  <path class="st16" d="M999.8,1694.1c-382.9,0-694.3-311.5-694.3-694.3S617,305.5,999.8,305.5s694.3,311.5,694.3,694.3-311.5,694.3-694.3,694.3ZM999.8,311.1c-379.8,0-688.8,309-688.8,688.8s309,688.8,688.8,688.8,688.7-309,688.7-688.8-309-688.8-688.7-688.8Z"/>
  <path class="st9" d="M999.8,1643.2c-354.7,0-643.3-288.6-643.3-643.3S645.1,356.5,999.8,356.5s643.3,288.6,643.3,643.3-288.6,643.3-643.3,643.3ZM999.8,362c-351.7,0-637.8,286.1-637.8,637.8s286.1,637.8,637.8,637.8,637.8-286.1,637.8-637.8-286.1-637.8-637.8-637.8Z"/>
  <path class="st5" d="M999.8,1592.2c-326.6,0-592.4-265.7-592.4-592.4S673.2,407.4,999.8,407.4s592.4,265.7,592.4,592.4-265.7,592.4-592.4,592.4ZM999.8,413c-323.6,0-586.8,263.2-586.8,586.8s263.2,586.8,586.8,586.8,586.8-263.2,586.8-586.8-263.2-586.8-586.8-586.8Z"/>
  <path class="st3" d="M999.8,1541.2c-298.5,0-541.4-242.9-541.4-541.4s242.9-541.4,541.4-541.4,541.4,242.9,541.4,541.4-242.9,541.4-541.4,541.4ZM999.8,464c-295.5,0-535.8,240.4-535.8,535.8s240.4,535.8,535.8,535.8,535.8-240.4,535.8-535.8-240.4-535.8-535.8-535.8Z"/>
  <path class="st1" d="M999.8,1490.2c-270.4,0-490.4-220-490.4-490.4s220-490.4,490.4-490.4,490.4,220,490.4,490.4-220,490.4-490.4,490.4ZM999.8,515c-267.3,0-484.8,217.5-484.8,484.8s217.5,484.8,484.8,484.8,484.8-217.5,484.8-484.8-217.5-484.8-484.8-484.8Z"/>
  <path class="st6" d="M999.8,1439.3c-242.3,0-439.4-197.1-439.4-439.4s197.1-439.4,439.4-439.4,439.4,197.1,439.4,439.4-197.1,439.4-439.4,439.4ZM999.8,565.9c-239.2,0-433.9,194.6-433.9,433.9s194.6,433.9,433.9,433.9,433.9-194.6,433.9-433.9-194.6-433.9-433.9-433.9Z"/>
  <path class="st8" d="M999.8,1388.3c-214.2,0-388.5-174.3-388.5-388.5s174.3-388.5,388.5-388.5,388.5,174.3,388.5,388.5-174.3,388.5-388.5,388.5ZM999.8,616.9c-211.1,0-382.9,171.8-382.9,382.9s171.8,382.9,382.9,382.9,382.9-171.8,382.9-382.9-171.8-382.9-382.9-382.9Z"/>
  <path class="st17" d="M999.8,1337.3c-186.1,0-337.5-151.4-337.5-337.5s151.4-337.5,337.5-337.5,337.5,151.4,337.5,337.5-151.4,337.5-337.5,337.5ZM999.8,667.9c-183,0-331.9,148.9-331.9,331.9s148.9,331.9,331.9,331.9,331.9-148.9,331.9-331.9-148.9-331.9-331.9-331.9Z"/>
  <path class="st11" d="M999.8,1286.3c-158,0-286.5-128.5-286.5-286.5s128.5-286.5,286.5-286.5,286.5,128.5,286.5,286.5-128.5,286.5-286.5,286.5ZM999.8,718.9c-154.9,0-280.9,126-280.9,280.9s126,280.9,280.9,280.9,280.9-126,280.9-280.9-126-280.9-280.9-280.9Z"/>
  <path class="st14" d="M999.8,1235.4c-129.9,0-235.5-105.7-235.5-235.5s105.7-235.5,235.5-235.5,235.5,105.7,235.5,235.5-105.7,235.5-235.5,235.5ZM999.8,769.9c-126.8,0-230,103.2-230,230s103.2,230,230,230,230-103.2,230-230-103.2-230-230-230Z"/>
  <path class="st7" d="M999.8,1184.4c-101.8,0-184.6-82.8-184.6-184.6s82.8-184.6,184.6-184.6,184.6,82.8,184.6,184.6-82.8,184.6-184.6,184.6ZM999.8,820.8c-98.7,0-179,80.3-179,179s80.3,179,179,179,179-80.3,179-179-80.3-179-179-179Z"/>
  <path class="st15" d="M999.8,1133.4c-73.7,0-133.6-59.9-133.6-133.6s59.9-133.6,133.6-133.6,133.6,59.9,133.6,133.6-59.9,133.6-133.6,133.6ZM999.8,871.8c-70.6,0-128,57.4-128,128s57.4,128,128,128,128-57.4,128-128-57.4-128-128-128Z"/>
  <path class="st4" d="M999.8,1082.4c-45.5,0-82.6-37.1-82.6-82.6s37.1-82.6,82.6-82.6,82.6,37.1,82.6,82.6-37.1,82.6-82.6,82.6ZM999.8,922.8c-42.5,0-77,34.6-77,77s34.6,77,77,77,77-34.6,77-77-34.6-77-77-77Z"/>
</svg>