<?xml version="1.0" encoding="UTF-8"?>
<svg xmlns="http://www.w3.org/2000/svg" version="1.1" xmlns:xlink="http://www.w3.org/1999/xlink" viewBox="0 0 2100 1943.5">
  <!-- Generator: Adobe Illustrator 30.1.0, SVG Export Plug-In . SVG Version: 2.1.1 Build 136)  -->
  <defs>
    <style>
      .st0 {
        fill: url(#linear-gradient2);
      }

      .st1 {
        fill: url(#linear-gradient36);
      }

      .st2 {
        fill: url(#linear-gradient39);
      }

      .st3 {
        fill: url(#linear-gradient34);
      }

      .st4 {
        fill: url(#linear-gradient33);
      }

      .st5 {
        fill: url(#linear-gradient10);
      }

      .st6 {
        fill: url(#linear-gradient56);
        mix-blend-mode: multiply;
      }

      .st7 {
        fill: url(#linear-gradient32);
      }

      .st8 {
        fill: url(#linear-gradient21);
      }

      .st9 {
        fill: url(#linear-gradient37);
      }

      .st10 {
        fill: url(#linear-gradient27);
      }

      .st11 {
        fill: url(#linear-gradient53);
      }

      .st12 {
        fill: url(#linear-gradient35);
      }

      .st13 {
        fill: #fff;
      }

      .st14 {
        fill: url(#linear-gradient26);
      }

      .st15 {
        fill: url(#linear-gradient1);
      }

      .st16 {
        fill: url(#linear-gradient9);
      }

      .st17 {
        fill: url(#linear-gradient18);
      }

      .st18 {
        fill: url(#linear-gradient43);
        filter: url(#drop-shadow-1);
      }

      .st19 {
        fill: url(#linear-gradient23);
      }

      .st20 {
        fill: url(#linear-gradient8);
      }

      .st21 {
        fill: url(#linear-gradient11);
      }

      .st22 {
        fill: url(#linear-gradient16);
      }

      .st23 {
        fill: url(#linear-gradient24);
      }

      .st24 {
        fill: url(#linear-gradient30);
      }

      .st25 {
        fill: url(#linear-gradient46);
      }

      .st26 {
        fill: url(#linear-gradient22);
      }

      .st27 {
        isolation: isolate;
      }

      .st28 {
        fill: url(#linear-gradient29);
      }

      .st29 {
        fill: url(#linear-gradient49);
      }

      .st30 {
        fill: url(#linear-gradient19);
      }

      .st31 {
        fill: url(#linear-gradient12);
      }

      .st32 {
        fill: url(#linear-gradient42);
      }

      .st33 {
        fill: url(#linear-gradient28);
      }

      .st34 {
        fill: url(#linear-gradient40);
      }

      .st35 {
        fill: url(#linear-gradient7);
      }

      .st36 {
        fill: url(#linear-gradient20);
      }

      .st37 {
        fill: url(#linear-gradient4);
      }

      .st38 {
        fill: url(#linear-gradient31);
      }

      .st39 {
        fill: url(#linear-gradient14);
      }

      .st40 {
        fill: url(#linear-gradient5);
      }

      .st41 {
        fill: url(#linear-gradient3);
      }

      .st42 {
        fill: url(#linear-gradient55);
      }

      .st43 {
        fill: url(#linear-gradient38);
      }

      .st44 {
        fill: url(#linear-gradient25);
      }

      .st45 {
        fill: url(#linear-gradient52);
      }

      .st46 {
        fill: #4cc2f1;
      }

      .st47 {
        fill: url(#linear-gradient15);
      }

      .st48 {
        fill: url(#linear-gradient17);
      }

      .st49 {
        fill: url(#linear-gradient54);
      }

      .st50 {
        fill: url(#linear-gradient50);
      }

      .st51 {
        fill: url(#linear-gradient51);
      }

      .st52 {
        fill: url(#linear-gradient6);
      }

      .st53 {
        fill: url(#linear-gradient48);
      }

      .st54 {
        fill: url(#linear-gradient13);
      }

      .st55 {
        fill: url(#linear-gradient45);
      }

      .st56 {
        fill: url(#linear-gradient47);
      }

      .st57 {
        fill: url(#linear-gradient);
      }

      .st58 {
        fill: url(#linear-gradient44);
      }

      .st59 {
        fill: url(#linear-gradient41);
      }
    </style>
    <linearGradient id="linear-gradient" x1="1031" y1="1221.4" x2="2049.3" y2="1221.4" gradientUnits="userSpaceOnUse">
      <stop offset="0" stop-color="#fbb900"/>
      <stop offset="1" stop-color="#e60661"/>
    </linearGradient>
    <linearGradient id="linear-gradient1" x1="1056.9" y1="1221.4" x2="2023.4" y2="1221.4" xlink:href="#linear-gradient"/>
    <linearGradient id="linear-gradient2" x1="1082.9" y1="1221.4" x2="1997.4" y2="1221.4" xlink:href="#linear-gradient"/>
    <linearGradient id="linear-gradient3" x1="1108.8" y1="1221.4" x2="1971.5" y2="1221.4" xlink:href="#linear-gradient"/>
    <linearGradient id="linear-gradient4" x1="1134.8" y1="1221.4" x2="1945.5" y2="1221.4" xlink:href="#linear-gradient"/>
    <linearGradient id="linear-gradient5" x1="1160.7" y1="1221.4" x2="1919.6" y2="1221.4" xlink:href="#linear-gradient"/>
    <linearGradient id="linear-gradient6" x1="1186.7" y1="1221.4" x2="1893.6" y2="1221.4" xlink:href="#linear-gradient"/>
    <linearGradient id="linear-gradient7" x1="1212.6" y1="1221.4" x2="1867.7" y2="1221.4" xlink:href="#linear-gradient"/>
    <linearGradient id="linear-gradient8" x1="1238.6" y1="1221.4" x2="1841.7" y2="1221.4" xlink:href="#linear-gradient"/>
    <linearGradient id="linear-gradient9" x1="1264.5" y1="1221.4" x2="1815.8" y2="1221.4" xlink:href="#linear-gradient"/>
    <linearGradient id="linear-gradient10" x1="1290.5" y1="1221.4" x2="1789.8" y2="1221.4" xlink:href="#linear-gradient"/>
    <linearGradient id="linear-gradient11" x1="1316.4" y1="1221.4" x2="1763.9" y2="1221.4" xlink:href="#linear-gradient"/>
    <linearGradient id="linear-gradient12" x1="1342.4" y1="1221.4" x2="1737.9" y2="1221.4" xlink:href="#linear-gradient"/>
    <linearGradient id="linear-gradient13" x1="1368.3" y1="1221.4" x2="1712" y2="1221.4" xlink:href="#linear-gradient"/>
    <linearGradient id="linear-gradient14" x1="1394.3" y1="1221.4" x2="1686" y2="1221.4" xlink:href="#linear-gradient"/>
    <linearGradient id="linear-gradient15" x1="1420.2" y1="1221.4" x2="1660.1" y2="1221.4" xlink:href="#linear-gradient"/>
    <linearGradient id="linear-gradient16" x1="1446.2" y1="1221.4" x2="1634.1" y2="1221.4" xlink:href="#linear-gradient"/>
    <linearGradient id="linear-gradient17" x1="1472.1" y1="1221.4" x2="1608.2" y2="1221.4" xlink:href="#linear-gradient"/>
    <linearGradient id="linear-gradient18" x1="1498.1" y1="1221.4" x2="1582.2" y2="1221.4" xlink:href="#linear-gradient"/>
    <linearGradient id="linear-gradient19" x1="50" y1="669.8" x2="1068.4" y2="669.8" xlink:href="#linear-gradient"/>
    <linearGradient id="linear-gradient20" x1="76" y1="669.8" x2="1042.4" y2="669.8" xlink:href="#linear-gradient"/>
    <linearGradient id="linear-gradient21" x1="101.9" y1="669.8" x2="1016.5" y2="669.8" xlink:href="#linear-gradient"/>
    <linearGradient id="linear-gradient22" x1="127.9" y1="669.8" x2="990.5" y2="669.8" xlink:href="#linear-gradient"/>
    <linearGradient id="linear-gradient23" x1="153.8" y1="669.8" x2="964.6" y2="669.8" xlink:href="#linear-gradient"/>
    <linearGradient id="linear-gradient24" x1="179.8" y1="669.8" x2="938.6" y2="669.8" xlink:href="#linear-gradient"/>
    <linearGradient id="linear-gradient25" x1="205.7" y1="669.8" x2="912.7" y2="669.8" xlink:href="#linear-gradient"/>
    <linearGradient id="linear-gradient26" x1="231.7" y1="669.8" x2="886.7" y2="669.8" xlink:href="#linear-gradient"/>
    <linearGradient id="linear-gradient27" x1="257.6" y1="669.8" x2="860.8" y2="669.8" xlink:href="#linear-gradient"/>
    <linearGradient id="linear-gradient28" x1="283.6" y1="669.8" x2="834.8" y2="669.8" xlink:href="#linear-gradient"/>
    <linearGradient id="linear-gradient29" x1="309.5" y1="669.8" x2="808.9" y2="669.8" xlink:href="#linear-gradient"/>
    <linearGradient id="linear-gradient30" x1="335.5" y1="669.8" x2="782.9" y2="669.8" xlink:href="#linear-gradient"/>
    <linearGradient id="linear-gradient31" x1="361.4" y1="669.8" x2="757" y2="669.8" xlink:href="#linear-gradient"/>
    <linearGradient id="linear-gradient32" x1="387.4" y1="669.8" x2="731" y2="669.8" xlink:href="#linear-gradient"/>
    <linearGradient id="linear-gradient33" x1="413.3" y1="669.8" x2="705" y2="669.8" xlink:href="#linear-gradient"/>
    <linearGradient id="linear-gradient34" x1="439.3" y1="669.8" x2="679.1" y2="669.8" xlink:href="#linear-gradient"/>
    <linearGradient id="linear-gradient35" x1="465.2" y1="669.8" x2="653.1" y2="669.8" xlink:href="#linear-gradient"/>
    <linearGradient id="linear-gradient36" x1="491.2" y1="669.8" x2="627.2" y2="669.8" xlink:href="#linear-gradient"/>
    <linearGradient id="linear-gradient37" x1="517.1" y1="669.8" x2="601.2" y2="669.8" xlink:href="#linear-gradient"/>
    <linearGradient id="linear-gradient38" x1="1636" y1="664.1" x2="1262.9" y2="291" gradientTransform="translate(824.7 -910.9) rotate(45)" xlink:href="#linear-gradient"/>
    <linearGradient id="linear-gradient39" x1="1090.3" y1="499.8" x2="1990" y2="499.8" gradientUnits="userSpaceOnUse">
      <stop offset="0" stop-color="#5a3b81"/>
      <stop offset="1" stop-color="#7f2171"/>
    </linearGradient>
    <linearGradient id="linear-gradient40" x1="1322.9" y1="1110" x2="918.5" y2="705.6" gradientTransform="translate(-86.2 1714.4) rotate(-45)" xlink:href="#linear-gradient"/>
    <linearGradient id="linear-gradient41" x1="718.3" y1="80.5" x2="314" y2="-323.8" gradientTransform="translate(-86.2 1714.4) rotate(-45)" xlink:href="#linear-gradient"/>
    <linearGradient id="linear-gradient42" x1="1905.7" y1="369.3" x2="1227.2" y2="-309.2" gradientTransform="translate(-86.2 1714.4) rotate(-45)" xlink:href="#linear-gradient"/>
    <linearGradient id="linear-gradient43" x1="1430.4" y1="1441.3" x2="179.9" y2="190.8" gradientTransform="translate(1022.2 -417) rotate(45)" gradientUnits="userSpaceOnUse">
      <stop offset="0" stop-color="#646ca3"/>
      <stop offset="1" stop-color="#7f2171"/>
    </linearGradient>
    <filter id="drop-shadow-1" x="258.4" y="269.4" width="1520.9" height="1520.6" filterUnits="userSpaceOnUse">
      <feOffset dx="4.3" dy="4.3"/>
      <feGaussianBlur result="blur" stdDeviation="4.3"/>
      <feFlood flood-color="#13110c" flood-opacity=".1"/>
      <feComposite in2="blur" operator="in"/>
      <feComposite in="SourceGraphic"/>
    </filter>
    <linearGradient id="linear-gradient44" x1="434.9" y1="426.2" x2="631.2" y2="426.2" gradientUnits="userSpaceOnUse">
      <stop offset="0" stop-color="#31363a"/>
      <stop offset="1" stop-color="#191917"/>
    </linearGradient>
    <linearGradient id="linear-gradient45" x1="1820.2" y1="1443.1" x2="2045.4" y2="1443.1" gradientUnits="userSpaceOnUse">
      <stop offset="0" stop-color="#e60661"/>
      <stop offset="1" stop-color="#7f2171"/>
    </linearGradient>
    <linearGradient id="linear-gradient46" x1="1250.2" y1="1801" x2="1365.1" y2="1801" xlink:href="#linear-gradient45"/>
    <linearGradient id="linear-gradient47" x1="337.6" y1="234.7" x2="428.8" y2="234.7" xlink:href="#linear-gradient44"/>
    <linearGradient id="linear-gradient48" x1="228" y1="1618.6" x2="629.7" y2="1618.6" xlink:href="#linear-gradient"/>
    <linearGradient id="linear-gradient49" x1="1834.2" y1="2351.6" x2="2016.4" y2="2351.6" gradientTransform="translate(2612 -1401.4) rotate(90)" xlink:href="#linear-gradient45"/>
    <linearGradient id="linear-gradient50" x1="370.5" y1="1563.9" x2="611.9" y2="1563.9" xlink:href="#linear-gradient44"/>
    <linearGradient id="linear-gradient51" x1="156.6" y1="792.9" x2="299.4" y2="792.9" xlink:href="#linear-gradient44"/>
    <linearGradient id="linear-gradient52" x1="1425.9" y1="1743.5" x2="1507.6" y2="1743.5" xlink:href="#linear-gradient"/>
    <linearGradient id="linear-gradient53" x1="877.2" y1="1832.1" x2="1000.1" y2="1832.1" gradientTransform="translate(443.8 -166.1) rotate(13.2)" xlink:href="#linear-gradient45"/>
    <linearGradient id="linear-gradient54" x1="614.5" y1="265.1" x2="1031.2" y2="265.1" xlink:href="#linear-gradient"/>
    <linearGradient id="linear-gradient55" x1="75.8" y1="1379.8" x2="172.1" y2="1379.8" gradientTransform="translate(320.3 8.4) rotate(13.3)" xlink:href="#linear-gradient"/>
    <linearGradient id="linear-gradient56" x1="1556.2" y1="1567.1" x2="329.4" y2="340.4" gradientUnits="userSpaceOnUse">
      <stop offset=".4" stop-color="#fff"/>
      <stop offset=".5" stop-color="#cac9c8"/>
      <stop offset=".5" stop-color="#9a9997"/>
      <stop offset=".6" stop-color="#706f6c"/>
      <stop offset=".7" stop-color="#4e4d49"/>
      <stop offset=".8" stop-color="#34322e"/>
      <stop offset=".8" stop-color="#211f1b"/>
      <stop offset=".9" stop-color="#16140f"/>
      <stop offset="1" stop-color="#13110c"/>
    </linearGradient>
  </defs>
  <g class="st27">
    <g id="Calque_1">
      <g>
        <g>
          <path class="st57" d="M1540.2,1730.6c-280.8,0-509.2-228.4-509.2-509.2s228.4-509.2,509.2-509.2,509.2,228.4,509.2,509.2-228.4,509.2-509.2,509.2ZM1540.2,715c-279.2,0-506.4,227.1-506.4,506.4s227.1,506.3,506.4,506.3,506.3-227.1,506.3-506.3-227.1-506.4-506.3-506.4Z"/>
          <path class="st15" d="M1540.2,1704.6c-266.5,0-483.2-216.8-483.2-483.2s216.8-483.2,483.2-483.2,483.2,216.8,483.2,483.2-216.8,483.2-483.2,483.2ZM1540.2,741c-264.9,0-480.4,215.5-480.4,480.4s215.5,480.4,480.4,480.4,480.4-215.5,480.4-480.4-215.5-480.4-480.4-480.4Z"/>
          <path class="st0" d="M1540.2,1678.7c-252.1,0-457.3-205.1-457.3-457.3s205.1-457.3,457.3-457.3,457.3,205.1,457.3,457.3-205.1,457.3-457.3,457.3ZM1540.2,766.9c-250.6,0-454.4,203.9-454.4,454.4s203.9,454.4,454.4,454.4,454.4-203.9,454.4-454.4-203.9-454.4-454.4-454.4Z"/>
          <path class="st41" d="M1540.2,1652.7c-237.8,0-431.3-193.5-431.3-431.3s193.5-431.3,431.3-431.3,431.3,193.5,431.3,431.3-193.5,431.3-431.3,431.3ZM1540.2,792.9c-236.3,0-428.5,192.2-428.5,428.5s192.2,428.5,428.5,428.5,428.5-192.2,428.5-428.5-192.2-428.5-428.5-428.5Z"/>
          <path class="st37" d="M1540.2,1626.8c-223.5,0-405.4-181.9-405.4-405.4s181.9-405.4,405.4-405.4,405.4,181.9,405.4,405.4-181.9,405.4-405.4,405.4ZM1540.2,818.8c-222,0-402.5,180.6-402.5,402.5s180.6,402.5,402.5,402.5,402.5-180.6,402.5-402.5-180.6-402.5-402.5-402.5Z"/>
          <path class="st40" d="M1540.2,1600.8c-209.2,0-379.4-170.2-379.4-379.4s170.2-379.4,379.4-379.4,379.4,170.2,379.4,379.4-170.2,379.4-379.4,379.4ZM1540.2,844.8c-207.7,0-376.6,168.9-376.6,376.6s168.9,376.6,376.6,376.6,376.6-168.9,376.6-376.6-168.9-376.6-376.6-376.6Z"/>
          <path class="st52" d="M1540.2,1574.9c-194.9,0-353.5-158.6-353.5-353.5s158.6-353.5,353.5-353.5,353.5,158.6,353.5,353.5-158.6,353.5-353.5,353.5ZM1540.2,870.7c-193.3,0-350.6,157.3-350.6,350.6s157.3,350.6,350.6,350.6,350.6-157.3,350.6-350.6-157.3-350.6-350.6-350.6Z"/>
          <path class="st35" d="M1540.2,1548.9c-180.6,0-327.5-146.9-327.5-327.5s146.9-327.5,327.5-327.5,327.5,146.9,327.5,327.5-146.9,327.5-327.5,327.5ZM1540.2,896.7c-179,0-324.7,145.7-324.7,324.7s145.7,324.7,324.7,324.7,324.7-145.7,324.7-324.7-145.7-324.7-324.7-324.7Z"/>
          <path class="st20" d="M1540.2,1522.9c-166.3,0-301.6-135.3-301.6-301.6s135.3-301.6,301.6-301.6,301.6,135.3,301.6,301.6-135.3,301.6-301.6,301.6ZM1540.2,922.6c-164.7,0-298.7,134-298.7,298.7s134,298.7,298.7,298.7,298.7-134,298.7-298.7-134-298.7-298.7-298.7Z"/>
          <path class="st16" d="M1540.2,1497c-152,0-275.6-123.6-275.6-275.6s123.6-275.6,275.6-275.6,275.6,123.6,275.6,275.6-123.6,275.6-275.6,275.6ZM1540.2,948.6c-150.4,0-272.8,122.4-272.8,272.8s122.4,272.8,272.8,272.8,272.8-122.4,272.8-272.8-122.4-272.8-272.8-272.8Z"/>
          <path class="st5" d="M1540.2,1471c-137.7,0-249.7-112-249.7-249.7s112-249.7,249.7-249.7,249.7,112,249.7,249.7-112,249.7-249.7,249.7ZM1540.2,974.5c-136.1,0-246.8,110.7-246.8,246.8s110.7,246.8,246.8,246.8,246.8-110.7,246.8-246.8-110.7-246.8-246.8-246.8Z"/>
          <path class="st21" d="M1540.2,1445.1c-123.4,0-223.7-100.4-223.7-223.7s100.4-223.7,223.7-223.7,223.7,100.4,223.7,223.7-100.4,223.7-223.7,223.7ZM1540.2,1000.5c-121.8,0-220.9,99.1-220.9,220.9s99.1,220.9,220.9,220.9,220.9-99.1,220.9-220.9-99.1-220.9-220.9-220.9Z"/>
          <path class="st31" d="M1540.2,1419.1c-109,0-197.8-88.7-197.8-197.8s88.7-197.8,197.8-197.8,197.8,88.7,197.8,197.8-88.7,197.8-197.8,197.8ZM1540.2,1026.4c-107.5,0-194.9,87.4-194.9,194.9s87.4,194.9,194.9,194.9,194.9-87.4,194.9-194.9-87.4-194.9-194.9-194.9Z"/>
          <path class="st54" d="M1540.2,1393.2c-94.7,0-171.8-77.1-171.8-171.8s77.1-171.8,171.8-171.8,171.8,77.1,171.8,171.8-77.1,171.8-171.8,171.8ZM1540.2,1052.4c-93.2,0-169,75.8-169,169s75.8,169,169,169,169-75.8,169-169-75.8-169-169-169Z"/>
          <path class="st39" d="M1540.2,1367.2c-80.4,0-145.9-65.4-145.9-145.9s65.4-145.9,145.9-145.9,145.9,65.4,145.9,145.9-65.4,145.9-145.9,145.9ZM1540.2,1078.4c-78.9,0-143,64.2-143,143s64.2,143,143,143,143-64.2,143-143-64.2-143-143-143Z"/>
          <path class="st47" d="M1540.2,1341.3c-66.1,0-119.9-53.8-119.9-119.9s53.8-119.9,119.9-119.9,119.9,53.8,119.9,119.9-53.8,119.9-119.9,119.9ZM1540.2,1104.3c-64.6,0-117.1,52.5-117.1,117.1s52.5,117.1,117.1,117.1,117.1-52.5,117.1-117.1-52.5-117.1-117.1-117.1Z"/>
          <path class="st22" d="M1540.2,1315.3c-51.8,0-94-42.1-94-94s42.1-94,94-94,94,42.1,94,94-42.1,94-94,94ZM1540.2,1130.3c-50.2,0-91.1,40.9-91.1,91.1s40.9,91.1,91.1,91.1,91.1-40.9,91.1-91.1-40.9-91.1-91.1-91.1Z"/>
          <path class="st48" d="M1540.2,1289.4c-37.5,0-68-30.5-68-68s30.5-68,68-68,68,30.5,68,68-30.5,68-68,68ZM1540.2,1156.2c-35.9,0-65.2,29.2-65.2,65.2s29.2,65.2,65.2,65.2,65.2-29.2,65.2-65.2-29.2-65.2-65.2-65.2Z"/>
          <path class="st17" d="M1540.2,1263.4c-23.2,0-42.1-18.9-42.1-42.1s18.9-42.1,42.1-42.1,42.1,18.9,42.1,42.1-18.9,42.1-42.1,42.1ZM1540.2,1182.2c-21.6,0-39.2,17.6-39.2,39.2s17.6,39.2,39.2,39.2,39.2-17.6,39.2-39.2-17.6-39.2-39.2-39.2Z"/>
        </g>
        <g>
          <path class="st30" d="M559.2,1179c-280.8,0-509.2-228.4-509.2-509.2s228.4-509.2,509.2-509.2,509.2,228.4,509.2,509.2-228.4,509.2-509.2,509.2ZM559.2,163.4c-279.2,0-506.4,227.1-506.4,506.4s227.1,506.3,506.4,506.3,506.3-227.1,506.3-506.3-227.1-506.4-506.3-506.4Z"/>
          <path class="st36" d="M559.2,1153c-266.5,0-483.2-216.8-483.2-483.2s216.8-483.2,483.2-483.2,483.2,216.8,483.2,483.2-216.8,483.2-483.2,483.2ZM559.2,189.4c-264.9,0-480.4,215.5-480.4,480.4s215.5,480.4,480.4,480.4,480.4-215.5,480.4-480.4-215.5-480.4-480.4-480.4Z"/>
          <path class="st8" d="M559.2,1127.1c-252.1,0-457.3-205.1-457.3-457.3s205.1-457.3,457.3-457.3,457.3,205.1,457.3,457.3-205.1,457.3-457.3,457.3ZM559.2,215.3c-250.6,0-454.4,203.9-454.4,454.4s203.9,454.4,454.4,454.4,454.4-203.9,454.4-454.4-203.9-454.4-454.4-454.4Z"/>
          <path class="st26" d="M559.2,1101.1c-237.8,0-431.3-193.5-431.3-431.3s193.5-431.3,431.3-431.3,431.3,193.5,431.3,431.3-193.5,431.3-431.3,431.3ZM559.2,241.3c-236.3,0-428.5,192.2-428.5,428.5s192.2,428.5,428.5,428.5,428.5-192.2,428.5-428.5-192.2-428.5-428.5-428.5Z"/>
          <path class="st19" d="M559.2,1075.2c-223.5,0-405.4-181.9-405.4-405.4s181.9-405.4,405.4-405.4,405.4,181.9,405.4,405.4-181.9,405.4-405.4,405.4ZM559.2,267.2c-222,0-402.5,180.6-402.5,402.5s180.6,402.5,402.5,402.5,402.5-180.6,402.5-402.5-180.6-402.5-402.5-402.5Z"/>
          <path class="st23" d="M559.2,1049.2c-209.2,0-379.4-170.2-379.4-379.4s170.2-379.4,379.4-379.4,379.4,170.2,379.4,379.4-170.2,379.4-379.4,379.4ZM559.2,293.2c-207.7,0-376.6,168.9-376.6,376.6s168.9,376.6,376.6,376.6,376.6-168.9,376.6-376.6-168.9-376.6-376.6-376.6Z"/>
          <path class="st44" d="M559.2,1023.3c-194.9,0-353.5-158.6-353.5-353.5s158.6-353.5,353.5-353.5,353.5,158.6,353.5,353.5-158.6,353.5-353.5,353.5ZM559.2,319.1c-193.3,0-350.6,157.3-350.6,350.6s157.3,350.6,350.6,350.6,350.6-157.3,350.6-350.6-157.3-350.6-350.6-350.6Z"/>
          <path class="st14" d="M559.2,997.3c-180.6,0-327.5-146.9-327.5-327.5s146.9-327.5,327.5-327.5,327.5,146.9,327.5,327.5-146.9,327.5-327.5,327.5ZM559.2,345.1c-179,0-324.7,145.7-324.7,324.7s145.7,324.7,324.7,324.7,324.7-145.7,324.7-324.7-145.7-324.7-324.7-324.7Z"/>
          <path class="st10" d="M559.2,971.4c-166.3,0-301.6-135.3-301.6-301.6s135.3-301.6,301.6-301.6,301.6,135.3,301.6,301.6-135.3,301.6-301.6,301.6ZM559.2,371c-164.7,0-298.7,134-298.7,298.7s134,298.7,298.7,298.7,298.7-134,298.7-298.7-134-298.7-298.7-298.7Z"/>
          <path class="st33" d="M559.2,945.4c-152,0-275.6-123.6-275.6-275.6s123.6-275.6,275.6-275.6,275.6,123.6,275.6,275.6-123.6,275.6-275.6,275.6ZM559.2,397c-150.4,0-272.8,122.4-272.8,272.8s122.4,272.8,272.8,272.8,272.8-122.4,272.8-272.8-122.4-272.8-272.8-272.8Z"/>
          <path class="st28" d="M559.2,919.5c-137.7,0-249.7-112-249.7-249.7s112-249.7,249.7-249.7,249.7,112,249.7,249.7-112,249.7-249.7,249.7ZM559.2,423c-136.1,0-246.8,110.7-246.8,246.8s110.7,246.8,246.8,246.8,246.8-110.7,246.8-246.8-110.7-246.8-246.8-246.8Z"/>
          <path class="st24" d="M559.2,893.5c-123.4,0-223.7-100.4-223.7-223.7s100.4-223.7,223.7-223.7,223.7,100.4,223.7,223.7-100.4,223.7-223.7,223.7ZM559.2,448.9c-121.8,0-220.9,99.1-220.9,220.9s99.1,220.9,220.9,220.9,220.9-99.1,220.9-220.9-99.1-220.9-220.9-220.9Z"/>
          <path class="st38" d="M559.2,867.5c-109,0-197.8-88.7-197.8-197.8s88.7-197.8,197.8-197.8,197.8,88.7,197.8,197.8-88.7,197.8-197.8,197.8ZM559.2,474.9c-107.5,0-194.9,87.4-194.9,194.9s87.4,194.9,194.9,194.9,194.9-87.4,194.9-194.9-87.4-194.9-194.9-194.9Z"/>
          <path class="st7" d="M559.2,841.6c-94.7,0-171.8-77.1-171.8-171.8s77.1-171.8,171.8-171.8,171.8,77.1,171.8,171.8-77.1,171.8-171.8,171.8ZM559.2,500.8c-93.2,0-169,75.8-169,169s75.8,169,169,169,169-75.8,169-169-75.8-169-169-169Z"/>
          <path class="st4" d="M559.2,815.6c-80.4,0-145.9-65.4-145.9-145.9s65.4-145.9,145.9-145.9,145.9,65.4,145.9,145.9-65.4,145.9-145.9,145.9ZM559.2,526.8c-78.9,0-143,64.2-143,143s64.2,143,143,143,143-64.2,143-143-64.2-143-143-143Z"/>
          <path class="st3" d="M559.2,789.7c-66.1,0-119.9-53.8-119.9-119.9s53.8-119.9,119.9-119.9,119.9,53.8,119.9,119.9-53.8,119.9-119.9,119.9ZM559.2,552.7c-64.6,0-117.1,52.5-117.1,117.1s52.5,117.1,117.1,117.1,117.1-52.5,117.1-117.1-52.5-117.1-117.1-117.1Z"/>
          <path class="st12" d="M559.2,763.7c-51.8,0-94-42.1-94-94s42.1-94,94-94,94,42.1,94,94-42.1,94-94,94ZM559.2,578.7c-50.2,0-91.1,40.9-91.1,91.1s40.9,91.1,91.1,91.1,91.1-40.9,91.1-91.1-40.9-91.1-91.1-91.1Z"/>
          <path class="st1" d="M559.2,737.8c-37.5,0-68-30.5-68-68s30.5-68,68-68,68,30.5,68,68-30.5,68-68,68ZM559.2,604.6c-35.9,0-65.2,29.2-65.2,65.2s29.2,65.2,65.2,65.2,65.2-29.2,65.2-65.2-29.2-65.2-65.2-65.2Z"/>
          <path class="st9" d="M559.2,711.8c-23.2,0-42.1-18.9-42.1-42.1s18.9-42.1,42.1-42.1,42.1,18.9,42.1,42.1-18.9,42.1-42.1,42.1ZM559.2,630.6c-21.6,0-39.2,17.6-39.2,39.2s17.6,39.2,39.2,39.2,39.2-17.6,39.2-39.2-17.6-39.2-39.2-39.2Z"/>
        </g>
        <circle class="st43" cx="1511.9" cy="540" r="223" transform="translate(61 1227.2) rotate(-45)"/>
        <path class="st2" d="M1817.5,949.5l-138.9-138.9c57.8-48,98.3-115.8,111-193.1,2.9-17.1,4.3-34.5,4.3-52.4,0-33-4.9-64.9-14.3-94.8-40.3-130-161.6-224.4-304.8-224.4s-187.1,44.9-245.7,115.3l-139-139c94.5-105.7,231.8-172.3,384.6-172.3,252,0,461.8,181.1,506.3,420.3,5.8,30.7,8.7,62.4,8.7,94.8s-.9,35.2-2.7,52.4c-13.4,131.7-76.3,248.6-169.8,332Z"/>
        <path class="st34" d="M1273.9,1269.1h0c-46.5,46.5-46.5,122.6,0,169.2l420.4,420.4c46.5,46.5,122.6,46.5,169.2,0h0c46.5-46.5,46.5-122.6,0-169.2l-420.4-420.4c-46.5-46.5-122.6-46.5-169.2,0Z"/>
        <path class="st59" d="M118.5,968.6h0c-46.5,46.5-46.5,122.6,0,169.2l420.4,420.4c46.5,46.5,122.6,46.5,169.2,0h0c46.5-46.5,46.5-122.6,0-169.2l-420.4-420.4c-46.5-46.5-122.6-46.5-169.2,0Z"/>
        <path class="st32" d="M894.4,109.6h0c-46.5,46.5-46.5,122.6,0,169.2l867.5,867.5c46.5,46.5,122.6,46.5,169.2,0h0c46.5-46.5,46.5-122.6,0-169.2L1063.6,109.6c-46.5-46.5-122.6-46.5-169.2,0Z"/>
        <circle class="st18" cx="1014.5" cy="1025.4" r="747.3" transform="translate(-427.9 1017.7) rotate(-45)"/>
        <path class="st58" d="M453.2,346.3h0c-24.4,24.4-24.4,64.4,0,88.9l70.8,70.8c24.4,24.4,64.4,24.4,88.9,0h0c24.4-24.4,24.4-64.4,0-88.9l-70.8-70.8c-24.4-24.4-64.4-24.4-88.9,0Z"/>
        <path class="st55" d="M1841.2,1351.5h0c-28,28-28,73.9,0,101.9l81.2,81.2c28,28,73.9,28,101.9,0h0c28-28,28-73.9,0-101.9l-81.2-81.2c-28-28-73.9-28-101.9,0Z"/>
        <path class="st25" d="M1260.5,1753.8h0c-13.7,13.7-13.7,36.2,0,49.9l44.3,44.3c13.7,13.7,36.2,13.7,49.9,0h0c13.7-13.7,13.7-36.2,0-49.9l-44.3-44.3c-13.7-13.7-36.2-13.7-49.9,0Z"/>
        <path class="st56" d="M345.8,197.2h0c-10.9,10.9-10.9,28.8,0,39.7l35.2,35.2c10.9,10.9,28.8,10.9,39.7,0h0c10.9-10.9,10.9-28.8,0-39.7l-35.2-35.2c-10.9-10.9-28.8-10.9-39.7,0Z"/>
        <path class="st53" d="M228,1470.6v296.3c0,31.7,25.7,57.4,57.4,57.4h286.8c50.7,0,76.5-60.9,41.2-97.3l-286.8-296.3c-35.9-37.1-98.6-11.7-98.6,39.9Z"/>
        <path class="st29" d="M327.6,432.9h-134.3c-14.4,0-26,11.6-26,26v130c0,23,27.6,34.7,44.1,18.7l134.3-130c16.8-16.3,5.3-44.7-18.1-44.7Z"/>
        <path class="st50" d="M370.5,1474.9v178c0,19,15.4,34.5,34.5,34.5h172.4c30.5,0,46-36.6,24.8-58.5l-172.4-178c-21.6-22.3-59.3-7-59.3,24Z"/>
        <path class="st51" d="M228,721.5c-39.4,0-71.4,31.9-71.4,71.4s31.9,71.4,71.4,71.4,71.4-31.9,71.4-71.4-31.9-71.4-71.4-71.4ZM228,822.4c-16.3,0-29.5-13.2-29.5-29.5s13.2-29.5,29.5-29.5,29.5,13.2,29.5,29.5-13.2,29.5-29.5,29.5Z"/>
        <circle class="st45" cx="1466.7" cy="1743.5" r="40.8"/>
        <circle class="st11" cx="938.6" cy="1832.1" r="61.4" transform="translate(-394.1 263.2) rotate(-13.2)"/>
        <path class="st49" d="M918.7,473.4c-13.2,0-26.2-3.7-37.5-15-23.1-23.1-14.5-53.2-7.5-77.3,6.7-23.2,9-34.9,1.5-42.4-7.5-7.5-19.2-5.2-42.4,1.5-24.1,6.9-54.2,15.6-77.3-7.5-23.1-23.1-14.5-53.2-7.5-77.3,6.7-23.2,9-34.9,1.5-42.4-7.5-7.5-19.3-5.2-42.4,1.5-24.1,6.9-54.2,15.6-77.3-7.5-23.1-23.1-14.5-53.2-7.5-77.3,6.7-23.2,9-34.9,1.5-42.4-6.9-6.9-6.9-18.2,0-25.1,6.9-6.9,18.1-6.9,25.1,0,23.1,23.1,14.5,53.2,7.5,77.3-6.7,23.2-9,34.9-1.5,42.4,7.5,7.5,19.3,5.2,42.4-1.5,24.1-6.9,54.2-15.6,77.3,7.5,23.1,23.1,14.5,53.2,7.5,77.3-6.7,23.2-9,34.9-1.5,42.4,7.5,7.5,19.2,5.2,42.4-1.5,24.1-6.9,54.2-15.6,77.3,7.5,23.1,23.1,14.5,53.2,7.5,77.3-6.7,23.2-9,34.9-1.5,42.4,7.5,7.5,19.3,5.2,42.4-1.5,24.2-6.9,54.2-15.6,77.3,7.5,6.9,6.9,6.9,18.2,0,25.1-6.9,6.9-18.1,6.9-25.1,0-7.5-7.5-19.3-5.2-42.4,1.5-12.3,3.5-26.1,7.5-39.8,7.5Z"/>
        <circle class="st42" cx="123.9" cy="1379.8" r="48.1" transform="translate(-313.7 65.4) rotate(-13.3)"/>
        <path class="st6" d="M1533.9,488.2L477.3,1544.8c135.9,140.5,326.3,227.9,537.2,227.9,412.7,0,747.3-334.6,747.3-747.3s-87.4-401.3-227.9-537.2Z"/>
      </g>
      <g>
        <path class="st13" d="M648.8,803.3c.5-4.4,4.4-5.4,9.3-5.4,28.9,0,33.8,19.1,32.2,37.7-3.1,36.6-18.1,96.2-33.5,155.5,16.3-.3,31.5-2.8,44.9-8.8,6.2-3.9,5.2,3.9,3.3,7.7-10.6,20.1-30.4,27.1-55.2,27.9-5.7,21.4-11.4,42-16,61.1-14.2,54.4-43.8,167.4,42.6,163.8,6.2,4.4,4.4,7.7-2.1,12.1-123,15.2-99.8-106.5-83.3-179.5,3.9-18.1,8.8-38.7,14.2-60.1-18.6-2.1-38.2-5.1-57.8-7-8.3,30.9-18.3,61.1-25.5,88.7-8.8,30.7-18.8,60.1-27.6,77.1-8.5,17.5-24.2,31.5-54.4,18.1-5.4-1.8-9-4.9-7.5-8.5,1.8-2.8,8.8-6.7,13.1-15.7,3.1-6.2,7.7-18.6,12.9-34.6,12.6-40.2,27.3-82,39.5-125.4-24,2.6-45.7,10.6-62.2,28.4-3.9,1.8-7.2-3.4-4.9-6.7,16.8-33.8,43.1-46.7,74-50,16-68.4,35.3-186-43.6-208.7-35.6-7-80.2,35.9-91,86.7-9.5,46.7,8.3,96.2,33.3,99.3,29.7,5.2,61.1-48.7,66.8-70.4,1.8-.3,10.3-5.4,10.6,4.9-13.1,49.8-62.7,103.4-113,81-40.2-20.9-50.6-72.5-33.5-120.2,20.6-59.1,73.3-100.1,133.1-95.7,29.4,2.6,56.7,16,73.2,36.9,37.7,49.3,31.2,118.4,14.4,187.3,18.8,1.8,38.2,4.9,57.3,7.2,17-66,35.6-134.4,38.2-166.1.8-9.5-2.1-15.7-1.8-18.6Z"/>
        <path class="st13" d="M711.1,1019.2c0-5.2,0-10.3.5-14.5,1.3-16.2,3.6-30.9,7.5-41,6.7-8.3,16.5-11.9,26.1-11.9s11.6,1.5,16.3,3.9c3.6-36.4,15.2-75.8,56.2-75.8s47.5,29.7,47.5,67.6-.3,10.1-.8,14.7v-.3c-2.6,26.6-11.6,56.2-24.8,81,26.6-5.4,40.8-31.7,53.9-57.3l5.7-10.3c1.5-.8,3.4-1.5,4.4-1.5,1.8,0,3.6,1,4.6,5.2-11.6,27.6-36.9,76.1-76.9,78.4-17.5,26.6-41.3,45.1-68.9,45.1-39.2,0-51.3-46.4-51.3-83.3ZM761.4,990.3c-1,5.4-1.5,11.6-2.1,17.3-.5,5.4-.8,10.8-.8,16,0,25.5,5.9,49.3,24,49.3s21.4-5.7,30.9-16.5c-34.3-10.3-48.5-34.6-52.1-66ZM824.1,1041.9c13.4-21.7,23-52.1,25.3-79.2.5-4.6.5-9,.5-13.4,0-29.7-10.1-53.6-33-53.6s-23.2,24.8-25.8,52.4c-.5,6.2-1,13.9-1,22.2,0,29.1,5.4,66.3,34,71.7Z"/>
        <path class="st13" d="M1008.3,858c-4.1,45.9-42,93.9-77.6,126.4-.3,0-8.3,30.4-10.8,57.5-.5,4.4-.5,8.3-.5,12.1,0,16.5,3.9,29.4,15.2,29.4,28.1,0,56.5-58,72-90,4.1-9.3,7.7-16.8,9.8-19.3,1.3-1,3.1-1.3,4.1-1.3,3.1,0,4.9,2.1,6.2,4.9l-8.8,17.8h.3c-21.7,46.2-52.4,109.9-90.3,109.9s-42.3-31.5-42.3-60.9,0-9.5.5-13.9v.3c4.1-49,40.5-211.5,100.8-211.5s22.4,24,21.4,38.7ZM936.3,962.5c14.2-12.6,56-61.6,59.6-100.8,1-8.8-.3-21.9-5.4-21.9-11.1,0-36.4,52.9-54.2,122.8Z"/>
        <path class="st13" d="M1027.7,933.8c.5-2.8.8-5.4.8-7.2s.3-3.9.5-4.9c1.3-4.4,5.9-4.9,10.8-3.6,14.2,5.2,20.6,10.8,20.6,20.6s-1.3,10.6-3.4,17.5c-7,22.2-18.1,65.8-21.4,94.4-.3,3.4-.5,7.7-.5,10.6,0,12.1,2.3,20.1,8,20.4,14.4,0,44.4-56.7,61.1-88.7,4.4-8.3,7.7-14.7,10.3-18.8,1.5-.8,2.8-1.3,3.9-1.3,2.6,0,4.6,2.1,6.5,5.2l-2.8,5.4c-20.1,41.8-60.4,119.7-90.3,119.7s-31.7-20.6-31.7-46.4.3-8.5.5-12.6c2.8-33.5,12.9-66,23.5-98.5l3.6-11.9v.3ZM1079.3,884.8c-1,11.6-11.9,18.3-21.4,18.3s-15.5-6.7-15-20.9c1-11.1,8.3-23.5,18.1-23.5s9.3,2.6,13.4,8.8c3.9,6.7,5.2,12.4,4.9,17.3Z"/>
        <path class="st13" d="M1192.5,1062.3c0-3.1.3-6.7.5-10.6.3-4.6-.3-4.6,1-11.3-19.1,31.7-45.9,65-75.8,65s-36.1-20.1-36.1-43.1,0-5.7.3-8.3c6.4-51.8,56-144.7,114.5-144.7s17,2.8,24,8l2.6-9.8c7.5-32.5,14.2-60.1,15-70.7.3-5.7-.5-9.8-1-12.9-.3-1.8-.5-3.3-.5-4.6.3-4.6,4.9-5.9,9.8-5.9,26.8,0,30.9,18.1,29.4,35.9-1.3,15.7-10.6,55.2-20.4,97-1.3,7-4.1,17-6.7,28.1-7.5,29.1-17,68.1-17,91s0,5.9.5,8.3c1,7.5,4.4,10.6,9.3,10.6,8.5,0,20.4-9,27.1-16.8,17.8-19.9,33.3-52.1,43.6-73,4.6-9.5,8-16.8,10.1-19.6,1.3-1,3.1-1.3,4.1-1.3,2.8,0,4.6,2.1,5.9,4.9-3.3,6.2-6.7,14.2-10.3,21.4-12.1,24.8-26.3,54.2-42,75.1-11.6,14.7-25.8,29.9-46.2,31.2-30.2,0-41.5-16.2-41.5-43.8ZM1201.5,1002.2c3.6-17,8-35.9,12.4-54.7.8-3.6,2.1-6.7,2.8-10.6-3.4-2.6-7.5-3.9-12.4-3.9-36.4,0-76.4,93.6-78.9,123.8-1,9.8,0,23.2,12.1,23.2,23.2,0,52.1-54.4,64.2-78.2l-.3.3Z"/>
        <path class="st13" d="M1446.6,982.8c-.8,1-5.2,2.3-6.5,2.3s-3.9-1-5.4-3.1c1.3-3.6,1.8-7,2.3-10.6.8-17.5-6.2-39.5-25-39.5-36.4,0-76.4,93.6-78.9,123.8-.8,9.8.3,23.2,12.4,23.2,21.7,0,49-49.3,61.9-74.5,1-3.9,4.1-9,3.6-15.2-.5-4.7,4.9-5.9,10.1-6.2,20.4,1.8,27.1,10.1,28.1,20.9,1,11.1-3.6,24.5-5.4,35.6-1.3,7-8,47.5,4.9,35.9,16.8-16.8,38.2-55.5,51.6-81,3.9-8.3,8-16.3,10.8-20.9,1.3-.5,2.6-.8,3.9-.8,3.1,0,4.9,2.1,6.2,4.9l-2.6,5.7c-14.2,28.6-44.4,90-68.6,109.9-7,5.7-17.3,10.1-26.6,10.1-24.5,0-26.6-40.2-24-57.5,0-.8,0-.3.3-2.6-18.6,30.7-45.1,61.1-74,61.1s-35.9-20.4-35.9-43.8,0-5.2.3-7.5c6.5-51.9,56-144.7,114.5-144.7s47.5,31.7,45.4,60.4c-.5,4.9-1.5,9.5-3.1,13.9l-.3.3Z"/>
        <path class="st13" d="M1680.1,976.1c.3,0,.8,0,1.5-.3,2.3-.5,5.4-1.3,9.3,2.3-17.8,36.6-46.9,87.7-70.4,102.9-23.2,113-60.6,233.7-127.4,225.7-19.1-2.3-31.7-20.6-31.7-44.9s.8-11.9,2.3-18.1c17-63.2,60.6-106.5,107.6-147.3,3.6-18.1,8-38.7,13.4-65.8l-3.4,4.9c-21.9,34.8-45.9,68.9-72.2,68.9s-24.3-13.1-24.3-32.5.3-7,.5-10.6c2.1-22.7,10.8-53.9,17.8-79.4,5.7-20.6,11.1-40.5,12.1-51.8.5-5.4-.5-9-1-11.6-.3-1.3-.5-2.1-.5-3.6.3-4.6,4.6-6.2,9.3-6.2,6.7,0,15,2.6,18.1,4.4,9.8,6.7,13.2,19.9,12.1,33-1,13.4-5.2,26.6-8.5,36.6l-1.5,4.9c-6.4,19.9-18.1,58.6-20.4,78.9-.3,7.5.3,13.9,3.3,13.9,12.6,0,45.7-55.7,62.4-84.6v.3c1.3-2.1,2.8-4.1,3.9-6.2l-.3.3c5.2-26.3,8-45.4,8.3-51.3.5-5.9-.5-10.3-1-13.9-.5-2.1-.5-3.6-.5-4.6.5-4.6,4.7-5.9,10.1-6.2,22.7,0,31.2,11.1,33,25.3-2.8,35.1-7.2,69.1-17.3,120.7,19.1-15.5,40-54.4,54.4-83.3l1-.8ZM1488.4,1276.9c8-1,15.7-7.2,22.4-16.3,20.1-26.6,36.4-77.9,47.7-114.5,2.1-6.2,3.3-12.4,5.2-17.5v.3l2.6-10.1c-24,18.8-46.9,43.6-64.7,70.7-7.5,12.4-26.1,50-26.1,71.7s3.6,15.7,12.9,15.7Z"/>
      </g>
      <g>
        <path class="st46" d="M1625.4,450.4c28.9-53.6,30.2-174.1,29.6-221.4h0v-19.7c-94.1-14.8-190-14.8-284.2,0,0,0-7.3,173.6,29.1,241.1,23.6,43.8,64,75.4,89.5,92.2-2.6.8-4.4,3.1-4.4,5.9v8.9c0,3.4,2.8,6.2,6.2,6.2h5.5v83.4l-15.5,26.5h-17.4l-31.8,32.2v52.4h-15.7v12.4h192.7v-12.4h-15.7v-52.9l-33-31.6h-16.2l-15.4-26.6h0v-83.3h3.2c3.5,0,6.2-2.8,6.2-6.2v-8.9c0-2.3-1.2-4.2-3-5.3,25.4-16.7,66.5-48.5,90.4-92.8Z"/>
        <path class="st46" d="M1609,773h-192.7c-1.4,0-2.5-1.1-2.5-2.5v-12.4c0-1.4,1.1-2.5,2.5-2.5h13.2v-49.9c0-.7.3-1.3.7-1.7l31.8-32.2c.5-.5,1.1-.7,1.8-.7h16l14.4-24.7v-80.2h-3c-4.8,0-8.8-3.9-8.8-8.7v-8.9c0-2.3.9-4.4,2.4-6-28.1-18.9-64.8-49.6-87.1-91-15.3-28.3-24.8-77.8-28.5-146.9-2.7-51.4-.9-95-.9-95.5,0-1.2.9-2.2,2.1-2.4,94.5-14.9,190.4-14.9,284.9,0,1.2.2,2.1,1.2,2.1,2.5v19.7c.7,49-.9,168.7-29.9,222.6l-2.2-1.2,2.2,1.2c-23.7,44-64.6,75.9-88.6,92,1,1.4,1.6,3.1,1.6,5v8.9c0,4.8-3.9,8.7-8.8,8.7h-.7v80l14.4,24.9h14.8c.6,0,1.3.2,1.7.7l33,31.6c.5.5.8,1.1.8,1.8v50.4h13.2c1.4,0,2.5,1.1,2.5,2.5v12.4c0,1.4-1.1,2.5-2.5,2.5ZM1418.8,768h187.7v-7.5h-13.2c-1.4,0-2.5-1.1-2.5-2.5v-51.8l-31.5-30.2h-15.2c-.9,0-1.7-.5-2.2-1.2l-15.2-26.3c-.4-.4-.6-1-.6-1.6v-83.3c0-1.4,1.1-2.5,2.5-2.5h3.2c2.1,0,3.7-1.7,3.7-3.7v-8.9c0-1.3-.7-2.5-1.8-3.2-.7-.4-1.2-1.2-1.2-2.1,0-.9.4-1.7,1.1-2.1,23.1-15.1,65.5-47.2,89.5-91.9,28.5-52.9,30-171.6,29.3-220.2v-17.6c-92.7-14.4-186.6-14.4-279.2,0-.7,19.7-4.6,175.6,28.9,237.8,22.7,42.1,60.7,72.9,88.6,91.3.8.5,1.2,1.5,1.1,2.4-.1,1-.8,1.7-1.7,2-1.6.5-2.7,1.9-2.7,3.5v8.9c0,2.1,1.7,3.7,3.7,3.7h5.5c1.4,0,2.5,1.1,2.5,2.5v83.4c0,.4-.1.9-.3,1.3l-15.5,26.5c-.4.8-1.3,1.2-2.2,1.2h-16.4l-30.3,30.7v51.4c0,1.4-1.1,2.5-2.5,2.5h-13.2v7.5Z"/>
        <g>
          <path class="st46" d="M1734.3,223.9c-29.6-11.4-59.4.7-71,28.9-5.4,13.1-5.4,27.4,0,39.1,4.9,10.7,14.2,18.8,26,22.7,3.6,1.2,7.5-.7,8.6-4.3,1.2-3.6-.7-7.4-4.3-8.6-7.3-2.4-12.9-6.8-16.5-12.8-1.3-4.6-1.8-9.1-1.4-14.3.1-2.2.3-4.4,1-6.5,3.7-13.1,17.2-21.9,30.5-21.6,17.4.4,27.2,14,31.4,29.5,4.6,17,3.7,36.1-1.6,53.6-9.9,19.9-26.4,39.4-50.5,59.6-3.5,3-7.1,5.9-10.7,8.7-2.8,2.2-5.7,4.3-8.6,6.4-11.7,8.5-24.9,18.1-31.4,33.9-4.8,11.5-3.9,25.1,2.2,36.4,6.5,11.9,18.1,18.8,30.3,18.8,3.7,0,7.5-.6,11.2-1.9,15.1-5.3,28.3-19.7,23-35.9-1.2-3.6-5-5.5-8.6-4.4-3.6,1.2-5.5,5-4.4,8.6,3.1,9.3-8.5,16.8-14.6,18.9-9.5,3.3-19.7-1-24.9-10.5-4.2-7.8-4.8-17-1.6-24.7,5.1-12.3,15.7-20,26.9-28.1,3.1-2.2,6.1-4.5,9-6.8,3.7-2.9,7.4-5.9,11-9,37.1-31.2,57.5-61.1,64.4-94,3.3-15.6,11.1-67.6-25.4-81.7Z"/>
          <path class="st46" d="M1668.2,495.9c-13.5,0-25.6-7.5-32.5-20.1-6.5-12-7.4-26.4-2.3-38.6,6.8-16.4,20.4-26.3,32.3-34.9,2.9-2.1,5.8-4.2,8.5-6.4,3.9-3.1,7.4-5.9,10.6-8.7,23.8-20,40-39.2,49.8-58.7,5.3-17.6,5.8-36.1,1.5-52-2.7-10.2-10.2-27.3-29-27.7-12.7-.3-24.7,8.2-28,19.8-.5,1.8-.7,3.7-.9,6-.3,4.7,0,8.8,1.2,13.2,3.3,5.3,8.4,9.3,15,11.5,4.9,1.6,7.5,6.9,5.9,11.8-.8,2.4-2.5,4.3-4.7,5.4-2.2,1.1-4.8,1.3-7.1.5-12.5-4.2-22.2-12.7-27.5-24.1-5.7-12.3-5.7-27.3,0-41.1,12.1-29.5,43.3-42.2,74.2-30.3,38.3,14.8,30.3,68.4,26.9,84.5-7,33.4-27.7,63.7-65.2,95.3-3.5,3-7.1,5.9-11.1,9-2.9,2.3-5.8,4.4-9.1,6.8-10.9,7.9-21.2,15.4-26,27-2.9,7-2.4,15.5,1.5,22.6,4.6,8.4,13.6,12.3,21.9,9.4,5.1-1.8,15.5-8.3,13-15.8-.8-2.4-.6-4.9.6-7.1,1.1-2.2,3.1-3.9,5.4-4.6,2.3-.8,4.9-.6,7.1.5,2.2,1.1,3.9,3.1,4.7,5.4,5.8,17.7-8.3,33.3-24.5,39-3.9,1.4-7.9,2.1-12,2.1h0ZM1706.5,243.9c.2,0,.5,0,.7,0,16.1.4,28.4,11.8,33.7,31.4,4.6,16.9,4,36.4-1.6,54.9,0,.1,0,.3-.2.4-10,20.1-26.7,39.9-51.1,60.4-3.3,2.8-6.8,5.6-10.8,8.8-2.8,2.2-5.7,4.3-8.7,6.5-11.4,8.3-24.3,17.7-30.6,32.8-4.5,10.8-3.7,23.6,2.1,34.3,6,10.9,16.5,17.5,28.1,17.5h0c3.5,0,7-.6,10.3-1.8,14-4.9,26.3-18.1,21.5-32.8-.4-1.1-1.1-2-2.2-2.5-1-.5-2.2-.6-3.3-.2-1.1.4-2,1.1-2.5,2.1-.5,1-.6,2.2-.3,3.3,3.5,10.7-8,19.2-16.1,22-10.7,3.7-22.1-1.1-27.9-11.7-4.6-8.4-5.2-18.5-1.7-26.9,5.4-12.9,16.2-20.8,27.7-29.2,3-2.2,6.1-4.4,9-6.7,3.9-3.1,7.5-6,11-8.9,36.6-30.9,56.8-60.3,63.6-92.6,3.2-15.1,10.8-65.5-23.8-78.9h0c-28.2-10.9-56.7.6-67.8,27.5-5.1,12.5-5.1,26,0,37.1,4.6,10.1,13.3,17.7,24.5,21.4,1.1.4,2.3.3,3.3-.2,1-.5,1.8-1.4,2.2-2.5.8-2.3-.5-4.7-2.7-5.5-7.8-2.6-14-7.4-17.9-13.9-.1-.2-.2-.4-.3-.6-1.4-5-1.8-9.8-1.5-15.2.1-2.3.4-4.7,1-7,3.8-13.5,17.6-23.4,32.2-23.4Z"/>
        </g>
        <g>
          <path class="st46" d="M1389.3,438.2c-6.6-15.8-19.8-25.4-31.4-33.9-2.9-2.1-5.8-4.2-8.6-6.4-3.6-2.8-7.2-5.7-10.7-8.7-24.1-20.3-40.6-39.7-50.5-59.6-5.3-17.5-6.2-36.6-1.6-53.6,4.2-15.5,14-29.1,31.4-29.5,13.3-.3,26.7,8.6,30.5,21.6.6,2.1.8,4.3,1,6.5.3,5.3-.2,9.8-1.4,14.3-3.6,6-9.2,10.4-16.5,12.9-3.6,1.2-5.5,5.1-4.3,8.6,1.2,3.6,5.1,5.5,8.6,4.3,11.8-3.9,21-12,26-22.7,5.4-11.7,5.4-26,0-39.1-11.6-28.2-41.4-40.3-71-28.9-36.4,14.1-28.6,66.1-25.4,81.7,6.9,32.9,27.3,62.7,64.4,94,3.6,3.1,7.3,6,11,9,2.9,2.3,6,4.5,9,6.8,11.2,8.1,21.8,15.8,26.9,28.1,3.2,7.7,2.6,17-1.6,24.7-5.2,9.5-15.4,13.8-24.9,10.5-6.1-2.1-17.6-9.6-14.6-18.9,1.2-3.6-.8-7.4-4.4-8.6-3.6-1.2-7.4.8-8.6,4.4-5.3,16.2,7.9,30.6,23,35.9,3.7,1.3,7.5,1.9,11.2,1.9,12.2,0,23.8-6.9,30.3-18.8,6.2-11.3,7-25,2.2-36.4Z"/>
          <path class="st46" d="M1356.8,495.9h0c-4.1,0-8.1-.7-12-2.1-16.2-5.7-30.3-21.3-24.5-39,.8-2.4,2.4-4.3,4.7-5.4,2.2-1.1,4.7-1.3,7.1-.5,2.4.8,4.3,2.4,5.4,4.6,1.1,2.2,1.3,4.7.6,7.1-2.5,7.5,7.9,14,13,15.8,8.3,2.9,17.3-.9,21.9-9.4,3.9-7.1,4.4-15.6,1.5-22.6-4.8-11.6-15.1-19.1-26-27-3.3-2.4-6.2-4.5-9.1-6.8-4-3.1-7.6-6.1-11.1-9-37.5-31.6-58.3-61.9-65.2-95.3-3.4-16.1-11.3-69.7,26.9-84.5,30.9-12,62.1.8,74.2,30.3,5.6,13.8,5.6,28.7,0,41.1-5.2,11.4-15,19.9-27.5,24.1-2.4.8-4.9.6-7.1-.5-2.2-1.1-3.9-3-4.7-5.4-1.6-4.9,1-10.1,5.9-11.8,6.5-2.2,11.7-6.1,15-11.5,1.2-4.4,1.6-8.5,1.2-13.2-.1-2.3-.4-4.2-.9-6-3.3-11.6-15.3-20.2-28-19.8-18.8.4-26.3,17.5-29,27.7-4.3,15.9-3.8,34.4,1.5,52,9.7,19.5,26,38.6,49.8,58.7,3.3,2.7,6.7,5.6,10.6,8.7,2.7,2.1,5.5,4.2,8.4,6.3,12.1,8.8,25.6,18.6,32.4,35.1h0c5.1,12.2,4.2,26.6-2.3,38.6-6.9,12.6-19,20.1-32.5,20.1ZM1329.1,453.3c-.7,0-1.3.2-1.9.5-1,.5-1.8,1.4-2.2,2.5-4.8,14.7,7.5,27.9,21.5,32.8,3.4,1.2,6.8,1.8,10.3,1.8h0c11.6,0,22.1-6.5,28.1-17.5,5.8-10.7,6.6-23.5,2.1-34.3h0c-6.3-15.1-19.2-24.5-30.6-32.8-3.1-2.2-5.9-4.3-8.7-6.5-3.9-3.1-7.5-6-10.8-8.8-24.4-20.5-41.1-40.3-51.1-60.4,0-.1-.1-.3-.2-.4-5.6-18.6-6.1-38.1-1.6-54.9,5.3-19.6,17.6-31,33.7-31.4,14.9-.3,29,9.7,32.9,23.4.7,2.3.9,4.8,1,7,.3,5.4-.1,10.2-1.5,15.2,0,.2-.1.4-.3.6-3.9,6.5-10.1,11.3-17.9,13.9-2.3.8-3.5,3.2-2.7,5.5.4,1.1,1.1,2,2.2,2.5,1,.5,2.2.6,3.3.2,11.2-3.7,19.9-11.3,24.5-21.4,5.1-11.1,5.1-24.6,0-37.1-11-26.9-39.5-38.4-67.8-27.5-34.6,13.4-27,63.8-23.8,78.9,6.8,32.3,27,61.7,63.6,92.6,3.5,2.9,7.1,5.8,11,8.9,2.8,2.2,5.7,4.4,9,6.7,11.5,8.4,22.3,16.3,27.7,29.2,3.5,8.4,2.9,18.5-1.7,26.9-5.8,10.6-17.2,15.4-27.9,11.7-8.1-2.8-19.6-11.3-16.1-22,.4-1.1.3-2.3-.3-3.3-.5-1-1.4-1.8-2.5-2.1-.4-.1-.9-.2-1.4-.2Z"/>
        </g>
      </g>
      <g>
        <path class="st13" d="M563.7,1398.2h20.9v88.2h-108.2c-3.3-.2-6.7-.9-10.2-2.3-3.5-1.4-6.7-3.2-9.5-5.5s-5.2-5.1-7-8.4c-1.8-3.3-2.7-7.2-2.7-11.6v-121.6c0-2.9.5-6.1,1.4-9.5.9-3.5,2.5-6.7,4.7-9.8,2.2-3,5-5.6,8.5-7.7,3.5-2.1,7.7-3.2,12.7-3.2h108.2v20h-100.2c-3.3,0-6,.3-8,1-2,.7-3.4,1.7-4.4,3-1,1.3-1.6,2.8-1.9,4.5s-.4,3.7-.4,5.8v111.3c0,2.6.6,4.9,1.7,6.8,1.1,2,2.7,3.6,4.7,4.8,2,1.2,4.2,2.1,6.6,2.7,2.4.6,4.9.9,7.5.9h75.9v-69.5Z"/>
        <path class="st13" d="M695.2,1348c7.3,0,13.1,1.1,17.4,3.3,4.3,2.2,7.7,5,10.1,8.3,2.4,3.3,4,7,4.8,11.1.8,4.1,1.1,7.9,1.1,11.6v46.6h-96.1v11.4c0,.8,0,2-.1,3.6,0,1.7-.1,3-.1,3.9,0,4.5.2,8.2.7,10.8.4,2.7,1.2,4.7,2.2,6,1,1.4,2.2,2.2,3.7,2.6,1.5.4,3.4.6,5.7.6h80.4v18.4h-83.9c-9.1,0-16.2-1.7-21.5-5.2-5.2-3.5-7.8-8.6-7.8-15.4v-88.8c0-3.8.7-7.4,2.2-10.8,1.4-3.4,3.5-6.4,6.1-9.1,2.6-2.7,5.8-4.8,9.5-6.4,3.7-1.6,7.9-2.4,12.6-2.4h52.9ZM707.9,1386.6c-.2-4.2-.7-7.6-1.7-10.1s-2.3-4.4-4-5.8-3.6-2.2-5.8-2.6-4.6-.6-7.2-.6h-34.8c-2.9,0-5.6.2-8.3.6-2.7.4-5,1.2-7,2.4-2,1.2-3.7,3-4.9,5.2-1.2,2.3-1.8,5.4-1.8,9.3v25.5h75.4v-23.9Z"/>
        <path class="st13" d="M840.4,1348c7.3,0,13.1,1.1,17.4,3.3s7.7,5,10.1,8.3c2.4,3.3,4,7,4.8,11.1.8,4.1,1.1,7.9,1.1,11.6v46.6h-96.1v11.4c0,.8,0,2-.1,3.6,0,1.7-.1,3-.1,3.9,0,4.5.2,8.2.7,10.8.4,2.7,1.2,4.7,2.2,6,1,1.4,2.2,2.2,3.7,2.6,1.5.4,3.4.6,5.7.6h80.4v18.4h-83.9c-9.1,0-16.2-1.7-21.5-5.2-5.2-3.5-7.8-8.6-7.8-15.4v-88.8c0-3.8.7-7.4,2.2-10.8,1.4-3.4,3.5-6.4,6.1-9.1,2.6-2.7,5.8-4.8,9.5-6.4,3.7-1.6,7.9-2.4,12.6-2.4h52.9ZM853.2,1386.6c-.2-4.2-.7-7.6-1.7-10.1s-2.3-4.4-4-5.8-3.6-2.2-5.8-2.6-4.6-.6-7.2-.6h-34.8c-2.9,0-5.6.2-8.3.6-2.7.4-5,1.2-7,2.4-2,1.2-3.7,3-4.9,5.2-1.2,2.3-1.8,5.4-1.8,9.3v25.5h75.4v-23.9Z"/>
        <path class="st13" d="M989.3,1486.3l-66.6-73.4v73.4h-20.5v-187.9h20.2v98.4l58.2-48.6h29.3l-66.6,57.5,72.3,80.7h-26.4Z"/>
        <path class="st13" d="M1180.1,1326.8c-3.6,0-6.6.1-9,.3-2.4.2-4.2,1-5.5,2.4-1.3,1.4-2.2,3.4-2.7,6.2-.5,2.8-.8,6.8-.8,11.9v98.2c0,2.7.1,5.4.3,7.9.2,2.6.9,4.9,2.2,6.9s3.1,3.7,5.7,5c2.6,1.3,6.3,1.9,11.1,1.9h85v18.6h-95.7c-9.2,0-16.4-3.1-21.5-9.3-5.1-6.2-7.6-14.3-7.6-24.3v-117.9c.2-5,.8-9.2,1.9-12.7s2.8-6.3,5-8.5c2.2-2.2,5-3.8,8.3-4.8,3.3-1,7.3-1.6,12-1.7,2.6,0,6,0,10.2-.1,4.2,0,8.7-.1,13.3-.1h36.9c3.6,0,7.1,0,10.3.1,3.3,0,6.7.1,10.3.1h13.4v20l-83.4-.2Z"/>
        <path class="st13" d="M1403.9,1348.2v138.2h-77c-7-1.1-12.7-2.7-17-5s-7.9-5.2-10.5-8.9c-2.6-3.6-4.4-7.9-5.3-12.8-1-4.9-1.5-10.6-1.5-16.9v-94.5h20.5v97c0,5.6,1,9.9,3.1,12.9,2,3,4.8,5.3,8.2,6.7,3.4,1.4,7.3,2.3,11.6,2.5,4.3.2,8.7.3,13.1.3h33v-119.5h22Z"/>
        <path class="st13" d="M1433.5,1525.7v-177.5h86.3c5.5,0,10.3,1,14.4,3.1s7.7,4.7,10.5,7.8c2.8,3.2,4.9,6.8,6.4,10.9,1.4,4.1,2.2,8.2,2.2,12.3v67.9c0,5.9-.6,11.1-1.7,15.7-1.1,4.5-3,8.3-5.7,11.4-2.7,3-6.1,5.3-10.5,6.8s-9.7,2.3-16.3,2.3h-65.2v39.3h-20.5ZM1453.9,1467.7h56.6c2.6,0,5.2-.1,7.8-.3,2.6-.2,5.1-.7,7.3-1.5,2.2-.8,4-1.9,5.5-3.4,1.4-1.5,2.2-3.6,2.2-6.1,0-6.4,0-12.8-.1-19.3,0-6.5-.2-12.8-.2-18.7,0-6-.1-11.6-.1-16.9v-14.1c0-2.1-.2-4.4-.5-6.7s-.9-4.5-1.8-6.4c-.9-1.9-2.2-3.5-4-4.8-1.7-1.3-4-1.9-6.7-1.9h-65.9v100.2Z"/>
      </g>
    </g>
  </g>
</svg>